<svg xmlns="http://www.w3.org/2000/svg" xmlns:xlink="http://www.w3.org/1999/xlink" width="500" zoomAndPan="magnify" viewBox="0 0 375.12 383.03998" height="500" preserveAspectRatio="xMidYMid meet" version="1.0"><defs><clipPath id="4923ae135f"><path d="M 313 351 L 374.09375 351 L 374.09375 373 L 313 373 Z M 313 351 " clip-rule="nonzero"/></clipPath><clipPath id="6ffd844dd1"><path d="M 0.03125 1 L 61 1 L 61 23 L 0.03125 23 Z M 0.03125 1 " clip-rule="nonzero"/></clipPath></defs><path fill="#ffffff" d="M 187.0625 120.3125 L 318.933594 120.3125 L 318.933594 252.1875 L 187.0625 252.1875 Z M 187.0625 120.3125 " fill-opacity="1" fill-rule="nonzero"/><path fill="#ffffff" d="M 207.273438 186.273438 C 207.269531 186.933594 207.234375 187.59375 207.167969 188.253906 C 207.105469 188.910156 207.003906 189.566406 206.875 190.214844 C 206.746094 190.863281 206.582031 191.503906 206.390625 192.136719 C 206.195312 192.769531 205.972656 193.394531 205.71875 194.003906 C 205.464844 194.617188 205.179688 195.214844 204.867188 195.796875 C 204.554688 196.378906 204.214844 196.945312 203.847656 197.496094 C 203.480469 198.046875 203.085938 198.578125 202.664062 199.089844 C 202.246094 199.601562 201.800781 200.089844 201.332031 200.558594 C 200.863281 201.027344 200.375 201.472656 199.863281 201.890625 C 199.351562 202.3125 198.820312 202.707031 198.269531 203.074219 C 197.722656 203.441406 197.152344 203.78125 196.570312 204.09375 C 195.988281 204.40625 195.390625 204.691406 194.777344 204.945312 C 194.167969 205.199219 193.546875 205.421875 192.910156 205.613281 C 192.277344 205.808594 191.636719 205.96875 190.988281 206.101562 C 190.339844 206.230469 189.6875 206.328125 189.027344 206.394531 C 188.367188 206.460938 187.707031 206.496094 187.046875 206.496094 L 187.046875 252.171875 L 141.371094 252.171875 C 141.371094 252.835938 141.335938 253.496094 141.269531 254.15625 C 141.203125 254.816406 141.105469 255.472656 140.976562 256.121094 C 140.84375 256.769531 140.683594 257.414062 140.488281 258.046875 C 140.296875 258.679688 140.074219 259.304688 139.816406 259.914062 C 139.5625 260.527344 139.28125 261.125 138.964844 261.710938 C 138.652344 262.292969 138.3125 262.859375 137.945312 263.410156 C 137.574219 263.960938 137.179688 264.492188 136.757812 265.003906 C 136.339844 265.515625 135.894531 266.007812 135.425781 266.476562 C 134.953125 266.941406 134.464844 267.386719 133.953125 267.808594 C 133.4375 268.226562 132.90625 268.621094 132.355469 268.988281 C 131.804688 269.355469 131.238281 269.695312 130.652344 270.007812 C 130.066406 270.320312 129.46875 270.605469 128.855469 270.855469 C 128.242188 271.109375 127.621094 271.332031 126.984375 271.527344 C 126.351562 271.71875 125.710938 271.878906 125.058594 272.007812 C 124.410156 272.136719 123.753906 272.234375 123.09375 272.296875 C 122.4375 272.363281 121.773438 272.394531 121.113281 272.394531 C 120.449219 272.394531 119.789062 272.363281 119.128906 272.296875 C 118.46875 272.234375 117.8125 272.136719 117.164062 272.007812 C 116.515625 271.878906 115.871094 271.71875 115.238281 271.527344 C 114.601562 271.332031 113.980469 271.109375 113.367188 270.855469 C 112.753906 270.605469 112.15625 270.320312 111.570312 270.007812 C 110.988281 269.695312 110.417969 269.355469 109.867188 268.988281 C 109.316406 268.621094 108.785156 268.226562 108.273438 267.808594 C 107.757812 267.386719 107.269531 266.941406 106.800781 266.476562 C 106.332031 266.007812 105.886719 265.515625 105.464844 265.003906 C 105.042969 264.492188 104.648438 263.960938 104.28125 263.410156 C 103.910156 262.859375 103.570312 262.292969 103.257812 261.710938 C 102.945312 261.125 102.660156 260.527344 102.40625 259.914062 C 102.152344 259.304688 101.925781 258.679688 101.734375 258.046875 C 101.539062 257.414062 101.378906 256.769531 101.25 256.121094 C 101.117188 255.472656 101.019531 254.816406 100.953125 254.15625 C 100.886719 253.496094 100.855469 252.835938 100.851562 252.171875 L 55.175781 252.171875 L 55.175781 120.304688 L 187.046875 120.304688 L 187.046875 165.980469 C 187.710938 165.980469 188.371094 166.015625 189.03125 166.082031 C 189.691406 166.148438 190.347656 166.25 190.996094 166.378906 C 191.644531 166.511719 192.289062 166.675781 192.921875 166.867188 C 193.558594 167.0625 194.179688 167.289062 194.792969 167.542969 C 195.402344 167.796875 196.003906 168.082031 196.585938 168.398438 C 197.171875 168.710938 197.738281 169.050781 198.289062 169.421875 C 198.839844 169.792969 199.371094 170.1875 199.882812 170.609375 C 200.394531 171.03125 200.882812 171.476562 201.351562 171.945312 C 201.820312 172.417969 202.265625 172.90625 202.683594 173.421875 C 203.105469 173.933594 203.5 174.46875 203.867188 175.019531 C 204.234375 175.570312 204.574219 176.140625 204.886719 176.722656 C 205.199219 177.308594 205.480469 177.910156 205.734375 178.523438 C 205.988281 179.136719 206.210938 179.757812 206.402344 180.394531 C 206.59375 181.027344 206.753906 181.671875 206.882812 182.320312 C 207.011719 182.972656 207.109375 183.628906 207.175781 184.289062 C 207.238281 184.949219 207.273438 185.609375 207.273438 186.273438 Z M 207.273438 186.273438 " fill-opacity="1" fill-rule="nonzero"/><path fill="#ff775b" d="M 316.914062 354.707031 L 370.691406 354.707031 L 370.691406 369.1875 L 316.914062 369.1875 Z M 316.914062 354.707031 " fill-opacity="1" fill-rule="nonzero"/><path fill="#ffffff" d="M 295.050781 252.171875 L 295.050781 262.449219 L 291.53125 278.859375 C 291.144531 278.914062 290.757812 278.945312 290.371094 278.953125 C 289.894531 278.957031 289.425781 278.910156 288.957031 278.816406 C 288.492188 278.726562 288.039062 278.589844 287.597656 278.40625 C 287.160156 278.226562 286.742188 278 286.347656 277.738281 C 285.953125 277.472656 285.585938 277.171875 285.25 276.835938 C 284.914062 276.5 284.613281 276.136719 284.347656 275.738281 C 284.085938 275.34375 283.863281 274.925781 283.679688 274.488281 C 283.5 274.046875 283.363281 273.59375 283.269531 273.128906 C 283.175781 272.660156 283.132812 272.191406 283.132812 271.714844 L 283.132812 252.171875 Z M 295.050781 252.171875 " fill-opacity="1" fill-rule="nonzero"/><path fill="#ffffff" d="M 325.703125 272.316406 L 323.011719 266.539062 C 320.265625 260.648438 318.894531 254.453125 318.894531 247.957031 L 318.894531 218.382812 C 318.894531 217.601562 318.816406 216.828125 318.664062 216.058594 C 318.511719 215.292969 318.285156 214.546875 317.988281 213.824219 C 317.6875 213.101562 317.320312 212.414062 316.886719 211.765625 C 316.453125 211.113281 315.957031 210.511719 315.40625 209.960938 C 314.851562 209.40625 314.25 208.914062 313.597656 208.476562 C 312.949219 208.042969 312.261719 207.675781 311.539062 207.375 C 310.816406 207.078125 310.070312 206.851562 309.304688 206.699219 C 308.535156 206.546875 307.761719 206.46875 306.980469 206.46875 C 306.195312 206.46875 305.421875 206.546875 304.65625 206.699219 C 303.886719 206.851562 303.144531 207.078125 302.421875 207.375 C 301.695312 207.675781 301.011719 208.042969 300.359375 208.476562 C 299.710938 208.914062 299.109375 209.40625 298.554688 209.960938 C 298 210.511719 297.507812 211.113281 297.074219 211.765625 C 296.636719 212.414062 296.269531 213.101562 295.972656 213.824219 C 295.671875 214.546875 295.445312 215.292969 295.292969 216.058594 C 295.140625 216.828125 295.066406 217.601562 295.066406 218.382812 L 295.066406 261.972656 L 291.378906 279.046875 C 290.304688 284.039062 290.097656 289.066406 290.765625 294.128906 L 291.894531 302.675781 C 292.378906 306.339844 293.417969 309.835938 295.007812 313.167969 C 296.59375 316.503906 298.660156 319.507812 301.203125 322.1875 L 310.84375 332.359375 C 314.890625 336.628906 317.921875 341.527344 319.933594 347.054688 L 322.601562 354.363281 L 364.054688 354.363281 L 356.964844 254.800781 C 356.691406 250.949219 355.886719 247.214844 354.554688 243.589844 C 353.222656 239.96875 351.410156 236.601562 349.121094 233.492188 L 334.273438 213.3125 C 333.492188 212.25 332.597656 211.296875 331.59375 210.445312 C 330.585938 209.59375 329.496094 208.871094 328.324219 208.277344 C 327.148438 207.683594 325.917969 207.234375 324.636719 206.929688 C 323.355469 206.621094 322.058594 206.46875 320.742188 206.46875 L 318.894531 206.46875 L 318.894531 218.382812 " fill-opacity="1" fill-rule="nonzero"/><path fill="#ff775b" d="M 57.210938 19.351562 L 3.433594 19.351562 L 3.433594 4.871094 L 57.210938 4.871094 Z M 57.210938 19.351562 " fill-opacity="1" fill-rule="nonzero"/><path fill="#ffffff" d="M 79.070312 120.253906 L 79.070312 111.613281 L 82.59375 95.203125 C 82.976562 95.148438 83.363281 95.117188 83.75 95.109375 C 84.226562 95.105469 84.699219 95.152344 85.164062 95.246094 C 85.628906 95.335938 86.082031 95.472656 86.523438 95.65625 C 86.960938 95.835938 87.378906 96.0625 87.777344 96.324219 C 88.171875 96.589844 88.535156 96.890625 88.875 97.226562 C 89.210938 97.5625 89.507812 97.925781 89.773438 98.324219 C 90.039062 98.71875 90.261719 99.136719 90.441406 99.574219 C 90.625 100.015625 90.761719 100.46875 90.851562 100.933594 C 90.945312 101.402344 90.992188 101.871094 90.992188 102.347656 L 90.992188 120.253906 Z M 79.070312 120.253906 " fill-opacity="1" fill-rule="nonzero"/><path fill="#ffffff" d="M 48.417969 101.746094 L 51.109375 107.523438 C 53.855469 113.414062 55.226562 119.609375 55.226562 126.105469 L 55.226562 155.679688 C 55.226562 156.460938 55.304688 157.234375 55.457031 158.003906 C 55.609375 158.769531 55.835938 159.515625 56.136719 160.238281 C 56.433594 160.960938 56.800781 161.648438 57.234375 162.296875 C 57.671875 162.949219 58.164062 163.550781 58.71875 164.101562 C 59.269531 164.65625 59.871094 165.148438 60.523438 165.585938 C 61.175781 166.019531 61.859375 166.386719 62.582031 166.6875 C 63.304688 166.984375 64.050781 167.210938 64.820312 167.363281 C 65.585938 167.515625 66.359375 167.59375 67.144531 167.59375 C 67.925781 167.59375 68.699219 167.515625 69.46875 167.363281 C 70.234375 167.210938 70.980469 166.984375 71.703125 166.6875 C 72.425781 166.386719 73.113281 166.019531 73.761719 165.585938 C 74.414062 165.148438 75.015625 164.65625 75.566406 164.101562 C 76.121094 163.550781 76.613281 162.949219 77.050781 162.296875 C 77.484375 161.648438 77.851562 160.960938 78.152344 160.238281 C 78.449219 159.515625 78.675781 158.769531 78.828125 158.003906 C 78.980469 157.234375 79.058594 156.460938 79.058594 155.679688 L 79.058594 112.089844 L 82.742188 95.015625 C 83.820312 90.023438 84.023438 84.996094 83.355469 79.933594 L 82.226562 71.386719 C 81.742188 67.722656 80.707031 64.226562 79.117188 60.894531 C 77.527344 57.558594 75.460938 54.554688 72.921875 51.875 L 63.28125 41.703125 C 59.234375 37.433594 56.203125 32.535156 54.1875 27.007812 L 51.519531 19.699219 L 10.066406 19.699219 L 17.15625 119.261719 C 17.429688 123.113281 18.234375 126.847656 19.566406 130.472656 C 20.902344 134.09375 22.710938 137.460938 25 140.570312 L 39.851562 160.75 C 40.632812 161.8125 41.523438 162.765625 42.53125 163.617188 C 43.535156 164.46875 44.625 165.191406 45.800781 165.785156 C 46.976562 166.378906 48.203125 166.828125 49.484375 167.132812 C 50.765625 167.441406 52.0625 167.59375 53.382812 167.59375 L 55.226562 167.59375 L 55.226562 155.679688 " fill-opacity="1" fill-rule="nonzero"/><path fill="#9cc6ec" d="M 302.679688 120.3125 C 302.269531 121.867188 301.796875 123.40625 301.257812 124.921875 C 300.722656 126.4375 300.125 127.929688 299.464844 129.398438 C 298.804688 130.867188 298.089844 132.304688 297.3125 133.714844 C 296.535156 135.125 295.699219 136.496094 294.808594 137.839844 C 293.917969 139.179688 292.976562 140.480469 291.976562 141.742188 C 290.980469 143.007812 289.933594 144.226562 288.835938 145.402344 C 287.738281 146.582031 286.597656 147.710938 285.40625 148.792969 C 284.214844 149.878906 282.984375 150.910156 281.707031 151.890625 C 280.433594 152.875 279.121094 153.800781 277.769531 154.675781 C 276.417969 155.550781 275.035156 156.367188 273.617188 157.128906 C 272.199219 157.890625 270.75 158.589844 269.277344 159.234375 C 267.800781 159.875 266.300781 160.453125 264.777344 160.972656 C 263.253906 161.492188 261.710938 161.949219 260.152344 162.339844 C 258.589844 162.730469 257.015625 163.058594 255.429688 163.320312 C 253.84375 163.585938 252.246094 163.78125 250.640625 163.914062 C 249.039062 164.046875 247.433594 164.113281 245.824219 164.113281 C 244.214844 164.113281 242.605469 164.046875 241.003906 163.914062 C 239.398438 163.78125 237.804688 163.585938 236.214844 163.320312 C 234.628906 163.058594 233.054688 162.730469 231.496094 162.339844 C 229.933594 161.949219 228.390625 161.492188 226.867188 160.972656 C 225.34375 160.453125 223.84375 159.875 222.371094 159.234375 C 220.894531 158.589844 219.449219 157.890625 218.03125 157.128906 C 216.609375 156.367188 215.226562 155.550781 213.875 154.675781 C 212.523438 153.800781 211.210938 152.875 209.9375 151.890625 C 208.664062 150.910156 207.429688 149.878906 206.238281 148.792969 C 205.050781 147.710938 203.90625 146.582031 202.808594 145.402344 C 201.710938 144.226562 200.664062 143.007812 199.667969 141.742188 C 198.671875 140.480469 197.726562 139.179688 196.835938 137.839844 C 195.945312 136.496094 195.113281 135.125 194.335938 133.714844 C 193.558594 132.304688 192.839844 130.867188 192.179688 129.398438 C 191.519531 127.929688 190.921875 126.4375 190.386719 124.921875 C 189.851562 123.40625 189.375 121.867188 188.964844 120.3125 Z M 302.679688 120.3125 " fill-opacity="1" fill-rule="nonzero"/><path fill="#f9ae1f" d="M 304.605469 92.058594 C 304.609375 93.984375 304.515625 95.90625 304.332031 97.824219 C 304.144531 99.742188 303.867188 101.644531 303.492188 103.535156 C 303.117188 105.425781 302.652344 107.292969 302.097656 109.136719 C 301.539062 110.980469 300.894531 112.792969 300.160156 114.574219 C 299.421875 116.355469 298.601562 118.097656 297.695312 119.796875 C 296.789062 121.496094 295.800781 123.148438 294.734375 124.753906 C 293.664062 126.355469 292.519531 127.902344 291.296875 129.394531 C 290.078125 130.882812 288.785156 132.308594 287.425781 133.671875 C 286.0625 135.035156 284.636719 136.332031 283.148438 137.554688 C 281.660156 138.777344 280.117188 139.925781 278.515625 140.996094 C 276.914062 142.066406 275.261719 143.058594 273.5625 143.964844 C 271.867188 144.875 270.125 145.699219 268.347656 146.4375 C 266.566406 147.175781 264.753906 147.824219 262.910156 148.382812 C 261.066406 148.945312 259.199219 149.410156 257.3125 149.789062 C 255.421875 150.164062 253.519531 150.445312 251.601562 150.636719 C 249.683594 150.824219 247.761719 150.917969 245.835938 150.917969 C 243.90625 150.917969 241.984375 150.824219 240.066406 150.636719 C 238.148438 150.445312 236.246094 150.164062 234.355469 149.789062 C 232.46875 149.410156 230.601562 148.945312 228.757812 148.382812 C 226.914062 147.824219 225.101562 147.175781 223.320312 146.4375 C 221.542969 145.699219 219.804688 144.875 218.105469 143.964844 C 216.40625 143.058594 214.753906 142.066406 213.152344 140.996094 C 211.550781 139.925781 210.007812 138.777344 208.519531 137.554688 C 207.03125 136.332031 205.605469 135.035156 204.242188 133.671875 C 202.882812 132.308594 201.589844 130.882812 200.371094 129.394531 C 199.148438 127.902344 198.003906 126.355469 196.933594 124.753906 C 195.867188 123.148438 194.878906 121.496094 193.972656 119.796875 C 193.066406 118.097656 192.246094 116.355469 191.511719 114.574219 C 190.773438 112.792969 190.128906 110.980469 189.570312 109.136719 C 189.015625 107.292969 188.550781 105.425781 188.175781 103.535156 C 187.800781 101.644531 187.523438 99.742188 187.335938 97.824219 C 187.152344 95.90625 187.058594 93.984375 187.0625 92.058594 L 187.0625 78.125 L 304.605469 78.125 Z M 304.605469 92.058594 " fill-opacity="1" fill-rule="nonzero"/><path fill="#fece6f" d="M 304.613281 78.125 C 304.613281 80.050781 304.519531 81.96875 304.328125 83.886719 C 304.140625 85.800781 303.859375 87.703125 303.484375 89.589844 C 303.105469 91.480469 302.640625 93.34375 302.082031 95.1875 C 301.523438 97.027344 300.875 98.839844 300.136719 100.617188 C 299.402344 102.394531 298.578125 104.132812 297.671875 105.832031 C 296.765625 107.527344 295.777344 109.179688 294.707031 110.777344 C 293.636719 112.378906 292.492188 113.921875 291.269531 115.410156 C 290.050781 116.898438 288.757812 118.324219 287.398438 119.683594 C 286.035156 121.046875 284.613281 122.335938 283.125 123.558594 C 281.636719 124.78125 280.089844 125.925781 278.492188 126.996094 C 276.890625 128.0625 275.242188 129.050781 273.542969 129.960938 C 271.84375 130.867188 270.105469 131.6875 268.328125 132.425781 C 266.550781 133.164062 264.742188 133.808594 262.898438 134.371094 C 261.054688 134.929688 259.191406 135.394531 257.304688 135.769531 C 255.414062 136.144531 253.511719 136.429688 251.597656 136.617188 C 249.683594 136.804688 247.761719 136.898438 245.835938 136.898438 C 243.910156 136.898438 241.992188 136.804688 240.074219 136.617188 C 238.160156 136.429688 236.257812 136.144531 234.371094 135.769531 C 232.480469 135.394531 230.617188 134.929688 228.773438 134.371094 C 226.933594 133.808594 225.121094 133.164062 223.34375 132.425781 C 221.566406 131.6875 219.828125 130.867188 218.128906 129.960938 C 216.433594 129.050781 214.785156 128.0625 213.183594 126.996094 C 211.582031 125.925781 210.039062 124.78125 208.550781 123.558594 C 207.0625 122.335938 205.636719 121.046875 204.277344 119.683594 C 202.914062 118.324219 201.625 116.898438 200.402344 115.410156 C 199.179688 113.921875 198.035156 112.378906 196.964844 110.777344 C 195.898438 109.179688 194.910156 107.527344 194 105.832031 C 193.09375 104.132812 192.273438 102.394531 191.535156 100.617188 C 190.796875 98.839844 190.152344 97.027344 189.59375 95.1875 C 189.035156 93.34375 188.566406 91.480469 188.191406 89.589844 C 187.816406 87.703125 187.53125 85.800781 187.34375 83.886719 C 187.15625 81.96875 187.0625 80.050781 187.0625 78.125 C 187.0625 76.199219 187.15625 74.28125 187.34375 72.363281 C 187.53125 70.449219 187.816406 68.546875 188.191406 66.65625 C 188.566406 64.769531 189.035156 62.90625 189.59375 61.0625 C 190.152344 59.222656 190.796875 57.410156 191.535156 55.632812 C 192.273438 53.855469 193.09375 52.117188 194 50.417969 C 194.910156 48.71875 195.898438 47.070312 196.964844 45.472656 C 198.035156 43.871094 199.179688 42.324219 200.402344 40.839844 C 201.625 39.351562 202.914062 37.925781 204.277344 36.5625 C 205.636719 35.203125 207.0625 33.910156 208.550781 32.691406 C 210.039062 31.46875 211.582031 30.324219 213.183594 29.253906 C 214.785156 28.183594 216.433594 27.195312 218.128906 26.289062 C 219.828125 25.382812 221.566406 24.558594 223.34375 23.824219 C 225.121094 23.085938 226.933594 22.4375 228.773438 21.878906 C 230.617188 21.320312 232.480469 20.855469 234.371094 20.480469 C 236.257812 20.101562 238.160156 19.820312 240.074219 19.632812 C 241.992188 19.445312 243.910156 19.347656 245.835938 19.347656 C 247.761719 19.347656 249.683594 19.445312 251.597656 19.632812 C 253.511719 19.820312 255.414062 20.101562 257.304688 20.480469 C 259.191406 20.855469 261.054688 21.320312 262.898438 21.878906 C 264.742188 22.4375 266.550781 23.085938 268.328125 23.824219 C 270.105469 24.558594 271.84375 25.382812 273.542969 26.289062 C 275.242188 27.195312 276.890625 28.183594 278.492188 29.253906 C 280.089844 30.324219 281.636719 31.46875 283.125 32.691406 C 284.613281 33.910156 286.035156 35.203125 287.398438 36.5625 C 288.757812 37.925781 290.050781 39.351562 291.269531 40.839844 C 292.492188 42.324219 293.636719 43.871094 294.707031 45.472656 C 295.777344 47.070312 296.765625 48.71875 297.671875 50.417969 C 298.578125 52.117188 299.402344 53.855469 300.136719 55.632812 C 300.875 57.410156 301.523438 59.222656 302.082031 61.0625 C 302.640625 62.90625 303.105469 64.769531 303.484375 66.65625 C 303.859375 68.546875 304.140625 70.449219 304.328125 72.363281 C 304.519531 74.28125 304.613281 76.199219 304.613281 78.125 Z M 304.613281 78.125 " fill-opacity="1" fill-rule="nonzero"/><path fill="#fece6f" d="M 172.972656 356.011719 C 172.972656 356.011719 175.734375 314.207031 202.910156 314.207031 C 175.734375 314.207031 172.972656 272.398438 172.972656 272.398438 C 172.972656 272.398438 170.207031 314.207031 143.035156 314.207031 C 170.207031 314.207031 172.972656 356.011719 172.972656 356.011719 Z M 172.972656 356.011719 " fill-opacity="1" fill-rule="nonzero"/><path fill="#3a287a" d="M 295.042969 255.585938 L 187.0625 255.585938 C 186.609375 255.585938 186.175781 255.5 185.761719 255.328125 C 185.34375 255.15625 184.976562 254.910156 184.65625 254.589844 C 184.335938 254.273438 184.09375 253.90625 183.917969 253.488281 C 183.746094 253.070312 183.660156 252.636719 183.660156 252.1875 C 183.660156 251.734375 183.746094 251.300781 183.917969 250.886719 C 184.09375 250.46875 184.335938 250.101562 184.65625 249.78125 C 184.976562 249.464844 185.34375 249.21875 185.761719 249.042969 C 186.175781 248.871094 186.609375 248.785156 187.0625 248.785156 L 295.042969 248.785156 C 295.492188 248.785156 295.925781 248.871094 296.34375 249.042969 C 296.761719 249.21875 297.128906 249.464844 297.449219 249.78125 C 297.765625 250.101562 298.011719 250.46875 298.183594 250.886719 C 298.355469 251.300781 298.445312 251.734375 298.445312 252.1875 C 298.445312 252.636719 298.355469 253.070312 298.183594 253.488281 C 298.011719 253.90625 297.765625 254.273438 297.449219 254.589844 C 297.128906 254.910156 296.761719 255.15625 296.34375 255.328125 C 295.925781 255.5 295.492188 255.585938 295.042969 255.585938 Z M 295.042969 255.585938 " fill-opacity="1" fill-rule="nonzero"/><path fill="#3a287a" d="M 121.09375 275.8125 C 119.683594 275.808594 118.289062 275.683594 116.902344 275.433594 C 115.519531 275.179688 114.167969 274.808594 112.847656 274.316406 C 111.53125 273.824219 110.265625 273.21875 109.054688 272.503906 C 107.84375 271.785156 106.707031 270.964844 105.640625 270.046875 C 104.578125 269.125 103.601562 268.117188 102.71875 267.023438 C 101.832031 265.925781 101.054688 264.761719 100.375 263.53125 C 99.699219 262.296875 99.136719 261.011719 98.6875 259.675781 C 98.242188 258.34375 97.914062 256.980469 97.710938 255.585938 L 55.191406 255.585938 C 54.742188 255.585938 54.308594 255.5 53.890625 255.328125 C 53.472656 255.15625 53.105469 254.910156 52.789062 254.59375 C 52.46875 254.273438 52.222656 253.90625 52.050781 253.488281 C 51.878906 253.070312 51.792969 252.636719 51.792969 252.1875 L 51.792969 167.621094 C 51.792969 167.167969 51.878906 166.734375 52.050781 166.320312 C 52.222656 165.902344 52.46875 165.535156 52.789062 165.214844 C 53.105469 164.898438 53.476562 164.652344 53.890625 164.480469 C 54.308594 164.304688 54.742188 164.21875 55.191406 164.21875 C 55.644531 164.21875 56.078125 164.304688 56.496094 164.480469 C 56.910156 164.652344 57.277344 164.898438 57.597656 165.214844 C 57.917969 165.535156 58.160156 165.902344 58.335938 166.320312 C 58.507812 166.734375 58.59375 167.167969 58.59375 167.621094 L 58.59375 248.785156 L 100.867188 248.785156 C 101.320312 248.785156 101.753906 248.871094 102.167969 249.042969 C 102.585938 249.21875 102.953125 249.460938 103.273438 249.78125 C 103.59375 250.101562 103.835938 250.46875 104.011719 250.886719 C 104.183594 251.300781 104.269531 251.734375 104.269531 252.1875 C 104.269531 252.738281 104.296875 253.289062 104.355469 253.835938 C 104.410156 254.382812 104.492188 254.929688 104.601562 255.46875 C 104.710938 256.007812 104.84375 256.542969 105.007812 257.070312 C 105.167969 257.597656 105.355469 258.113281 105.566406 258.625 C 105.777344 259.132812 106.015625 259.628906 106.273438 260.113281 C 106.535156 260.601562 106.820312 261.070312 107.125 261.53125 C 107.433594 261.988281 107.761719 262.429688 108.113281 262.855469 C 108.460938 263.28125 108.832031 263.6875 109.222656 264.078125 C 109.613281 264.464844 110.023438 264.835938 110.449219 265.183594 C 110.875 265.53125 111.316406 265.859375 111.777344 266.164062 C 112.234375 266.472656 112.707031 266.753906 113.191406 267.011719 C 113.679688 267.273438 114.175781 267.507812 114.6875 267.71875 C 115.195312 267.929688 115.714844 268.113281 116.242188 268.273438 C 116.769531 268.433594 117.304688 268.566406 117.84375 268.675781 C 118.382812 268.78125 118.929688 268.863281 119.476562 268.917969 C 120.027344 268.96875 120.574219 268.996094 121.128906 268.996094 C 121.679688 268.996094 122.226562 268.96875 122.777344 268.917969 C 123.324219 268.863281 123.871094 268.78125 124.410156 268.675781 C 124.949219 268.566406 125.484375 268.433594 126.011719 268.273438 C 126.539062 268.113281 127.058594 267.929688 127.566406 267.71875 C 128.078125 267.507812 128.574219 267.273438 129.0625 267.011719 C 129.546875 266.753906 130.019531 266.472656 130.476562 266.164062 C 130.9375 265.859375 131.378906 265.53125 131.804688 265.183594 C 132.230469 264.835938 132.640625 264.464844 133.03125 264.078125 C 133.421875 263.6875 133.792969 263.28125 134.140625 262.855469 C 134.492188 262.429688 134.820312 261.988281 135.128906 261.53125 C 135.433594 261.070312 135.71875 260.601562 135.980469 260.113281 C 136.238281 259.628906 136.476562 259.132812 136.6875 258.625 C 136.902344 258.113281 137.085938 257.597656 137.25 257.070312 C 137.410156 256.542969 137.542969 256.007812 137.652344 255.46875 C 137.761719 254.929688 137.84375 254.382812 137.898438 253.835938 C 137.957031 253.289062 137.984375 252.738281 137.984375 252.1875 C 137.984375 251.734375 138.070312 251.300781 138.242188 250.886719 C 138.417969 250.46875 138.660156 250.101562 138.980469 249.78125 C 139.300781 249.460938 139.667969 249.21875 140.085938 249.042969 C 140.5 248.871094 140.933594 248.785156 141.386719 248.785156 L 183.660156 248.785156 L 183.660156 206.507812 C 183.660156 206.058594 183.746094 205.625 183.917969 205.207031 C 184.089844 204.789062 184.335938 204.421875 184.65625 204.101562 C 184.976562 203.785156 185.34375 203.539062 185.757812 203.367188 C 186.175781 203.195312 186.609375 203.105469 187.0625 203.109375 C 187.613281 203.105469 188.160156 203.078125 188.710938 203.023438 C 189.257812 202.964844 189.804688 202.882812 190.34375 202.773438 C 190.882812 202.667969 191.417969 202.53125 191.945312 202.371094 C 192.472656 202.207031 192.988281 202.023438 193.496094 201.808594 C 194.007812 201.597656 194.503906 201.363281 194.988281 201.101562 C 195.472656 200.839844 195.945312 200.554688 196.402344 200.25 C 196.859375 199.941406 197.304688 199.613281 197.726562 199.261719 C 198.152344 198.914062 198.5625 198.542969 198.949219 198.152344 C 199.339844 197.761719 199.707031 197.355469 200.058594 196.925781 C 200.40625 196.5 200.734375 196.058594 201.039062 195.601562 C 201.34375 195.140625 201.628906 194.667969 201.886719 194.183594 C 202.144531 193.695312 202.382812 193.199219 202.589844 192.6875 C 202.800781 192.179688 202.988281 191.660156 203.148438 191.132812 C 203.308594 190.605469 203.441406 190.074219 203.546875 189.53125 C 203.65625 188.992188 203.734375 188.445312 203.789062 187.898438 C 203.84375 187.351562 203.871094 186.800781 203.871094 186.25 C 203.871094 185.699219 203.84375 185.148438 203.789062 184.601562 C 203.734375 184.050781 203.65625 183.507812 203.546875 182.964844 C 203.441406 182.425781 203.308594 181.890625 203.148438 181.363281 C 202.988281 180.835938 202.800781 180.320312 202.589844 179.808594 C 202.382812 179.300781 202.144531 178.800781 201.886719 178.316406 C 201.628906 177.828125 201.34375 177.355469 201.039062 176.898438 C 200.734375 176.441406 200.40625 175.996094 200.058594 175.570312 C 199.707031 175.144531 199.339844 174.734375 198.949219 174.347656 C 198.5625 173.957031 198.152344 173.585938 197.726562 173.234375 C 197.304688 172.882812 196.859375 172.554688 196.402344 172.25 C 195.945312 171.941406 195.472656 171.65625 194.988281 171.398438 C 194.503906 171.136719 194.007812 170.898438 193.496094 170.6875 C 192.988281 170.476562 192.472656 170.289062 191.945312 170.128906 C 191.417969 169.96875 190.882812 169.832031 190.34375 169.722656 C 189.804688 169.613281 189.257812 169.53125 188.710938 169.476562 C 188.160156 169.421875 187.613281 169.390625 187.0625 169.390625 C 186.609375 169.390625 186.175781 169.304688 185.757812 169.132812 C 185.34375 168.960938 184.976562 168.714844 184.65625 168.394531 C 184.335938 168.078125 184.089844 167.707031 183.917969 167.292969 C 183.746094 166.875 183.660156 166.441406 183.660156 165.988281 L 183.660156 134.160156 C 183.660156 133.707031 183.746094 133.273438 183.917969 132.859375 C 184.09375 132.441406 184.335938 132.074219 184.65625 131.753906 C 184.976562 131.4375 185.34375 131.191406 185.761719 131.019531 C 186.175781 130.84375 186.609375 130.757812 187.0625 130.757812 C 187.511719 130.757812 187.945312 130.84375 188.363281 131.019531 C 188.777344 131.191406 189.148438 131.4375 189.464844 131.753906 C 189.785156 132.074219 190.03125 132.441406 190.203125 132.859375 C 190.375 133.273438 190.460938 133.707031 190.460938 134.160156 L 190.460938 162.835938 C 191.855469 163.039062 193.21875 163.367188 194.554688 163.816406 C 195.890625 164.265625 197.175781 164.828125 198.410156 165.503906 C 199.644531 166.183594 200.8125 166.964844 201.90625 167.851562 C 203 168.738281 204.007812 169.714844 204.929688 170.78125 C 205.851562 171.847656 206.671875 172.984375 207.386719 174.199219 C 208.105469 175.410156 208.710938 176.675781 209.199219 177.996094 C 209.691406 179.316406 210.0625 180.671875 210.3125 182.058594 C 210.5625 183.445312 210.6875 184.84375 210.6875 186.25 C 210.6875 187.660156 210.5625 189.058594 210.3125 190.445312 C 210.0625 191.832031 209.691406 193.183594 209.199219 194.503906 C 208.710938 195.824219 208.105469 197.089844 207.386719 198.304688 C 206.671875 199.515625 205.851562 200.65625 204.929688 201.722656 C 204.007812 202.785156 203 203.761719 201.90625 204.648438 C 200.8125 205.535156 199.644531 206.316406 198.410156 206.996094 C 197.175781 207.675781 195.890625 208.238281 194.554688 208.6875 C 193.21875 209.132812 191.855469 209.460938 190.460938 209.667969 L 190.460938 252.1875 C 190.460938 252.636719 190.375 253.070312 190.203125 253.488281 C 190.03125 253.90625 189.785156 254.273438 189.464844 254.59375 C 189.148438 254.910156 188.78125 255.15625 188.363281 255.328125 C 187.945312 255.5 187.511719 255.585938 187.0625 255.585938 L 144.539062 255.585938 C 144.332031 256.980469 144.003906 258.347656 143.554688 259.683594 C 143.101562 261.019531 142.539062 262.304688 141.859375 263.539062 C 141.179688 264.773438 140.394531 265.9375 139.507812 267.03125 C 138.621094 268.128906 137.640625 269.136719 136.574219 270.054688 C 135.507812 270.976562 134.367188 271.796875 133.152344 272.511719 C 131.9375 273.230469 130.671875 273.835938 129.351562 274.324219 C 128.03125 274.816406 126.675781 275.1875 125.289062 275.4375 C 123.898438 275.6875 122.5 275.8125 121.09375 275.8125 Z M 121.09375 275.8125 " fill-opacity="1" fill-rule="nonzero"/><path fill="#3a287a" d="M 179.257812 123.714844 L 79.078125 123.714844 C 78.628906 123.714844 78.195312 123.628906 77.777344 123.457031 C 77.363281 123.285156 76.996094 123.039062 76.675781 122.71875 C 76.355469 122.402344 76.109375 122.03125 75.9375 121.617188 C 75.765625 121.199219 75.679688 120.765625 75.679688 120.316406 C 75.679688 119.863281 75.765625 119.429688 75.9375 119.011719 C 76.109375 118.597656 76.355469 118.230469 76.675781 117.910156 C 76.996094 117.589844 77.363281 117.347656 77.777344 117.171875 C 78.195312 117 78.628906 116.914062 79.078125 116.914062 L 179.257812 116.914062 C 179.707031 116.914062 180.140625 117 180.558594 117.171875 C 180.976562 117.347656 181.34375 117.589844 181.660156 117.910156 C 181.980469 118.230469 182.226562 118.597656 182.398438 119.011719 C 182.570312 119.429688 182.65625 119.863281 182.65625 120.316406 C 182.65625 120.765625 182.570312 121.199219 182.398438 121.617188 C 182.226562 122.03125 181.980469 122.402344 181.660156 122.71875 C 181.34375 123.039062 180.976562 123.285156 180.558594 123.457031 C 180.140625 123.628906 179.707031 123.714844 179.257812 123.714844 Z M 179.257812 123.714844 " fill-opacity="1" fill-rule="nonzero"/><g clip-path="url(#4923ae135f)"><path fill="#3a287a" d="M 370.691406 372.589844 L 316.914062 372.589844 C 316.460938 372.589844 316.027344 372.503906 315.613281 372.328125 C 315.195312 372.15625 314.828125 371.910156 314.507812 371.59375 C 314.191406 371.273438 313.945312 370.90625 313.773438 370.488281 C 313.597656 370.074219 313.511719 369.636719 313.511719 369.1875 L 313.511719 354.707031 C 313.511719 354.257812 313.597656 353.824219 313.773438 353.40625 C 313.945312 352.988281 314.191406 352.621094 314.507812 352.304688 C 314.828125 351.984375 315.195312 351.738281 315.613281 351.566406 C 316.027344 351.394531 316.460938 351.308594 316.914062 351.308594 L 370.691406 351.308594 C 371.144531 351.308594 371.578125 351.394531 371.992188 351.566406 C 372.410156 351.738281 372.777344 351.984375 373.097656 352.304688 C 373.414062 352.621094 373.660156 352.988281 373.835938 353.40625 C 374.007812 353.824219 374.09375 354.257812 374.09375 354.707031 L 374.09375 369.1875 C 374.09375 369.636719 374.007812 370.074219 373.835938 370.488281 C 373.660156 370.90625 373.414062 371.273438 373.097656 371.59375 C 372.777344 371.910156 372.410156 372.15625 371.992188 372.328125 C 371.578125 372.503906 371.144531 372.589844 370.691406 372.589844 Z M 320.3125 365.785156 L 367.292969 365.785156 L 367.292969 358.109375 L 320.3125 358.109375 Z M 320.3125 365.785156 " fill-opacity="1" fill-rule="nonzero"/></g><path fill="#3a287a" d="M 290.375 282.355469 C 289.675781 282.355469 288.984375 282.285156 288.296875 282.148438 C 287.613281 282.011719 286.949219 281.8125 286.304688 281.542969 C 285.660156 281.277344 285.046875 280.949219 284.464844 280.558594 C 283.882812 280.171875 283.347656 279.730469 282.855469 279.238281 C 282.359375 278.742188 281.917969 278.207031 281.53125 277.625 C 281.140625 277.042969 280.816406 276.429688 280.546875 275.785156 C 280.277344 275.140625 280.078125 274.476562 279.941406 273.792969 C 279.804688 273.105469 279.734375 272.414062 279.734375 271.714844 L 279.734375 252.171875 C 279.734375 251.722656 279.820312 251.289062 279.992188 250.871094 C 280.164062 250.457031 280.410156 250.085938 280.730469 249.769531 C 281.046875 249.449219 281.417969 249.203125 281.832031 249.03125 C 282.25 248.859375 282.683594 248.773438 283.132812 248.773438 C 283.585938 248.773438 284.019531 248.859375 284.433594 249.03125 C 284.851562 249.203125 285.21875 249.449219 285.539062 249.769531 C 285.859375 250.085938 286.101562 250.457031 286.277344 250.871094 C 286.449219 251.289062 286.535156 251.722656 286.535156 252.171875 L 286.535156 271.714844 C 286.535156 272.226562 286.632812 272.714844 286.828125 273.183594 C 287.023438 273.65625 287.300781 274.070312 287.660156 274.429688 C 288.019531 274.789062 288.433594 275.066406 288.90625 275.261719 C 289.375 275.457031 289.863281 275.554688 290.375 275.554688 L 291.125 275.484375 C 291.570312 275.4375 292.007812 275.476562 292.4375 275.601562 C 292.867188 275.726562 293.261719 275.929688 293.613281 276.203125 C 293.964844 276.480469 294.253906 276.816406 294.476562 277.203125 C 294.699219 277.589844 294.839844 278.007812 294.902344 278.453125 C 294.957031 278.898438 294.925781 279.339844 294.804688 279.773438 C 294.679688 280.210938 294.480469 280.605469 294.203125 280.960938 C 293.925781 281.316406 293.589844 281.601562 293.195312 281.824219 C 292.804688 282.046875 292.382812 282.183594 291.933594 282.238281 L 291.527344 278.859375 L 291.867188 282.242188 C 291.371094 282.3125 290.875 282.347656 290.375 282.355469 Z M 290.375 282.355469 " fill-opacity="1" fill-rule="nonzero"/><path fill="#3a287a" d="M 364.050781 357.761719 C 363.621094 357.761719 363.207031 357.683594 362.808594 357.523438 C 362.40625 357.367188 362.050781 357.140625 361.738281 356.847656 C 361.421875 356.554688 361.171875 356.214844 360.988281 355.828125 C 360.800781 355.441406 360.695312 355.035156 360.664062 354.605469 L 353.570312 255.042969 C 353.320312 251.511719 352.585938 248.085938 351.363281 244.765625 C 350.140625 241.445312 348.480469 238.359375 346.382812 235.507812 L 331.539062 215.328125 C 330.433594 213.835938 329.078125 212.621094 327.472656 211.6875 C 325.863281 210.753906 324.136719 210.179688 322.292969 209.960938 L 322.292969 218.382812 C 322.292969 218.835938 322.207031 219.269531 322.035156 219.683594 C 321.863281 220.101562 321.617188 220.46875 321.296875 220.789062 C 320.980469 221.105469 320.609375 221.351562 320.195312 221.523438 C 319.777344 221.699219 319.34375 221.785156 318.894531 221.785156 C 318.441406 221.785156 318.007812 221.699219 317.589844 221.523438 C 317.175781 221.351562 316.808594 221.105469 316.488281 220.789062 C 316.167969 220.46875 315.921875 220.101562 315.75 219.683594 C 315.578125 219.269531 315.492188 218.835938 315.492188 218.382812 L 315.492188 206.46875 C 315.492188 206.015625 315.578125 205.582031 315.75 205.167969 C 315.921875 204.75 316.167969 204.382812 316.488281 204.0625 C 316.808594 203.742188 317.175781 203.5 317.589844 203.324219 C 318.007812 203.152344 318.441406 203.066406 318.894531 203.066406 L 320.738281 203.066406 C 322.324219 203.070312 323.882812 203.257812 325.425781 203.625 C 326.964844 203.992188 328.441406 204.535156 329.851562 205.25 C 331.265625 205.964844 332.578125 206.832031 333.785156 207.855469 C 334.996094 208.875 336.070312 210.023438 337.011719 211.296875 L 351.855469 231.476562 C 354.335938 234.84375 356.300781 238.492188 357.746094 242.414062 C 359.191406 246.339844 360.0625 250.390625 360.355469 254.5625 L 367.449219 354.121094 C 367.484375 354.570312 367.425781 355.007812 367.285156 355.4375 C 367.140625 355.863281 366.921875 356.25 366.625 356.589844 C 366.328125 356.929688 365.980469 357.203125 365.578125 357.402344 C 365.171875 357.605469 364.746094 357.722656 364.296875 357.753906 Z M 364.050781 357.761719 " fill-opacity="1" fill-rule="nonzero"/><path fill="#3a287a" d="M 322.597656 357.761719 C 322.25 357.761719 321.910156 357.710938 321.578125 357.605469 C 321.246094 357.5 320.9375 357.347656 320.648438 357.148438 C 320.363281 356.949219 320.117188 356.710938 319.902344 356.433594 C 319.691406 356.15625 319.523438 355.855469 319.40625 355.527344 L 316.742188 348.21875 C 314.894531 343.128906 312.105469 338.625 308.371094 334.699219 L 298.734375 324.53125 C 295.941406 321.59375 293.671875 318.296875 291.925781 314.636719 C 290.179688 310.980469 289.046875 307.140625 288.519531 303.121094 L 287.390625 294.574219 C 286.671875 289.121094 286.894531 283.707031 288.0625 278.332031 L 291.660156 261.609375 L 291.660156 218.382812 C 291.667969 217.382812 291.773438 216.390625 291.972656 215.410156 C 292.171875 214.425781 292.46875 213.476562 292.855469 212.550781 C 293.242188 211.628906 293.714844 210.75 294.277344 209.921875 C 294.835938 209.089844 295.472656 208.320312 296.183594 207.617188 C 296.890625 206.910156 297.664062 206.277344 298.5 205.726562 C 299.332031 205.171875 300.210938 204.703125 301.136719 204.320312 C 302.066406 203.9375 303.019531 203.648438 304 203.457031 C 304.984375 203.261719 305.976562 203.164062 306.976562 203.164062 C 307.980469 203.164062 308.972656 203.261719 309.953125 203.457031 C 310.9375 203.648438 311.890625 203.9375 312.816406 204.320312 C 313.742188 204.703125 314.621094 205.171875 315.457031 205.726562 C 316.289062 206.277344 317.0625 206.910156 317.773438 207.617188 C 318.484375 208.320312 319.117188 209.089844 319.679688 209.921875 C 320.238281 210.75 320.710938 211.628906 321.101562 212.550781 C 321.488281 213.476562 321.78125 214.425781 321.984375 215.410156 C 322.183594 216.390625 322.285156 217.382812 322.292969 218.382812 L 322.292969 247.957031 C 322.304688 253.949219 323.570312 259.667969 326.09375 265.105469 L 328.78125 270.878906 C 328.972656 271.289062 329.082031 271.71875 329.101562 272.171875 C 329.121094 272.621094 329.054688 273.058594 328.902344 273.484375 C 328.746094 273.910156 328.519531 274.289062 328.210938 274.621094 C 327.90625 274.953125 327.550781 275.214844 327.140625 275.40625 C 326.730469 275.597656 326.300781 275.703125 325.847656 275.722656 C 325.398438 275.742188 324.960938 275.671875 324.535156 275.515625 C 324.109375 275.359375 323.734375 275.128906 323.402344 274.824219 C 323.070312 274.519531 322.808594 274.160156 322.617188 273.75 L 319.929688 267.972656 C 316.984375 261.625 315.503906 254.953125 315.492188 247.957031 L 315.492188 218.382812 C 315.488281 217.828125 315.429688 217.277344 315.316406 216.734375 C 315.203125 216.1875 315.039062 215.660156 314.824219 215.148438 C 314.605469 214.636719 314.34375 214.148438 314.03125 213.6875 C 313.722656 213.226562 313.367188 212.800781 312.972656 212.410156 C 312.578125 212.019531 312.148438 211.667969 311.6875 211.359375 C 311.222656 211.054688 310.734375 210.792969 310.21875 210.582031 C 309.707031 210.371094 309.175781 210.210938 308.628906 210.101562 C 308.085938 209.996094 307.535156 209.941406 306.976562 209.941406 C 306.421875 209.941406 305.871094 209.996094 305.324219 210.101562 C 304.78125 210.210938 304.25 210.371094 303.734375 210.582031 C 303.222656 210.792969 302.734375 211.054688 302.269531 211.359375 C 301.804688 211.667969 301.378906 212.019531 300.980469 212.410156 C 300.585938 212.800781 300.234375 213.226562 299.921875 213.6875 C 299.613281 214.148438 299.347656 214.636719 299.132812 215.148438 C 298.914062 215.660156 298.75 216.1875 298.640625 216.734375 C 298.527344 217.277344 298.46875 217.828125 298.460938 218.382812 L 298.460938 261.972656 C 298.460938 262.214844 298.4375 262.453125 298.390625 262.691406 L 294.710938 279.765625 C 293.707031 284.371094 293.515625 289.011719 294.140625 293.683594 L 295.269531 302.230469 C 295.699219 305.539062 296.628906 308.699219 298.066406 311.710938 C 299.503906 314.722656 301.371094 317.4375 303.667969 319.851562 L 313.308594 330.015625 C 317.6875 334.625 320.960938 339.914062 323.128906 345.886719 L 325.792969 353.195312 C 325.886719 353.453125 325.949219 353.71875 325.976562 353.988281 C 326.007812 354.261719 326.003906 354.535156 325.96875 354.804688 C 325.933594 355.074219 325.867188 355.339844 325.765625 355.59375 C 325.667969 355.847656 325.539062 356.085938 325.382812 356.3125 C 325.226562 356.535156 325.046875 356.738281 324.839844 356.917969 C 324.636719 357.097656 324.410156 357.25 324.167969 357.378906 C 323.925781 357.503906 323.671875 357.601562 323.40625 357.664062 C 323.140625 357.730469 322.871094 357.761719 322.597656 357.761719 Z M 322.597656 357.761719 " fill-opacity="1" fill-rule="nonzero"/><g clip-path="url(#6ffd844dd1)"><path fill="#3a287a" d="M 57.207031 22.753906 L 3.429688 22.753906 C 2.980469 22.753906 2.546875 22.667969 2.128906 22.496094 C 1.710938 22.324219 1.34375 22.078125 1.027344 21.757812 C 0.707031 21.441406 0.460938 21.074219 0.289062 20.65625 C 0.117188 20.238281 0.03125 19.804688 0.03125 19.355469 L 0.03125 4.875 C 0.03125 4.425781 0.117188 3.988281 0.289062 3.574219 C 0.460938 3.15625 0.707031 2.789062 1.027344 2.46875 C 1.34375 2.152344 1.710938 1.90625 2.128906 1.734375 C 2.546875 1.558594 2.980469 1.472656 3.429688 1.472656 L 57.207031 1.472656 C 57.660156 1.472656 58.09375 1.558594 58.511719 1.734375 C 58.925781 1.90625 59.296875 2.152344 59.613281 2.46875 C 59.933594 2.789062 60.179688 3.15625 60.351562 3.574219 C 60.523438 3.988281 60.609375 4.425781 60.609375 4.875 L 60.609375 19.355469 C 60.609375 19.804688 60.523438 20.238281 60.351562 20.65625 C 60.179688 21.074219 59.933594 21.441406 59.613281 21.757812 C 59.296875 22.078125 58.925781 22.324219 58.511719 22.496094 C 58.09375 22.667969 57.660156 22.753906 57.207031 22.753906 Z M 6.832031 15.953125 L 53.808594 15.953125 L 53.808594 8.277344 L 6.832031 8.277344 Z M 6.832031 15.953125 " fill-opacity="1" fill-rule="nonzero"/></g><path fill="#3a287a" d="M 90.992188 123.652344 C 90.539062 123.652344 90.105469 123.566406 89.691406 123.394531 C 89.273438 123.222656 88.90625 122.976562 88.585938 122.65625 C 88.269531 122.339844 88.023438 121.96875 87.851562 121.554688 C 87.675781 121.136719 87.589844 120.703125 87.589844 120.25 L 87.589844 102.347656 C 87.582031 102.070312 87.539062 101.796875 87.472656 101.527344 C 87.40625 101.257812 87.308594 100.996094 87.1875 100.75 C 87.0625 100.5 86.917969 100.265625 86.746094 100.046875 C 86.574219 99.828125 86.382812 99.632812 86.167969 99.453125 C 85.957031 99.277344 85.726562 99.121094 85.480469 98.992188 C 85.234375 98.863281 84.980469 98.757812 84.710938 98.683594 C 84.445312 98.605469 84.171875 98.558594 83.894531 98.539062 C 83.621094 98.519531 83.34375 98.53125 83.070312 98.570312 L 82.25 91.820312 C 83 91.722656 83.753906 91.707031 84.511719 91.769531 C 85.265625 91.832031 86.007812 91.972656 86.734375 92.195312 C 87.460938 92.414062 88.152344 92.707031 88.820312 93.074219 C 89.484375 93.4375 90.101562 93.871094 90.675781 94.367188 C 91.246094 94.863281 91.761719 95.414062 92.21875 96.019531 C 92.675781 96.625 93.066406 97.273438 93.386719 97.960938 C 93.707031 98.648438 93.949219 99.359375 94.121094 100.097656 C 94.289062 100.839844 94.382812 101.585938 94.394531 102.347656 L 94.394531 120.25 C 94.394531 120.703125 94.308594 121.136719 94.132812 121.554688 C 93.960938 121.96875 93.714844 122.339844 93.398438 122.65625 C 93.078125 122.976562 92.710938 123.222656 92.292969 123.394531 C 91.875 123.566406 91.441406 123.652344 90.992188 123.652344 Z M 82.59375 95.203125 Z M 82.59375 95.203125 " fill-opacity="1" fill-rule="nonzero"/><path fill="#3a287a" d="M 13.652344 73.222656 C 13.222656 73.222656 12.808594 73.140625 12.410156 72.984375 C 12.011719 72.828125 11.65625 72.605469 11.339844 72.3125 C 11.027344 72.019531 10.777344 71.679688 10.589844 71.292969 C 10.40625 70.90625 10.296875 70.5 10.265625 70.074219 L 9.519531 60.027344 C 9.484375 59.578125 9.539062 59.140625 9.679688 58.710938 C 9.820312 58.28125 10.039062 57.898438 10.332031 57.554688 C 10.625 57.214844 10.976562 56.941406 11.378906 56.738281 C 11.78125 56.535156 12.207031 56.417969 12.65625 56.386719 C 13.105469 56.351562 13.542969 56.40625 13.972656 56.546875 C 14.402344 56.6875 14.785156 56.90625 15.128906 57.199219 C 15.46875 57.492188 15.742188 57.84375 15.945312 58.246094 C 16.148438 58.648438 16.265625 59.074219 16.296875 59.523438 L 17.046875 69.570312 C 17.078125 70.019531 17.027344 70.457031 16.886719 70.886719 C 16.742188 71.3125 16.527344 71.699219 16.230469 72.039062 C 15.9375 72.382812 15.589844 72.65625 15.1875 72.855469 C 14.785156 73.058594 14.359375 73.179688 13.910156 73.210938 Z M 13.652344 73.222656 " fill-opacity="1" fill-rule="nonzero"/><path fill="#3a287a" d="M 55.257812 171.019531 L 53.359375 171.019531 C 51.78125 171.011719 50.222656 170.820312 48.691406 170.449219 C 47.15625 170.078125 45.683594 169.535156 44.277344 168.820312 C 42.867188 168.109375 41.558594 167.242188 40.351562 166.226562 C 39.144531 165.207031 38.070312 164.066406 37.128906 162.796875 L 22.25 142.554688 C 19.773438 139.1875 17.816406 135.539062 16.378906 131.613281 C 14.941406 127.683594 14.078125 123.636719 13.796875 119.464844 L 11.960938 93.40625 C 11.929688 92.957031 11.984375 92.519531 12.128906 92.089844 C 12.269531 91.664062 12.488281 91.277344 12.785156 90.9375 C 13.082031 90.597656 13.429688 90.328125 13.832031 90.125 C 14.238281 89.925781 14.664062 89.808594 15.113281 89.777344 C 15.566406 89.734375 16.007812 89.78125 16.441406 89.921875 C 16.871094 90.058594 17.257812 90.277344 17.601562 90.574219 C 17.945312 90.875 18.214844 91.226562 18.414062 91.636719 C 18.613281 92.042969 18.722656 92.472656 18.742188 92.929688 L 20.578125 118.988281 C 20.816406 122.519531 21.546875 125.945312 22.761719 129.265625 C 23.980469 132.589844 25.636719 135.675781 27.730469 138.527344 L 42.59375 158.753906 C 43.703125 160.246094 45.066406 161.460938 46.675781 162.394531 C 48.285156 163.328125 50.011719 163.90625 51.859375 164.132812 L 51.859375 155.675781 C 51.859375 155.226562 51.945312 154.789062 52.117188 154.375 C 52.289062 153.957031 52.535156 153.589844 52.855469 153.269531 C 53.171875 152.953125 53.542969 152.707031 53.957031 152.535156 C 54.375 152.363281 54.808594 152.273438 55.257812 152.273438 C 55.710938 152.273438 56.144531 152.363281 56.5625 152.535156 C 56.976562 152.707031 57.34375 152.953125 57.664062 153.269531 C 57.984375 153.589844 58.226562 153.957031 58.402344 154.375 C 58.574219 154.789062 58.660156 155.226562 58.660156 155.675781 L 58.660156 167.621094 C 58.660156 168.070312 58.574219 168.503906 58.402344 168.921875 C 58.230469 169.339844 57.984375 169.707031 57.664062 170.027344 C 57.34375 170.34375 56.976562 170.589844 56.5625 170.761719 C 56.144531 170.933594 55.710938 171.023438 55.257812 171.019531 Z M 55.257812 171.019531 " fill-opacity="1" fill-rule="nonzero"/><path fill="#3a287a" d="M 11.277344 39.832031 C 10.847656 39.832031 10.433594 39.75 10.035156 39.59375 C 9.636719 39.4375 9.277344 39.210938 8.964844 38.917969 C 8.648438 38.625 8.398438 38.285156 8.214844 37.898438 C 8.03125 37.511719 7.921875 37.105469 7.890625 36.675781 L 6.667969 19.910156 C 6.636719 19.460938 6.691406 19.023438 6.832031 18.59375 C 6.972656 18.167969 7.191406 17.785156 7.488281 17.441406 C 7.78125 17.101562 8.132812 16.828125 8.535156 16.628906 C 8.9375 16.425781 9.363281 16.308594 9.8125 16.277344 C 10.261719 16.25 10.699219 16.304688 11.125 16.449219 C 11.550781 16.59375 11.933594 16.8125 12.273438 17.105469 C 12.613281 17.402344 12.882812 17.746094 13.085938 18.148438 C 13.292969 18.546875 13.410156 18.972656 13.449219 19.421875 L 14.671875 36.183594 C 14.703125 36.632812 14.648438 37.074219 14.507812 37.5 C 14.367188 37.929688 14.148438 38.3125 13.851562 38.652344 C 13.558594 38.996094 13.207031 39.265625 12.804688 39.46875 C 12.402344 39.671875 11.976562 39.789062 11.527344 39.820312 Z M 11.277344 39.832031 " fill-opacity="1" fill-rule="nonzero"/><path fill="#3a287a" d="M 67.140625 170.996094 C 66.136719 170.992188 65.140625 170.894531 64.15625 170.699219 C 63.167969 170.5 62.210938 170.210938 61.285156 169.824219 C 60.355469 169.4375 59.472656 168.964844 58.636719 168.40625 C 57.800781 167.847656 57.027344 167.214844 56.316406 166.503906 C 55.605469 165.792969 54.972656 165.019531 54.414062 164.183594 C 53.855469 163.347656 53.382812 162.464844 53 161.535156 C 52.613281 160.609375 52.320312 159.652344 52.125 158.664062 C 51.929688 157.679688 51.828125 156.683594 51.828125 155.679688 L 51.828125 126.105469 C 51.816406 120.113281 50.550781 114.394531 48.03125 108.957031 L 45.335938 103.1875 C 45.144531 102.777344 45.039062 102.347656 45.019531 101.898438 C 45 101.445312 45.066406 101.007812 45.222656 100.585938 C 45.375 100.160156 45.605469 99.785156 45.910156 99.453125 C 46.214844 99.117188 46.570312 98.855469 46.980469 98.667969 C 47.390625 98.476562 47.820312 98.371094 48.269531 98.351562 C 48.71875 98.332031 49.15625 98.398438 49.582031 98.550781 C 50.003906 98.707031 50.382812 98.9375 50.714844 99.242188 C 51.046875 99.542969 51.308594 99.902344 51.5 100.308594 L 54.195312 106.085938 C 57.136719 112.433594 58.617188 119.105469 58.628906 126.101562 L 58.628906 155.679688 C 58.628906 156.238281 58.683594 156.792969 58.792969 157.339844 C 58.902344 157.886719 59.0625 158.421875 59.277344 158.9375 C 59.492188 159.453125 59.753906 159.945312 60.066406 160.410156 C 60.375 160.875 60.726562 161.304688 61.125 161.699219 C 61.519531 162.09375 61.949219 162.445312 62.414062 162.757812 C 62.878906 163.066406 63.367188 163.332031 63.886719 163.542969 C 64.402344 163.757812 64.933594 163.917969 65.480469 164.027344 C 66.03125 164.136719 66.585938 164.191406 67.144531 164.191406 C 67.703125 164.191406 68.253906 164.136719 68.804688 164.027344 C 69.351562 163.917969 69.882812 163.757812 70.402344 163.542969 C 70.917969 163.332031 71.40625 163.066406 71.871094 162.757812 C 72.335938 162.445312 72.765625 162.09375 73.164062 161.699219 C 73.558594 161.304688 73.910156 160.875 74.222656 160.410156 C 74.53125 159.945312 74.792969 159.453125 75.007812 158.9375 C 75.222656 158.421875 75.382812 157.886719 75.492188 157.339844 C 75.601562 156.792969 75.65625 156.238281 75.65625 155.679688 L 75.65625 112.089844 C 75.65625 111.847656 75.683594 111.609375 75.734375 111.371094 L 79.417969 94.296875 C 80.414062 89.691406 80.601562 85.050781 79.984375 80.378906 L 78.855469 71.832031 C 78.421875 68.523438 77.492188 65.363281 76.054688 62.351562 C 74.617188 59.339844 72.75 56.628906 70.453125 54.210938 L 60.8125 44.042969 C 56.433594 39.4375 53.160156 34.148438 50.992188 28.175781 L 48.328125 20.863281 C 48.175781 20.441406 48.105469 20.003906 48.125 19.554688 C 48.144531 19.105469 48.25 18.675781 48.441406 18.265625 C 48.632812 17.859375 48.894531 17.5 49.226562 17.195312 C 49.558594 16.890625 49.933594 16.660156 50.359375 16.507812 C 50.78125 16.351562 51.21875 16.285156 51.667969 16.304688 C 52.121094 16.324219 52.550781 16.429688 52.957031 16.617188 C 53.367188 16.808594 53.722656 17.070312 54.027344 17.402344 C 54.332031 17.734375 54.5625 18.109375 54.71875 18.535156 L 57.382812 25.84375 C 59.230469 30.929688 62.015625 35.4375 65.746094 39.363281 L 75.386719 49.53125 C 78.183594 52.464844 80.453125 55.765625 82.195312 59.421875 C 83.941406 63.082031 85.074219 66.921875 85.59375 70.941406 L 86.726562 79.488281 C 87.449219 84.941406 87.230469 90.355469 86.066406 95.730469 L 82.457031 112.453125 L 82.457031 155.679688 C 82.457031 156.683594 82.355469 157.679688 82.160156 158.664062 C 81.964844 159.652344 81.671875 160.609375 81.285156 161.539062 C 80.902344 162.464844 80.429688 163.347656 79.871094 164.183594 C 79.3125 165.019531 78.675781 165.792969 77.964844 166.503906 C 77.253906 167.214844 76.480469 167.847656 75.644531 168.410156 C 74.808594 168.96875 73.929688 169.4375 73 169.824219 C 72.070312 170.210938 71.113281 170.5 70.128906 170.699219 C 69.140625 170.894531 68.148438 170.992188 67.140625 170.996094 Z M 67.140625 170.996094 " fill-opacity="1" fill-rule="nonzero"/><path fill="#3a287a" d="M 172.972656 359.410156 C 172.539062 359.410156 172.125 359.332031 171.722656 359.171875 C 171.320312 359.015625 170.964844 358.789062 170.648438 358.496094 C 170.332031 358.199219 170.082031 357.859375 169.898438 357.46875 C 169.714844 357.078125 169.605469 356.667969 169.578125 356.238281 C 169.550781 355.855469 166.695312 317.609375 143.035156 317.609375 C 142.582031 317.609375 142.148438 317.519531 141.730469 317.347656 C 141.316406 317.175781 140.949219 316.929688 140.628906 316.613281 C 140.308594 316.292969 140.0625 315.925781 139.890625 315.507812 C 139.71875 315.09375 139.632812 314.65625 139.632812 314.207031 C 139.632812 313.757812 139.71875 313.324219 139.890625 312.90625 C 140.0625 312.488281 140.308594 312.121094 140.628906 311.800781 C 140.949219 311.484375 141.316406 311.238281 141.730469 311.066406 C 142.148438 310.894531 142.582031 310.804688 143.035156 310.804688 C 166.695312 310.804688 169.550781 272.558594 169.578125 272.171875 C 169.605469 271.742188 169.714844 271.332031 169.898438 270.941406 C 170.085938 270.554688 170.335938 270.210938 170.648438 269.917969 C 170.964844 269.625 171.320312 269.398438 171.722656 269.238281 C 172.125 269.082031 172.539062 269.003906 172.972656 269.003906 C 173.402344 269.003906 173.816406 269.082031 174.21875 269.238281 C 174.621094 269.398438 174.976562 269.625 175.292969 269.917969 C 175.609375 270.210938 175.859375 270.554688 176.042969 270.941406 C 176.226562 271.332031 176.335938 271.742188 176.363281 272.171875 C 176.390625 272.558594 179.25 310.804688 202.910156 310.804688 C 203.359375 310.804688 203.792969 310.894531 204.210938 311.066406 C 204.625 311.238281 204.992188 311.484375 205.3125 311.800781 C 205.632812 312.121094 205.878906 312.488281 206.050781 312.90625 C 206.222656 313.324219 206.308594 313.757812 206.308594 314.207031 C 206.308594 314.65625 206.222656 315.09375 206.050781 315.507812 C 205.878906 315.925781 205.632812 316.292969 205.3125 316.613281 C 204.992188 316.929688 204.625 317.175781 204.210938 317.347656 C 203.792969 317.519531 203.359375 317.609375 202.910156 317.609375 C 179.25 317.609375 176.390625 355.855469 176.363281 356.238281 C 176.335938 356.667969 176.226562 357.078125 176.042969 357.46875 C 175.859375 357.859375 175.609375 358.199219 175.292969 358.496094 C 174.976562 358.789062 174.621094 359.015625 174.21875 359.171875 C 173.816406 359.332031 173.402344 359.410156 172.972656 359.410156 Z M 156.261719 314.207031 C 158.332031 315.625 160.257812 317.214844 162.035156 318.984375 C 163.8125 320.753906 165.417969 322.667969 166.84375 324.730469 C 168.273438 326.792969 169.5 328.964844 170.53125 331.253906 C 171.558594 333.539062 172.375 335.902344 172.972656 338.335938 C 173.570312 335.902344 174.382812 333.539062 175.414062 331.253906 C 176.441406 328.964844 177.671875 326.792969 179.097656 324.730469 C 180.527344 322.667969 182.128906 320.753906 183.910156 318.984375 C 185.6875 317.214844 187.613281 315.625 189.679688 314.207031 C 187.613281 312.789062 185.6875 311.199219 183.910156 309.429688 C 182.128906 307.660156 180.527344 305.746094 179.097656 303.683594 C 177.671875 301.621094 176.441406 299.445312 175.414062 297.160156 C 174.382812 294.871094 173.570312 292.511719 172.972656 290.074219 C 172.375 292.511719 171.558594 294.871094 170.53125 297.160156 C 169.5 299.445312 168.273438 301.621094 166.84375 303.683594 C 165.417969 305.746094 163.8125 307.660156 162.035156 309.429688 C 160.257812 311.199219 158.332031 312.789062 156.261719 314.207031 Z M 156.261719 314.207031 " fill-opacity="1" fill-rule="nonzero"/><path fill="#3a287a" d="M 245.832031 154.230469 C 243.796875 154.230469 241.769531 154.125 239.742188 153.925781 C 237.714844 153.722656 235.707031 153.421875 233.710938 153.023438 C 231.714844 152.625 229.742188 152.128906 227.792969 151.539062 C 225.847656 150.945312 223.933594 150.261719 222.050781 149.480469 C 220.171875 148.699219 218.335938 147.828125 216.539062 146.867188 C 214.746094 145.910156 213 144.863281 211.308594 143.730469 C 209.617188 142.601562 207.984375 141.386719 206.410156 140.097656 C 204.835938 138.804688 203.332031 137.441406 201.890625 136 C 200.453125 134.5625 199.085938 133.054688 197.792969 131.480469 C 196.503906 129.90625 195.292969 128.273438 194.160156 126.582031 C 193.027344 124.890625 191.984375 123.148438 191.023438 121.351562 C 190.0625 119.558594 189.191406 117.71875 188.410156 115.839844 C 187.632812 113.960938 186.945312 112.046875 186.351562 110.097656 C 185.761719 108.148438 185.265625 106.179688 184.867188 104.183594 C 184.46875 102.1875 184.167969 100.175781 183.964844 98.148438 C 183.765625 96.125 183.664062 94.09375 183.660156 92.058594 L 183.660156 78.125 C 183.660156 77.675781 183.746094 77.242188 183.917969 76.824219 C 184.09375 76.410156 184.335938 76.039062 184.65625 75.722656 C 184.976562 75.402344 185.34375 75.15625 185.761719 74.984375 C 186.175781 74.8125 186.609375 74.726562 187.0625 74.726562 C 187.511719 74.726562 187.945312 74.8125 188.363281 74.984375 C 188.777344 75.15625 189.148438 75.402344 189.464844 75.722656 C 189.785156 76.039062 190.03125 76.410156 190.203125 76.824219 C 190.375 77.242188 190.460938 77.675781 190.460938 78.125 L 190.460938 92.058594 C 190.460938 93.871094 190.550781 95.679688 190.726562 97.484375 C 190.90625 99.289062 191.171875 101.082031 191.527344 102.859375 C 191.878906 104.640625 192.320312 106.394531 192.847656 108.132812 C 193.371094 109.867188 193.984375 111.570312 194.675781 113.246094 C 195.371094 114.921875 196.144531 116.5625 197 118.160156 C 197.855469 119.757812 198.785156 121.3125 199.792969 122.820312 C 200.800781 124.328125 201.878906 125.785156 203.03125 127.183594 C 204.179688 128.585938 205.398438 129.929688 206.679688 131.210938 C 207.960938 132.492188 209.304688 133.710938 210.707031 134.859375 C 212.109375 136.011719 213.5625 137.089844 215.070312 138.097656 C 216.578125 139.105469 218.132812 140.035156 219.730469 140.890625 C 221.332031 141.746094 222.96875 142.519531 224.644531 143.214844 C 226.320312 143.910156 228.023438 144.519531 229.761719 145.046875 C 231.496094 145.570312 233.253906 146.011719 235.03125 146.367188 C 236.808594 146.71875 238.601562 146.984375 240.40625 147.164062 C 242.210938 147.339844 244.019531 147.429688 245.832031 147.429688 C 247.648438 147.429688 249.457031 147.339844 251.261719 147.164062 C 253.066406 146.984375 254.859375 146.71875 256.636719 146.367188 C 258.414062 146.011719 260.171875 145.570312 261.90625 145.046875 C 263.644531 144.519531 265.347656 143.910156 267.023438 143.214844 C 268.699219 142.519531 270.335938 141.746094 271.9375 140.890625 C 273.535156 140.035156 275.089844 139.105469 276.597656 138.097656 C 278.105469 137.089844 279.558594 136.011719 280.960938 134.859375 C 282.363281 133.710938 283.707031 132.492188 284.988281 131.210938 C 286.269531 129.929688 287.488281 128.585938 288.636719 127.183594 C 289.789062 125.785156 290.867188 124.328125 291.875 122.820312 C 292.882812 121.3125 293.8125 119.757812 294.667969 118.160156 C 295.523438 116.5625 296.296875 114.921875 296.992188 113.246094 C 297.683594 111.570312 298.296875 109.867188 298.820312 108.132812 C 299.347656 106.394531 299.789062 104.640625 300.140625 102.859375 C 300.496094 101.082031 300.761719 99.289062 300.9375 97.484375 C 301.117188 95.679688 301.207031 93.871094 301.207031 92.058594 L 301.207031 78.125 C 301.207031 77.675781 301.292969 77.242188 301.464844 76.824219 C 301.636719 76.410156 301.882812 76.039062 302.203125 75.722656 C 302.519531 75.402344 302.886719 75.15625 303.304688 74.984375 C 303.722656 74.8125 304.15625 74.726562 304.605469 74.726562 C 305.058594 74.726562 305.492188 74.8125 305.90625 74.984375 C 306.324219 75.15625 306.691406 75.402344 307.011719 75.722656 C 307.328125 76.039062 307.574219 76.410156 307.75 76.824219 C 307.921875 77.242188 308.007812 77.675781 308.007812 78.125 L 308.007812 92.058594 C 308.003906 94.09375 307.902344 96.125 307.703125 98.148438 C 307.5 100.175781 307.199219 102.1875 306.800781 104.183594 C 306.402344 106.179688 305.90625 108.148438 305.3125 110.097656 C 304.722656 112.046875 304.035156 113.960938 303.257812 115.839844 C 302.476562 117.71875 301.605469 119.558594 300.644531 121.351562 C 299.683594 123.148438 298.640625 124.890625 297.507812 126.582031 C 296.375 128.273438 295.164062 129.90625 293.875 131.480469 C 292.582031 133.054688 291.214844 134.5625 289.777344 136 C 288.335938 137.441406 286.832031 138.804688 285.257812 140.097656 C 283.683594 141.386719 282.050781 142.601562 280.359375 143.730469 C 278.667969 144.863281 276.921875 145.910156 275.128906 146.871094 C 273.332031 147.828125 271.496094 148.699219 269.617188 149.480469 C 267.734375 150.261719 265.820312 150.945312 263.875 151.539062 C 261.925781 152.128906 259.953125 152.625 257.957031 153.023438 C 255.960938 153.421875 253.953125 153.722656 251.925781 153.925781 C 249.898438 154.125 247.871094 154.230469 245.832031 154.230469 Z M 245.832031 154.230469 " fill-opacity="1" fill-rule="nonzero"/><path fill="#3a287a" d="M 245.832031 140.296875 C 243.796875 140.296875 241.765625 140.195312 239.738281 139.996094 C 237.714844 139.796875 235.703125 139.5 233.703125 139.101562 C 231.707031 138.703125 229.734375 138.210938 227.785156 137.617188 C 225.839844 137.027344 223.921875 136.34375 222.042969 135.5625 C 220.160156 134.785156 218.324219 133.914062 216.527344 132.953125 C 214.730469 131.996094 212.988281 130.949219 211.292969 129.816406 C 209.601562 128.6875 207.96875 127.476562 206.394531 126.183594 C 204.820312 124.890625 203.3125 123.527344 201.871094 122.085938 C 200.433594 120.644531 199.066406 119.140625 197.773438 117.566406 C 196.484375 115.992188 195.273438 114.359375 194.140625 112.664062 C 193.007812 110.972656 191.964844 109.226562 191.003906 107.429688 C 190.042969 105.636719 189.175781 103.796875 188.394531 101.914062 C 187.617188 100.035156 186.929688 98.121094 186.339844 96.171875 C 185.75 94.222656 185.253906 92.25 184.859375 90.253906 C 184.460938 88.253906 184.164062 86.242188 183.964844 84.21875 C 183.761719 82.191406 183.664062 80.160156 183.664062 78.125 C 183.664062 76.085938 183.765625 74.054688 183.964844 72.03125 C 184.164062 70.003906 184.460938 67.992188 184.859375 65.996094 C 185.257812 63.996094 185.75 62.023438 186.339844 60.074219 C 186.933594 58.128906 187.617188 56.210938 188.398438 54.332031 C 189.175781 52.449219 190.046875 50.613281 191.003906 48.816406 C 191.964844 47.019531 193.011719 45.277344 194.144531 43.582031 C 195.273438 41.890625 196.484375 40.257812 197.777344 38.683594 C 199.070312 37.109375 200.433594 35.601562 201.875 34.160156 C 203.316406 32.722656 204.820312 31.355469 206.394531 30.066406 C 207.96875 28.773438 209.601562 27.5625 211.296875 26.429688 C 212.988281 25.300781 214.734375 24.253906 216.53125 23.292969 C 218.324219 22.335938 220.164062 21.464844 222.046875 20.683594 C 223.925781 19.90625 225.839844 19.222656 227.789062 18.628906 C 229.738281 18.039062 231.710938 17.542969 233.707031 17.148438 C 235.707031 16.75 237.71875 16.453125 239.742188 16.253906 C 241.769531 16.054688 243.800781 15.953125 245.835938 15.953125 C 247.875 15.953125 249.90625 16.054688 251.929688 16.253906 C 253.957031 16.453125 255.96875 16.75 257.964844 17.148438 C 259.964844 17.546875 261.9375 18.039062 263.882812 18.632812 C 265.832031 19.222656 267.746094 19.90625 269.628906 20.6875 C 271.511719 21.464844 273.347656 22.335938 275.144531 23.296875 C 276.941406 24.253906 278.683594 25.300781 280.378906 26.433594 C 282.070312 27.5625 283.703125 28.773438 285.277344 30.066406 C 286.851562 31.359375 288.359375 32.722656 289.796875 34.164062 C 291.238281 35.605469 292.605469 37.109375 293.894531 38.683594 C 295.1875 40.257812 296.398438 41.894531 297.53125 43.585938 C 298.660156 45.277344 299.707031 47.023438 300.667969 48.820312 C 301.625 50.613281 302.496094 52.453125 303.273438 54.335938 C 304.054688 56.214844 304.738281 58.128906 305.332031 60.078125 C 305.921875 62.027344 306.414062 64 306.8125 65.996094 C 307.210938 67.996094 307.507812 70.007812 307.707031 72.03125 C 307.90625 74.058594 308.007812 76.089844 308.007812 78.125 C 308.003906 80.164062 307.902344 82.191406 307.703125 84.21875 C 307.5 86.242188 307.199219 88.253906 306.800781 90.25 C 306.402344 92.246094 305.90625 94.21875 305.3125 96.167969 C 304.722656 98.113281 304.035156 100.027344 303.253906 101.90625 C 302.476562 103.789062 301.605469 105.625 300.644531 107.421875 C 299.683594 109.214844 298.640625 110.957031 297.507812 112.652344 C 296.375 114.34375 295.164062 115.976562 293.871094 117.550781 C 292.582031 119.121094 291.214844 120.628906 289.777344 122.066406 C 288.335938 123.507812 286.832031 124.871094 285.257812 126.164062 C 283.683594 127.457031 282.050781 128.667969 280.359375 129.796875 C 278.667969 130.929688 276.921875 131.976562 275.128906 132.9375 C 273.332031 133.894531 271.496094 134.765625 269.617188 135.546875 C 267.734375 136.328125 265.820312 137.011719 263.875 137.605469 C 261.925781 138.195312 259.953125 138.691406 257.957031 139.089844 C 255.960938 139.488281 253.953125 139.789062 251.925781 139.992188 C 249.898438 140.191406 247.871094 140.292969 245.832031 140.296875 Z M 245.832031 22.753906 C 244.019531 22.753906 242.210938 22.84375 240.40625 23.019531 C 238.601562 23.199219 236.808594 23.464844 235.03125 23.820312 C 233.253906 24.171875 231.496094 24.613281 229.761719 25.140625 C 228.027344 25.664062 226.320312 26.277344 224.644531 26.96875 C 222.96875 27.664062 221.332031 28.4375 219.734375 29.292969 C 218.132812 30.148438 216.582031 31.078125 215.074219 32.085938 C 213.566406 33.09375 212.109375 34.171875 210.707031 35.324219 C 209.304688 36.472656 207.964844 37.691406 206.683594 38.972656 C 205.398438 40.253906 204.183594 41.597656 203.03125 43 C 201.882812 44.402344 200.804688 45.855469 199.796875 47.363281 C 198.789062 48.871094 197.859375 50.425781 197.003906 52.023438 C 196.148438 53.625 195.375 55.261719 194.679688 56.9375 C 193.984375 58.609375 193.375 60.316406 192.847656 62.050781 C 192.324219 63.789062 191.882812 65.542969 191.527344 67.324219 C 191.175781 69.101562 190.910156 70.894531 190.730469 72.699219 C 190.554688 74.503906 190.464844 76.3125 190.464844 78.125 C 190.464844 79.9375 190.554688 81.746094 190.730469 83.550781 C 190.910156 85.355469 191.175781 87.148438 191.527344 88.925781 C 191.882812 90.707031 192.324219 92.464844 192.847656 94.199219 C 193.375 95.933594 193.984375 97.640625 194.679688 99.316406 C 195.375 100.988281 196.148438 102.628906 197.003906 104.226562 C 197.859375 105.824219 198.789062 107.378906 199.796875 108.886719 C 200.804688 110.394531 201.882812 111.851562 203.035156 113.25 C 204.183594 114.652344 205.402344 115.996094 206.683594 117.277344 C 207.964844 118.558594 209.308594 119.777344 210.710938 120.925781 C 212.109375 122.078125 213.566406 123.15625 215.074219 124.164062 C 216.582031 125.171875 218.136719 126.101562 219.734375 126.957031 C 221.332031 127.8125 222.972656 128.585938 224.644531 129.28125 C 226.320312 129.976562 228.027344 130.585938 229.761719 131.113281 C 231.496094 131.636719 233.253906 132.078125 235.035156 132.429688 C 236.8125 132.785156 238.605469 133.050781 240.410156 133.230469 C 242.214844 133.40625 244.023438 133.496094 245.835938 133.496094 C 247.648438 133.496094 249.457031 133.40625 251.261719 133.230469 C 253.066406 133.050781 254.859375 132.785156 256.636719 132.433594 C 258.417969 132.078125 260.171875 131.636719 261.910156 131.113281 C 263.644531 130.585938 265.347656 129.976562 267.023438 129.28125 C 268.699219 128.585938 270.335938 127.8125 271.9375 126.957031 C 273.535156 126.101562 275.089844 125.171875 276.597656 124.164062 C 278.105469 123.15625 279.558594 122.078125 280.960938 120.925781 C 282.363281 119.777344 283.707031 118.5625 284.988281 117.277344 C 286.269531 115.996094 287.488281 114.65625 288.636719 113.253906 C 289.789062 111.851562 290.867188 110.394531 291.875 108.886719 C 292.882812 107.378906 293.8125 105.828125 294.667969 104.226562 C 295.523438 102.628906 296.296875 100.992188 296.992188 99.316406 C 297.683594 97.640625 298.296875 95.933594 298.820312 94.199219 C 299.347656 92.464844 299.789062 90.707031 300.140625 88.929688 C 300.496094 87.148438 300.761719 85.359375 300.9375 83.554688 C 301.117188 81.75 301.207031 79.941406 301.207031 78.125 C 301.203125 76.3125 301.113281 74.503906 300.933594 72.703125 C 300.753906 70.898438 300.488281 69.105469 300.132812 67.328125 C 299.777344 65.550781 299.335938 63.792969 298.808594 62.058594 C 298.28125 60.324219 297.667969 58.621094 296.972656 56.945312 C 296.28125 55.273438 295.503906 53.636719 294.648438 52.035156 C 293.792969 50.4375 292.863281 48.886719 291.855469 47.378906 C 290.847656 45.871094 289.769531 44.417969 288.617188 43.015625 C 287.46875 41.613281 286.25 40.273438 284.96875 38.992188 C 283.6875 37.710938 282.347656 36.492188 280.945312 35.34375 C 279.542969 34.191406 278.089844 33.113281 276.582031 32.105469 C 275.074219 31.097656 273.523438 30.167969 271.921875 29.3125 C 270.324219 28.457031 268.6875 27.679688 267.015625 26.988281 C 265.339844 26.292969 263.636719 25.679688 261.902344 25.152344 C 260.167969 24.625 258.410156 24.183594 256.632812 23.828125 C 254.855469 23.472656 253.0625 23.207031 251.257812 23.027344 C 249.457031 22.847656 247.648438 22.757812 245.832031 22.753906 Z M 245.832031 22.753906 " fill-opacity="1" fill-rule="nonzero"/><path fill="#3a287a" d="M 248.589844 105.449219 L 243.078125 105.449219 C 242.183594 105.449219 241.292969 105.363281 240.417969 105.1875 C 239.539062 105.011719 238.683594 104.75 237.855469 104.40625 C 237.03125 104.0625 236.242188 103.644531 235.5 103.144531 C 234.753906 102.648438 234.066406 102.082031 233.429688 101.449219 C 232.796875 100.816406 232.230469 100.125 231.734375 99.382812 C 231.234375 98.636719 230.816406 97.851562 230.472656 97.023438 C 230.128906 96.195312 229.871094 95.34375 229.695312 94.464844 C 229.519531 93.585938 229.429688 92.699219 229.429688 91.800781 L 229.429688 89.792969 C 229.429688 89.34375 229.515625 88.910156 229.6875 88.492188 C 229.859375 88.074219 230.105469 87.707031 230.425781 87.386719 C 230.742188 87.070312 231.113281 86.824219 231.527344 86.652344 C 231.945312 86.480469 232.378906 86.390625 232.828125 86.390625 C 233.28125 86.390625 233.714844 86.480469 234.128906 86.652344 C 234.546875 86.824219 234.914062 87.070312 235.234375 87.386719 C 235.554688 87.707031 235.796875 88.074219 235.972656 88.492188 C 236.144531 88.910156 236.230469 89.34375 236.230469 89.792969 L 236.230469 91.800781 C 236.230469 92.25 236.273438 92.695312 236.363281 93.136719 C 236.453125 93.578125 236.582031 94.007812 236.753906 94.421875 C 236.925781 94.835938 237.136719 95.230469 237.386719 95.605469 C 237.636719 95.976562 237.921875 96.324219 238.238281 96.640625 C 238.554688 96.960938 238.902344 97.242188 239.277344 97.492188 C 239.648438 97.742188 240.042969 97.953125 240.457031 98.125 C 240.875 98.296875 241.300781 98.429688 241.742188 98.515625 C 242.183594 98.605469 242.628906 98.648438 243.078125 98.648438 L 248.589844 98.648438 C 249.335938 98.648438 250.066406 98.53125 250.773438 98.292969 C 251.480469 98.054688 252.132812 97.710938 252.726562 97.257812 C 253.324219 96.808594 253.832031 96.273438 254.25 95.65625 C 254.671875 95.039062 254.980469 94.371094 255.183594 93.652344 C 255.386719 92.933594 255.46875 92.199219 255.429688 91.453125 C 255.390625 90.707031 255.234375 89.988281 254.960938 89.292969 C 254.6875 88.597656 254.308594 87.964844 253.828125 87.394531 C 253.347656 86.820312 252.789062 86.34375 252.148438 85.953125 L 235.984375 76.105469 C 235.351562 75.71875 234.753906 75.289062 234.195312 74.804688 C 233.632812 74.324219 233.113281 73.800781 232.636719 73.234375 C 232.160156 72.671875 231.734375 72.070312 231.355469 71.433594 C 230.976562 70.800781 230.652344 70.136719 230.378906 69.449219 C 230.109375 68.761719 229.894531 68.058594 229.738281 67.335938 C 229.582031 66.613281 229.484375 65.882812 229.445312 65.140625 C 229.410156 64.402344 229.429688 63.667969 229.511719 62.933594 C 229.59375 62.199219 229.734375 61.472656 229.933594 60.761719 C 230.132812 60.050781 230.390625 59.359375 230.703125 58.6875 C 231.015625 58.019531 231.378906 57.375 231.792969 56.765625 C 232.210938 56.15625 232.671875 55.582031 233.183594 55.042969 C 233.691406 54.507812 234.242188 54.015625 234.832031 53.570312 C 235.421875 53.125 236.042969 52.726562 236.695312 52.382812 C 237.347656 52.035156 238.027344 51.746094 238.726562 51.511719 C 239.429688 51.273438 240.144531 51.097656 240.875 50.976562 C 241.601562 50.859375 242.339844 50.800781 243.078125 50.800781 L 248.589844 50.800781 C 249.484375 50.800781 250.375 50.890625 251.25 51.0625 C 252.128906 51.238281 252.984375 51.5 253.8125 51.84375 C 254.636719 52.1875 255.425781 52.605469 256.167969 53.105469 C 256.914062 53.601562 257.601562 54.167969 258.238281 54.800781 C 258.871094 55.433594 259.4375 56.125 259.933594 56.871094 C 260.429688 57.613281 260.851562 58.398438 261.195312 59.226562 C 261.539062 60.054688 261.796875 60.90625 261.972656 61.785156 C 262.148438 62.664062 262.238281 63.550781 262.238281 64.449219 L 262.238281 66.457031 C 262.238281 66.90625 262.152344 67.34375 261.980469 67.757812 C 261.808594 68.175781 261.5625 68.542969 261.242188 68.863281 C 260.925781 69.179688 260.554688 69.425781 260.140625 69.597656 C 259.722656 69.769531 259.289062 69.859375 258.839844 69.859375 C 258.386719 69.859375 257.953125 69.769531 257.535156 69.597656 C 257.121094 69.425781 256.753906 69.179688 256.433594 68.863281 C 256.113281 68.542969 255.867188 68.175781 255.695312 67.757812 C 255.523438 67.34375 255.4375 66.90625 255.4375 66.457031 L 255.4375 64.449219 C 255.4375 64 255.394531 63.554688 255.304688 63.113281 C 255.214844 62.671875 255.085938 62.246094 254.914062 61.828125 C 254.742188 61.414062 254.53125 61.019531 254.28125 60.644531 C 254.03125 60.273438 253.746094 59.925781 253.429688 59.609375 C 253.113281 59.292969 252.765625 59.007812 252.390625 58.757812 C 252.019531 58.507812 251.625 58.296875 251.210938 58.125 C 250.792969 57.953125 250.367188 57.820312 249.925781 57.734375 C 249.484375 57.644531 249.039062 57.601562 248.589844 57.601562 L 243.078125 57.601562 C 242.332031 57.601562 241.601562 57.71875 240.894531 57.957031 C 240.1875 58.195312 239.535156 58.539062 238.941406 58.992188 C 238.34375 59.441406 237.835938 59.976562 237.417969 60.59375 C 236.996094 61.210938 236.6875 61.878906 236.484375 62.597656 C 236.28125 63.316406 236.199219 64.050781 236.238281 64.796875 C 236.277344 65.542969 236.433594 66.261719 236.707031 66.957031 C 236.980469 67.652344 237.359375 68.285156 237.839844 68.855469 C 238.320312 69.429688 238.878906 69.90625 239.515625 70.296875 L 255.683594 80.140625 C 256.316406 80.527344 256.914062 80.960938 257.472656 81.441406 C 258.035156 81.921875 258.554688 82.445312 259.03125 83.011719 C 259.507812 83.578125 259.933594 84.175781 260.3125 84.8125 C 260.691406 85.449219 261.015625 86.109375 261.289062 86.796875 C 261.558594 87.484375 261.773438 88.191406 261.929688 88.914062 C 262.085938 89.636719 262.183594 90.367188 262.222656 91.105469 C 262.257812 91.84375 262.238281 92.582031 262.15625 93.316406 C 262.074219 94.050781 261.933594 94.773438 261.734375 95.484375 C 261.535156 96.199219 261.277344 96.890625 260.964844 97.558594 C 260.652344 98.230469 260.289062 98.871094 259.875 99.484375 C 259.457031 100.09375 258.996094 100.667969 258.484375 101.203125 C 257.976562 101.738281 257.425781 102.230469 256.835938 102.679688 C 256.246094 103.125 255.625 103.519531 254.972656 103.867188 C 254.320312 104.214844 253.640625 104.503906 252.941406 104.738281 C 252.238281 104.976562 251.523438 105.152344 250.792969 105.273438 C 250.0625 105.390625 249.328125 105.449219 248.589844 105.449219 Z M 248.589844 105.449219 " fill-opacity="1" fill-rule="nonzero"/><path fill="#3a287a" d="M 245.832031 115.460938 C 245.382812 115.460938 244.949219 115.375 244.53125 115.203125 C 244.117188 115.027344 243.746094 114.785156 243.429688 114.464844 C 243.109375 114.144531 242.863281 113.777344 242.691406 113.359375 C 242.519531 112.945312 242.433594 112.511719 242.433594 112.058594 L 242.433594 44.191406 C 242.433594 43.738281 242.519531 43.304688 242.691406 42.890625 C 242.863281 42.472656 243.109375 42.105469 243.429688 41.785156 C 243.75 41.46875 244.117188 41.222656 244.53125 41.050781 C 244.949219 40.875 245.382812 40.789062 245.832031 40.789062 C 246.285156 40.789062 246.71875 40.875 247.136719 41.050781 C 247.550781 41.222656 247.917969 41.46875 248.238281 41.785156 C 248.558594 42.105469 248.804688 42.472656 248.976562 42.890625 C 249.148438 43.304688 249.234375 43.738281 249.234375 44.191406 L 249.234375 112.058594 C 249.234375 112.511719 249.148438 112.945312 248.976562 113.359375 C 248.804688 113.777344 248.558594 114.144531 248.238281 114.464844 C 247.921875 114.785156 247.550781 115.027344 247.136719 115.203125 C 246.71875 115.375 246.285156 115.460938 245.832031 115.460938 Z M 245.832031 115.460938 " fill-opacity="1" fill-rule="nonzero"/><path fill="#3a287a" d="M 318.894531 209.867188 L 318.886719 209.867188 C 318.4375 209.867188 318.003906 209.78125 317.585938 209.605469 C 317.171875 209.433594 316.804688 209.1875 316.484375 208.867188 C 316.167969 208.550781 315.921875 208.183594 315.75 207.765625 C 315.578125 207.347656 315.492188 206.914062 315.492188 206.464844 L 315.53125 120.316406 C 315.53125 119.863281 315.617188 119.429688 315.792969 119.011719 C 315.964844 118.597656 316.210938 118.230469 316.527344 117.910156 C 316.847656 117.589844 317.214844 117.347656 317.632812 117.171875 C 318.046875 117 318.480469 116.914062 318.933594 116.914062 C 319.382812 116.914062 319.816406 117 320.234375 117.171875 C 320.652344 117.347656 321.019531 117.589844 321.335938 117.910156 C 321.65625 118.230469 321.902344 118.597656 322.074219 119.011719 C 322.246094 119.429688 322.332031 119.863281 322.332031 120.316406 L 322.292969 206.472656 C 322.292969 206.921875 322.207031 207.355469 322.035156 207.773438 C 321.863281 208.1875 321.617188 208.554688 321.296875 208.875 C 320.976562 209.195312 320.609375 209.4375 320.195312 209.609375 C 319.777344 209.785156 319.34375 209.871094 318.894531 209.867188 Z M 318.894531 209.867188 " fill-opacity="1" fill-rule="nonzero"/></svg>