<svg xmlns="http://www.w3.org/2000/svg" xmlns:xlink="http://www.w3.org/1999/xlink" width="500" zoomAndPan="magnify" viewBox="0 0 375.12 383.03998" height="500" preserveAspectRatio="xMidYMid meet" version="1.0"><defs><clipPath id="b1b6fff715"><path d="M 0.03125 57 L 374 57 L 374 329.96875 L 0.03125 329.96875 Z M 0.03125 57 " clip-rule="nonzero"/></clipPath><clipPath id="4d5cfa1a00"><path d="M 0.03125 57 L 374 57 L 374 120 L 0.03125 120 Z M 0.03125 57 " clip-rule="nonzero"/></clipPath><clipPath id="1bdd3e6b2b"><path d="M 318 44.1875 L 328 44.1875 L 328 94 L 318 94 Z M 318 44.1875 " clip-rule="nonzero"/></clipPath><clipPath id="7d5be8fb07"><path d="M 46 44.1875 L 56 44.1875 L 56 94 L 46 94 Z M 46 44.1875 " clip-rule="nonzero"/></clipPath></defs><path fill="#fff5eb" d="M 369.574219 86.351562 L 369.574219 301.40625 C 369.574219 314.859375 358.675781 325.757812 345.234375 325.757812 L 28.890625 325.757812 C 15.453125 325.757812 4.554688 314.859375 4.554688 301.40625 L 4.554688 86.351562 C 4.554688 72.898438 15.453125 61.996094 28.890625 61.996094 L 345.230469 61.996094 C 358.671875 61.996094 369.566406 72.898438 369.566406 86.351562 Z M 369.574219 86.351562 " fill-opacity="1" fill-rule="nonzero"/><path fill="#ed6b55" d="M 369.574219 86.351562 L 369.574219 115.574219 L 4.558594 115.574219 L 4.558594 86.351562 C 4.558594 72.898438 15.457031 61.996094 28.894531 61.996094 L 345.234375 61.996094 C 358.675781 61.996094 369.574219 72.898438 369.574219 86.351562 Z M 369.574219 86.351562 " fill-opacity="1" fill-rule="nonzero"/><g clip-path="url(#b1b6fff715)"><path fill="#3a3a3a" d="M 345.234375 329.972656 L 28.890625 329.972656 C 13.148438 329.972656 0.339844 317.15625 0.339844 301.40625 L 0.339844 86.351562 C 0.339844 70.597656 13.148438 57.78125 28.890625 57.78125 L 345.230469 57.78125 C 360.972656 57.78125 373.78125 70.597656 373.78125 86.351562 L 373.78125 183.59375 C 373.78125 185.921875 371.894531 187.816406 369.5625 187.816406 C 367.230469 187.816406 365.34375 185.929688 365.34375 183.59375 L 365.34375 86.351562 C 365.34375 75.25 356.320312 66.21875 345.226562 66.21875 L 28.890625 66.21875 C 17.796875 66.21875 8.773438 75.25 8.773438 86.351562 L 8.773438 301.40625 C 8.773438 312.507812 17.796875 321.539062 28.890625 321.539062 L 345.230469 321.539062 C 356.324219 321.539062 365.351562 312.507812 365.351562 301.40625 L 365.351562 216.867188 C 365.351562 214.539062 367.238281 212.648438 369.566406 212.648438 C 371.898438 212.648438 373.785156 214.535156 373.785156 216.867188 L 373.785156 301.40625 C 373.785156 317.15625 360.980469 329.972656 345.234375 329.972656 Z M 345.234375 329.972656 " fill-opacity="1" fill-rule="nonzero"/></g><g clip-path="url(#4d5cfa1a00)"><path fill="#3a3a3a" d="M 369.574219 119.792969 L 116.203125 119.792969 C 113.875 119.792969 111.984375 117.90625 111.984375 115.574219 C 111.984375 113.242188 113.871094 111.355469 116.203125 111.355469 L 365.355469 111.355469 L 365.355469 86.347656 C 365.355469 75.246094 356.328125 66.210938 345.234375 66.210938 L 28.890625 66.210938 C 17.796875 66.210938 8.773438 75.246094 8.773438 86.347656 L 8.773438 111.355469 L 78.269531 111.355469 C 80.597656 111.355469 82.488281 113.242188 82.488281 115.574219 C 82.488281 117.90625 80.601562 119.792969 78.269531 119.792969 L 4.558594 119.792969 C 2.230469 119.792969 0.339844 117.90625 0.339844 115.574219 L 0.339844 86.351562 C 0.339844 70.597656 13.148438 57.78125 28.890625 57.78125 L 345.230469 57.78125 C 360.972656 57.78125 373.78125 70.597656 373.78125 86.351562 L 373.78125 115.574219 C 373.78125 117.902344 371.894531 119.792969 369.5625 119.792969 Z M 369.574219 119.792969 " fill-opacity="1" fill-rule="nonzero"/></g><path fill="#f9aa41" d="M 61.820312 88.789062 C 61.820312 89.492188 61.753906 90.191406 61.617188 90.882812 C 61.480469 91.570312 61.277344 92.242188 61.007812 92.890625 C 60.738281 93.542969 60.40625 94.160156 60.015625 94.742188 C 59.625 95.328125 59.183594 95.871094 58.683594 96.367188 C 58.1875 96.867188 57.644531 97.308594 57.0625 97.699219 C 56.476562 98.089844 55.859375 98.421875 55.207031 98.691406 C 54.558594 98.960938 53.890625 99.164062 53.199219 99.300781 C 52.507812 99.4375 51.8125 99.507812 51.109375 99.507812 C 50.40625 99.507812 49.710938 99.4375 49.019531 99.300781 C 48.328125 99.164062 47.660156 98.960938 47.007812 98.691406 C 46.359375 98.421875 45.742188 98.089844 45.15625 97.699219 C 44.574219 97.308594 44.03125 96.867188 43.535156 96.367188 C 43.035156 95.871094 42.59375 95.328125 42.203125 94.742188 C 41.8125 94.160156 41.480469 93.542969 41.210938 92.890625 C 40.941406 92.242188 40.738281 91.570312 40.601562 90.882812 C 40.464844 90.191406 40.394531 89.492188 40.394531 88.789062 C 40.394531 88.085938 40.464844 87.390625 40.601562 86.699219 C 40.738281 86.007812 40.941406 85.339844 41.210938 84.6875 C 41.480469 84.039062 41.8125 83.421875 42.203125 82.835938 C 42.59375 82.25 43.035156 81.710938 43.535156 81.210938 C 44.03125 80.714844 44.574219 80.269531 45.15625 79.878906 C 45.742188 79.488281 46.359375 79.160156 47.007812 78.890625 C 47.660156 78.621094 48.328125 78.417969 49.019531 78.28125 C 49.710938 78.144531 50.40625 78.074219 51.109375 78.074219 C 51.8125 78.074219 52.507812 78.144531 53.199219 78.28125 C 53.890625 78.417969 54.558594 78.621094 55.207031 78.890625 C 55.859375 79.160156 56.476562 79.488281 57.0625 79.878906 C 57.644531 80.269531 58.1875 80.714844 58.683594 81.210938 C 59.183594 81.710938 59.625 82.25 60.015625 82.835938 C 60.40625 83.421875 60.738281 84.039062 61.007812 84.6875 C 61.277344 85.339844 61.480469 86.007812 61.617188 86.699219 C 61.753906 87.390625 61.820312 88.085938 61.820312 88.789062 Z M 61.820312 88.789062 " fill-opacity="1" fill-rule="nonzero"/><path fill="#f9aa41" d="M 116.207031 88.789062 C 116.207031 89.492188 116.136719 90.191406 116 90.882812 C 115.863281 91.570312 115.660156 92.242188 115.390625 92.890625 C 115.121094 93.542969 114.792969 94.160156 114.402344 94.742188 C 114.011719 95.328125 113.566406 95.871094 113.070312 96.367188 C 112.570312 96.867188 112.03125 97.308594 111.445312 97.699219 C 110.859375 98.089844 110.242188 98.421875 109.59375 98.691406 C 108.945312 98.960938 108.273438 99.164062 107.582031 99.300781 C 106.894531 99.4375 106.195312 99.507812 105.492188 99.507812 C 104.789062 99.507812 104.09375 99.4375 103.402344 99.300781 C 102.714844 99.164062 102.042969 98.960938 101.394531 98.691406 C 100.746094 98.421875 100.125 98.089844 99.542969 97.699219 C 98.957031 97.308594 98.417969 96.867188 97.917969 96.367188 C 97.421875 95.871094 96.976562 95.328125 96.585938 94.742188 C 96.195312 94.160156 95.867188 93.542969 95.597656 92.890625 C 95.328125 92.242188 95.125 91.570312 94.988281 90.882812 C 94.847656 90.191406 94.78125 89.492188 94.78125 88.789062 C 94.78125 88.085938 94.847656 87.390625 94.988281 86.699219 C 95.125 86.007812 95.328125 85.339844 95.597656 84.6875 C 95.867188 84.039062 96.195312 83.421875 96.585938 82.835938 C 96.976562 82.25 97.421875 81.710938 97.917969 81.210938 C 98.417969 80.714844 98.957031 80.269531 99.542969 79.878906 C 100.125 79.488281 100.746094 79.160156 101.394531 78.890625 C 102.042969 78.621094 102.714844 78.417969 103.402344 78.28125 C 104.09375 78.144531 104.789062 78.074219 105.492188 78.074219 C 106.195312 78.074219 106.894531 78.144531 107.582031 78.28125 C 108.273438 78.417969 108.945312 78.621094 109.59375 78.890625 C 110.242188 79.160156 110.859375 79.488281 111.445312 79.878906 C 112.03125 80.269531 112.570312 80.714844 113.070312 81.210938 C 113.566406 81.710938 114.011719 82.25 114.402344 82.835938 C 114.792969 83.421875 115.121094 84.039062 115.390625 84.6875 C 115.660156 85.339844 115.863281 86.007812 116 86.699219 C 116.136719 87.390625 116.207031 88.085938 116.207031 88.789062 Z M 116.207031 88.789062 " fill-opacity="1" fill-rule="nonzero"/><path fill="#f9aa41" d="M 170.585938 88.789062 C 170.585938 89.492188 170.519531 90.191406 170.378906 90.882812 C 170.242188 91.570312 170.039062 92.242188 169.769531 92.890625 C 169.5 93.542969 169.171875 94.160156 168.78125 94.742188 C 168.390625 95.328125 167.945312 95.871094 167.449219 96.367188 C 166.953125 96.867188 166.410156 97.308594 165.824219 97.699219 C 165.242188 98.089844 164.625 98.421875 163.972656 98.691406 C 163.324219 98.960938 162.652344 99.164062 161.964844 99.300781 C 161.273438 99.4375 160.578125 99.507812 159.875 99.507812 C 159.171875 99.507812 158.472656 99.4375 157.785156 99.300781 C 157.09375 99.164062 156.425781 98.960938 155.773438 98.691406 C 155.125 98.421875 154.507812 98.089844 153.921875 97.699219 C 153.335938 97.308594 152.796875 96.867188 152.296875 96.367188 C 151.800781 95.871094 151.355469 95.328125 150.964844 94.742188 C 150.574219 94.160156 150.246094 93.542969 149.976562 92.890625 C 149.707031 92.242188 149.503906 91.570312 149.367188 90.882812 C 149.230469 90.191406 149.160156 89.492188 149.160156 88.789062 C 149.160156 88.085938 149.230469 87.390625 149.367188 86.699219 C 149.503906 86.007812 149.707031 85.339844 149.976562 84.6875 C 150.246094 84.039062 150.574219 83.421875 150.964844 82.835938 C 151.355469 82.25 151.800781 81.710938 152.296875 81.210938 C 152.796875 80.714844 153.335938 80.269531 153.921875 79.878906 C 154.507812 79.488281 155.125 79.160156 155.773438 78.890625 C 156.425781 78.621094 157.09375 78.417969 157.785156 78.28125 C 158.472656 78.144531 159.171875 78.074219 159.875 78.074219 C 160.578125 78.074219 161.273438 78.144531 161.964844 78.28125 C 162.652344 78.417969 163.324219 78.621094 163.972656 78.890625 C 164.625 79.160156 165.242188 79.488281 165.824219 79.878906 C 166.410156 80.269531 166.953125 80.714844 167.449219 81.210938 C 167.945312 81.710938 168.390625 82.25 168.78125 82.835938 C 169.171875 83.421875 169.5 84.039062 169.769531 84.6875 C 170.039062 85.339844 170.242188 86.007812 170.378906 86.699219 C 170.519531 87.390625 170.585938 88.085938 170.585938 88.789062 Z M 170.585938 88.789062 " fill-opacity="1" fill-rule="nonzero"/><path fill="#f9aa41" d="M 224.964844 88.789062 C 224.964844 89.492188 224.898438 90.191406 224.761719 90.882812 C 224.625 91.570312 224.421875 92.242188 224.152344 92.890625 C 223.882812 93.542969 223.550781 94.160156 223.160156 94.742188 C 222.769531 95.328125 222.324219 95.871094 221.828125 96.367188 C 221.332031 96.867188 220.789062 97.308594 220.207031 97.699219 C 219.621094 98.089844 219.003906 98.421875 218.351562 98.691406 C 217.703125 98.960938 217.035156 99.164062 216.34375 99.300781 C 215.652344 99.4375 214.957031 99.507812 214.253906 99.507812 C 213.550781 99.507812 212.851562 99.4375 212.164062 99.300781 C 211.472656 99.164062 210.804688 98.960938 210.152344 98.691406 C 209.503906 98.421875 208.886719 98.089844 208.300781 97.699219 C 207.71875 97.308594 207.175781 96.867188 206.679688 96.367188 C 206.179688 95.871094 205.738281 95.328125 205.347656 94.742188 C 204.957031 94.160156 204.625 93.542969 204.355469 92.890625 C 204.085938 92.242188 203.882812 91.570312 203.746094 90.882812 C 203.609375 90.191406 203.539062 89.492188 203.539062 88.789062 C 203.539062 88.085938 203.609375 87.390625 203.746094 86.699219 C 203.882812 86.007812 204.085938 85.339844 204.355469 84.6875 C 204.625 84.039062 204.957031 83.421875 205.347656 82.835938 C 205.738281 82.25 206.179688 81.710938 206.679688 81.210938 C 207.175781 80.714844 207.71875 80.269531 208.300781 79.878906 C 208.886719 79.488281 209.503906 79.160156 210.152344 78.890625 C 210.804688 78.621094 211.472656 78.417969 212.164062 78.28125 C 212.851562 78.144531 213.550781 78.074219 214.253906 78.074219 C 214.957031 78.074219 215.652344 78.144531 216.34375 78.28125 C 217.035156 78.417969 217.703125 78.621094 218.351562 78.890625 C 219.003906 79.160156 219.621094 79.488281 220.207031 79.878906 C 220.789062 80.269531 221.332031 80.714844 221.828125 81.210938 C 222.324219 81.710938 222.769531 82.25 223.160156 82.835938 C 223.550781 83.421875 223.882812 84.039062 224.152344 84.6875 C 224.421875 85.339844 224.625 86.007812 224.761719 86.699219 C 224.898438 87.390625 224.964844 88.085938 224.964844 88.789062 Z M 224.964844 88.789062 " fill-opacity="1" fill-rule="nonzero"/><path fill="#f9aa41" d="M 279.351562 88.789062 C 279.351562 89.492188 279.28125 90.191406 279.144531 90.882812 C 279.007812 91.570312 278.804688 92.242188 278.535156 92.890625 C 278.265625 93.542969 277.9375 94.160156 277.546875 94.742188 C 277.15625 95.328125 276.710938 95.871094 276.214844 96.367188 C 275.714844 96.867188 275.175781 97.308594 274.589844 97.699219 C 274.003906 98.089844 273.386719 98.421875 272.738281 98.691406 C 272.085938 98.960938 271.417969 99.164062 270.726562 99.300781 C 270.039062 99.4375 269.339844 99.507812 268.636719 99.507812 C 267.933594 99.507812 267.238281 99.4375 266.546875 99.300781 C 265.859375 99.164062 265.1875 98.960938 264.539062 98.691406 C 263.886719 98.421875 263.269531 98.089844 262.6875 97.699219 C 262.101562 97.308594 261.558594 96.867188 261.0625 96.367188 C 260.566406 95.871094 260.121094 95.328125 259.730469 94.742188 C 259.339844 94.160156 259.011719 93.542969 258.742188 92.890625 C 258.472656 92.242188 258.269531 91.570312 258.132812 90.882812 C 257.992188 90.191406 257.925781 89.492188 257.925781 88.789062 C 257.925781 88.085938 257.992188 87.390625 258.132812 86.699219 C 258.269531 86.007812 258.472656 85.339844 258.742188 84.6875 C 259.011719 84.039062 259.339844 83.421875 259.730469 82.835938 C 260.121094 82.25 260.566406 81.710938 261.0625 81.210938 C 261.558594 80.714844 262.101562 80.269531 262.6875 79.878906 C 263.269531 79.488281 263.886719 79.160156 264.539062 78.890625 C 265.1875 78.621094 265.859375 78.417969 266.546875 78.28125 C 267.238281 78.144531 267.933594 78.074219 268.636719 78.074219 C 269.339844 78.074219 270.039062 78.144531 270.726562 78.28125 C 271.417969 78.417969 272.085938 78.621094 272.738281 78.890625 C 273.386719 79.160156 274.003906 79.488281 274.589844 79.878906 C 275.175781 80.269531 275.714844 80.714844 276.214844 81.210938 C 276.710938 81.710938 277.15625 82.25 277.546875 82.835938 C 277.9375 83.421875 278.265625 84.039062 278.535156 84.6875 C 278.804688 85.339844 279.007812 86.007812 279.144531 86.699219 C 279.28125 87.390625 279.351562 88.085938 279.351562 88.789062 Z M 279.351562 88.789062 " fill-opacity="1" fill-rule="nonzero"/><path fill="#f9aa41" d="M 333.730469 88.789062 C 333.730469 89.492188 333.660156 90.191406 333.523438 90.882812 C 333.386719 91.570312 333.183594 92.242188 332.914062 92.890625 C 332.644531 93.542969 332.316406 94.160156 331.925781 94.742188 C 331.535156 95.328125 331.089844 95.871094 330.59375 96.367188 C 330.09375 96.867188 329.554688 97.308594 328.96875 97.699219 C 328.382812 98.089844 327.765625 98.421875 327.117188 98.691406 C 326.46875 98.960938 325.796875 99.164062 325.109375 99.300781 C 324.417969 99.4375 323.722656 99.507812 323.019531 99.507812 C 322.316406 99.507812 321.617188 99.4375 320.929688 99.300781 C 320.238281 99.164062 319.566406 98.960938 318.917969 98.691406 C 318.269531 98.421875 317.652344 98.089844 317.066406 97.699219 C 316.480469 97.308594 315.941406 96.867188 315.441406 96.367188 C 314.945312 95.871094 314.5 95.328125 314.109375 94.742188 C 313.71875 94.160156 313.390625 93.542969 313.121094 92.890625 C 312.851562 92.242188 312.648438 91.570312 312.511719 90.882812 C 312.375 90.191406 312.304688 89.492188 312.304688 88.789062 C 312.304688 88.085938 312.375 87.390625 312.511719 86.699219 C 312.648438 86.007812 312.851562 85.339844 313.121094 84.6875 C 313.390625 84.039062 313.71875 83.421875 314.109375 82.835938 C 314.5 82.25 314.945312 81.710938 315.441406 81.210938 C 315.941406 80.714844 316.480469 80.269531 317.066406 79.878906 C 317.652344 79.488281 318.269531 79.160156 318.917969 78.890625 C 319.566406 78.621094 320.238281 78.417969 320.929688 78.28125 C 321.617188 78.144531 322.316406 78.074219 323.019531 78.074219 C 323.722656 78.074219 324.417969 78.144531 325.109375 78.28125 C 325.796875 78.417969 326.46875 78.621094 327.117188 78.890625 C 327.765625 79.160156 328.382812 79.488281 328.96875 79.878906 C 329.554688 80.269531 330.09375 80.714844 330.59375 81.210938 C 331.089844 81.710938 331.535156 82.25 331.925781 82.835938 C 332.316406 83.421875 332.644531 84.039062 332.914062 84.6875 C 333.183594 85.339844 333.386719 86.007812 333.523438 86.699219 C 333.660156 87.390625 333.730469 88.085938 333.730469 88.789062 Z M 333.730469 88.789062 " fill-opacity="1" fill-rule="nonzero"/><path fill="#3a3a3a" d="M 51.109375 103.722656 C 42.875 103.722656 36.183594 97.019531 36.183594 88.789062 C 36.183594 80.558594 42.882812 73.859375 51.109375 73.859375 C 59.335938 73.859375 66.035156 80.558594 66.035156 88.789062 C 66.035156 97.019531 59.335938 103.722656 51.109375 103.722656 Z M 51.109375 82.289062 C 47.527344 82.289062 44.613281 85.207031 44.613281 88.785156 C 44.613281 92.367188 47.53125 95.28125 51.109375 95.28125 C 54.6875 95.28125 57.605469 92.367188 57.605469 88.785156 C 57.605469 85.207031 54.6875 82.289062 51.109375 82.289062 Z M 51.109375 82.289062 " fill-opacity="1" fill-rule="nonzero"/><path fill="#3a3a3a" d="M 105.492188 103.722656 C 97.261719 103.722656 90.566406 97.019531 90.566406 88.789062 C 90.566406 80.558594 97.265625 73.859375 105.492188 73.859375 C 113.722656 73.859375 120.421875 80.558594 120.421875 88.789062 C 120.421875 97.019531 113.722656 103.722656 105.492188 103.722656 Z M 105.492188 82.289062 C 101.910156 82.289062 99 85.207031 99 88.785156 C 99 92.367188 101.914062 95.28125 105.492188 95.28125 C 109.074219 95.28125 111.988281 92.367188 111.988281 88.785156 C 111.988281 85.207031 109.074219 82.289062 105.492188 82.289062 Z M 105.492188 82.289062 " fill-opacity="1" fill-rule="nonzero"/><path fill="#3a3a3a" d="M 159.875 103.722656 C 151.640625 103.722656 144.945312 97.019531 144.945312 88.789062 C 144.945312 80.558594 151.644531 73.859375 159.875 73.859375 C 168.101562 73.859375 174.800781 80.558594 174.800781 88.789062 C 174.800781 97.019531 168.101562 103.722656 159.875 103.722656 Z M 159.875 82.289062 C 156.289062 82.289062 153.378906 85.207031 153.378906 88.785156 C 153.378906 92.367188 156.296875 95.28125 159.875 95.28125 C 163.453125 95.28125 166.367188 92.367188 166.367188 88.785156 C 166.367188 85.207031 163.453125 82.289062 159.875 82.289062 Z M 159.875 82.289062 " fill-opacity="1" fill-rule="nonzero"/><path fill="#3a3a3a" d="M 214.253906 103.722656 C 206.019531 103.722656 199.328125 97.019531 199.328125 88.789062 C 199.328125 80.558594 206.023438 73.859375 214.253906 73.859375 C 222.480469 73.859375 229.179688 80.558594 229.179688 88.789062 C 229.179688 97.019531 222.480469 103.722656 214.253906 103.722656 Z M 214.253906 82.289062 C 210.671875 82.289062 207.757812 85.207031 207.757812 88.785156 C 207.757812 92.367188 210.675781 95.28125 214.253906 95.28125 C 217.832031 95.28125 220.746094 92.367188 220.746094 88.785156 C 220.746094 85.207031 217.832031 82.289062 214.253906 82.289062 Z M 214.253906 82.289062 " fill-opacity="1" fill-rule="nonzero"/><path fill="#3a3a3a" d="M 268.636719 103.722656 C 260.40625 103.722656 253.710938 97.019531 253.710938 88.789062 C 253.710938 80.558594 260.410156 73.859375 268.636719 73.859375 C 276.867188 73.859375 283.566406 80.558594 283.566406 88.789062 C 283.566406 97.019531 276.867188 103.722656 268.636719 103.722656 Z M 268.636719 82.289062 C 265.054688 82.289062 262.144531 85.207031 262.144531 88.785156 C 262.144531 92.367188 265.058594 95.28125 268.636719 95.28125 C 272.214844 95.28125 275.132812 92.367188 275.132812 88.785156 C 275.132812 85.207031 272.214844 82.289062 268.636719 82.289062 Z M 268.636719 82.289062 " fill-opacity="1" fill-rule="nonzero"/><path fill="#3a3a3a" d="M 323.019531 103.722656 C 314.785156 103.722656 308.089844 97.019531 308.089844 88.789062 C 308.089844 80.558594 314.789062 73.859375 323.019531 73.859375 C 331.246094 73.859375 337.945312 80.558594 337.945312 88.789062 C 337.945312 97.019531 331.246094 103.722656 323.019531 103.722656 Z M 323.019531 82.289062 C 319.433594 82.289062 316.523438 85.207031 316.523438 88.785156 C 316.523438 92.367188 319.4375 95.28125 323.019531 95.28125 C 326.597656 95.28125 329.511719 92.367188 329.511719 88.785156 C 329.511719 85.207031 326.597656 82.289062 323.019531 82.289062 Z M 323.019531 82.289062 " fill-opacity="1" fill-rule="nonzero"/><g clip-path="url(#1bdd3e6b2b)"><path fill="#3a3a3a" d="M 323.019531 93.003906 C 320.691406 93.003906 318.800781 91.117188 318.800781 88.785156 L 318.800781 48.40625 C 318.800781 46.078125 320.6875 44.1875 323.019531 44.1875 C 325.347656 44.1875 327.234375 46.074219 327.234375 48.40625 L 327.234375 88.789062 C 327.234375 91.117188 325.347656 93.011719 323.019531 93.011719 Z M 323.019531 93.003906 " fill-opacity="1" fill-rule="nonzero"/></g><g clip-path="url(#7d5be8fb07)"><path fill="#3a3a3a" d="M 51.109375 93.003906 C 48.78125 93.003906 46.890625 91.117188 46.890625 88.785156 L 46.890625 48.40625 C 46.890625 46.078125 48.777344 44.1875 51.109375 44.1875 C 53.441406 44.1875 55.328125 46.074219 55.328125 48.40625 L 55.328125 88.789062 C 55.328125 91.117188 53.441406 93.011719 51.109375 93.011719 Z M 51.109375 93.003906 " fill-opacity="1" fill-rule="nonzero"/></g><path fill="#89cbbe" d="M 74.277344 150.152344 C 74.277344 152.878906 73.230469 155.617188 71.152344 157.703125 L 53.671875 175.183594 C 49.503906 179.351562 42.757812 179.351562 38.589844 175.183594 L 30.542969 167.132812 C 26.371094 162.964844 26.371094 156.203125 30.542969 152.039062 C 32.628906 149.960938 35.351562 148.914062 38.078125 148.914062 C 40.804688 148.914062 43.542969 149.960938 45.625 152.039062 L 46.136719 152.550781 L 56.074219 142.609375 C 60.242188 138.441406 66.992188 138.441406 71.15625 142.609375 C 73.234375 144.695312 74.28125 147.421875 74.28125 150.15625 Z M 74.277344 150.152344 " fill-opacity="1" fill-rule="nonzero"/><path fill="#3a3a3a" d="M 46.128906 182.523438 C 42.152344 182.523438 38.417969 180.976562 35.609375 178.164062 L 27.558594 170.117188 C 24.746094 167.304688 23.199219 163.566406 23.199219 159.585938 C 23.199219 155.601562 24.75 151.863281 27.566406 149.054688 C 30.386719 146.242188 34.121094 144.695312 38.082031 144.695312 C 40.863281 144.695312 43.535156 145.457031 45.847656 146.875 L 53.09375 139.625 C 55.902344 136.816406 59.640625 135.269531 63.617188 135.269531 C 67.59375 135.269531 71.328125 136.816406 74.140625 139.625 C 76.953125 142.449219 78.5 146.1875 78.5 150.15625 C 78.5 154.125 76.953125 157.863281 74.144531 160.683594 L 56.652344 178.171875 C 53.84375 180.980469 50.109375 182.527344 46.128906 182.527344 Z M 38.078125 153.125 C 36.363281 153.125 34.746094 153.796875 33.515625 155.023438 C 32.296875 156.238281 31.625 157.859375 31.625 159.578125 C 31.625 161.300781 32.296875 162.921875 33.515625 164.144531 L 41.566406 172.191406 C 44.078125 174.710938 48.171875 174.710938 50.6875 172.191406 L 68.167969 154.710938 C 69.382812 153.492188 70.058594 151.863281 70.058594 150.148438 C 70.058594 148.433594 69.386719 146.804688 68.164062 145.574219 C 66.949219 144.359375 65.332031 143.695312 63.605469 143.695312 C 61.882812 143.695312 60.265625 144.367188 59.046875 145.585938 L 49.105469 155.527344 C 47.460938 157.171875 44.789062 157.171875 43.144531 155.527344 L 42.636719 155.015625 C 41.417969 153.796875 39.792969 153.125 38.070312 153.125 Z M 38.078125 153.125 " fill-opacity="1" fill-rule="nonzero"/><path fill="#3a3a3a" d="M 174.917969 152.398438 L 98.226562 152.398438 C 95.898438 152.398438 94.007812 150.511719 94.007812 148.175781 C 94.007812 145.84375 95.894531 143.957031 98.226562 143.957031 L 174.917969 143.957031 C 177.242188 143.957031 179.132812 145.84375 179.132812 148.175781 C 179.132812 150.511719 177.246094 152.398438 174.917969 152.398438 Z M 174.917969 152.398438 " fill-opacity="1" fill-rule="nonzero"/><path fill="#3a3a3a" d="M 136.570312 173.824219 L 98.226562 173.824219 C 95.898438 173.824219 94.007812 171.9375 94.007812 169.605469 C 94.007812 167.273438 95.894531 165.386719 98.226562 165.386719 L 136.570312 165.386719 C 138.898438 165.386719 140.789062 167.273438 140.789062 169.605469 C 140.789062 171.9375 138.902344 173.824219 136.570312 173.824219 Z M 136.570312 173.824219 " fill-opacity="1" fill-rule="nonzero"/><path fill="#89cbbe" d="M 74.277344 210.691406 C 74.277344 213.417969 73.230469 216.152344 71.152344 218.238281 L 53.671875 235.722656 C 49.503906 239.890625 42.757812 239.890625 38.589844 235.722656 L 30.542969 227.671875 C 26.371094 223.503906 26.371094 216.742188 30.542969 212.578125 C 32.628906 210.5 35.351562 209.453125 38.078125 209.453125 C 40.804688 209.453125 43.542969 210.5 45.625 212.578125 L 46.136719 213.085938 L 56.074219 203.144531 C 60.242188 198.976562 66.992188 198.976562 71.15625 203.144531 C 73.234375 205.230469 74.28125 207.957031 74.28125 210.695312 Z M 74.277344 210.691406 " fill-opacity="1" fill-rule="nonzero"/><path fill="#3a3a3a" d="M 46.128906 243.0625 C 42.152344 243.0625 38.417969 241.511719 35.609375 238.703125 L 27.558594 230.652344 C 24.746094 227.84375 23.199219 224.101562 23.199219 220.121094 C 23.199219 216.144531 24.75 212.402344 27.566406 209.589844 C 30.382812 206.78125 34.121094 205.230469 38.082031 205.230469 C 40.863281 205.230469 43.535156 205.992188 45.847656 207.410156 L 53.09375 200.164062 C 55.902344 197.355469 59.640625 195.804688 63.617188 195.804688 C 67.59375 195.804688 71.328125 197.355469 74.140625 200.164062 C 76.953125 202.988281 78.5 206.726562 78.5 210.695312 C 78.5 214.664062 76.953125 218.402344 74.144531 221.222656 L 56.652344 238.707031 C 53.84375 241.515625 50.109375 243.066406 46.128906 243.066406 Z M 38.078125 213.664062 C 36.363281 213.664062 34.746094 214.335938 33.515625 215.558594 C 32.296875 216.773438 31.625 218.398438 31.625 220.117188 C 31.625 221.84375 32.296875 223.460938 33.515625 224.679688 L 41.566406 232.730469 C 44.078125 235.25 48.171875 235.25 50.6875 232.730469 L 68.167969 215.25 C 69.382812 214.027344 70.058594 212.402344 70.058594 210.683594 C 70.058594 208.96875 69.386719 207.34375 68.164062 206.113281 C 65.65625 203.605469 61.5625 203.605469 59.050781 206.117188 L 49.109375 216.058594 C 48.320312 216.851562 47.246094 217.292969 46.128906 217.292969 C 45.011719 217.292969 43.9375 216.847656 43.148438 216.058594 L 42.640625 215.550781 C 41.421875 214.332031 39.796875 213.65625 38.074219 213.65625 Z M 38.078125 213.664062 " fill-opacity="1" fill-rule="nonzero"/><path fill="#3a3a3a" d="M 174.917969 212.933594 L 98.226562 212.933594 C 95.898438 212.933594 94.007812 211.046875 94.007812 208.714844 C 94.007812 206.382812 95.894531 204.496094 98.226562 204.496094 L 174.917969 204.496094 C 177.242188 204.496094 179.132812 206.382812 179.132812 208.714844 C 179.132812 211.046875 177.246094 212.933594 174.917969 212.933594 Z M 174.917969 212.933594 " fill-opacity="1" fill-rule="nonzero"/><path fill="#3a3a3a" d="M 136.570312 234.363281 L 98.226562 234.363281 C 95.898438 234.363281 94.007812 232.476562 94.007812 230.144531 C 94.007812 227.808594 95.894531 225.921875 98.226562 225.921875 L 136.570312 225.921875 C 138.898438 225.921875 140.789062 227.808594 140.789062 230.144531 C 140.789062 232.476562 138.902344 234.363281 136.570312 234.363281 Z M 136.570312 234.363281 " fill-opacity="1" fill-rule="nonzero"/><path fill="#89cbbe" d="M 74.277344 271.226562 C 74.277344 273.953125 73.230469 276.691406 71.152344 278.777344 L 53.671875 296.257812 C 49.503906 300.425781 42.757812 300.425781 38.589844 296.257812 L 30.542969 288.207031 C 26.371094 284.039062 26.371094 277.277344 30.542969 273.113281 C 32.628906 271.035156 35.351562 269.988281 38.078125 269.988281 C 40.804688 269.988281 43.542969 271.039062 45.625 273.113281 L 46.136719 273.625 L 56.074219 263.683594 C 60.242188 259.515625 66.992188 259.515625 71.15625 263.683594 C 73.234375 265.769531 74.28125 268.496094 74.28125 271.230469 Z M 74.277344 271.226562 " fill-opacity="1" fill-rule="nonzero"/><path fill="#3a3a3a" d="M 46.128906 303.597656 C 42.152344 303.597656 38.417969 302.050781 35.609375 299.238281 L 27.558594 291.191406 C 24.746094 288.378906 23.199219 284.640625 23.199219 280.660156 C 23.199219 276.679688 24.746094 272.9375 27.566406 270.128906 C 30.386719 267.316406 34.121094 265.769531 38.082031 265.769531 C 40.863281 265.769531 43.535156 266.53125 45.847656 267.949219 L 53.09375 260.699219 C 55.902344 257.890625 59.640625 256.34375 63.617188 256.34375 C 67.59375 256.34375 71.328125 257.890625 74.140625 260.699219 C 75.785156 262.347656 75.785156 265.019531 74.140625 266.664062 C 72.492188 268.308594 69.824219 268.308594 68.175781 266.664062 C 65.664062 264.144531 61.570312 264.144531 59.054688 266.664062 L 49.117188 276.605469 C 47.46875 278.253906 44.800781 278.253906 43.15625 276.605469 L 42.644531 276.097656 C 41.425781 274.875 39.804688 274.203125 38.078125 274.203125 C 36.355469 274.203125 34.746094 274.875 33.515625 276.101562 C 32.296875 277.316406 31.625 278.9375 31.625 280.660156 C 31.625 282.382812 32.296875 284.003906 33.515625 285.222656 L 41.566406 293.273438 C 42.785156 294.492188 44.402344 295.164062 46.125 295.164062 C 47.851562 295.164062 49.46875 294.492188 50.6875 293.273438 L 63.421875 280.539062 C 65.066406 278.890625 67.738281 278.890625 69.382812 280.539062 C 71.027344 282.183594 71.027344 284.855469 69.382812 286.5 L 56.648438 299.234375 C 53.839844 302.046875 50.101562 303.59375 46.125 303.59375 Z M 46.128906 303.597656 " fill-opacity="1" fill-rule="nonzero"/><path fill="#3a3a3a" d="M 174.917969 273.472656 L 98.226562 273.472656 C 95.898438 273.472656 94.007812 271.585938 94.007812 269.25 C 94.007812 266.917969 95.894531 265.03125 98.226562 265.03125 L 174.917969 265.03125 C 177.242188 265.03125 179.132812 266.917969 179.132812 269.25 C 179.132812 271.585938 177.246094 273.472656 174.917969 273.472656 Z M 174.917969 273.472656 " fill-opacity="1" fill-rule="nonzero"/><path fill="#3a3a3a" d="M 136.570312 294.898438 L 98.226562 294.898438 C 95.898438 294.898438 94.007812 293.011719 94.007812 290.679688 C 94.007812 288.347656 95.894531 286.460938 98.226562 286.460938 L 136.570312 286.460938 C 138.898438 286.460938 140.789062 288.347656 140.789062 290.679688 C 140.789062 293.011719 138.902344 294.898438 136.570312 294.898438 Z M 136.570312 294.898438 " fill-opacity="1" fill-rule="nonzero"/><path fill="#89cbbe" d="M 246.082031 150.152344 C 246.082031 152.878906 245.035156 155.617188 242.957031 157.703125 L 225.476562 175.183594 C 221.308594 179.351562 214.558594 179.351562 210.390625 175.183594 L 202.34375 167.132812 C 198.171875 162.964844 198.171875 156.203125 202.34375 152.039062 C 204.429688 149.960938 207.15625 148.914062 209.882812 148.914062 C 212.609375 148.914062 215.347656 149.960938 217.429688 152.039062 L 217.9375 152.550781 L 227.878906 142.609375 C 232.042969 138.441406 238.792969 138.441406 242.960938 142.609375 C 245.039062 144.695312 246.085938 147.421875 246.085938 150.15625 Z M 246.082031 150.152344 " fill-opacity="1" fill-rule="nonzero"/><path fill="#3a3a3a" d="M 217.933594 182.515625 C 214.125 182.515625 210.3125 181.0625 207.410156 178.160156 L 199.363281 170.109375 C 196.550781 167.300781 195.003906 163.5625 195.003906 159.578125 C 195.003906 155.597656 196.554688 151.859375 199.367188 149.050781 C 202.191406 146.238281 205.921875 144.691406 209.886719 144.691406 C 212.667969 144.691406 215.339844 145.449219 217.652344 146.871094 L 224.898438 139.621094 C 227.707031 136.8125 231.441406 135.261719 235.417969 135.261719 C 239.398438 135.261719 243.132812 136.8125 245.941406 139.621094 C 248.757812 142.445312 250.304688 146.183594 250.304688 150.152344 C 250.304688 154.121094 248.757812 157.859375 245.953125 160.679688 L 228.460938 178.164062 C 225.558594 181.066406 221.75 182.519531 217.9375 182.519531 Z M 209.882812 153.125 C 208.167969 153.125 206.542969 153.796875 205.320312 155.023438 C 204.101562 156.238281 203.429688 157.859375 203.429688 159.578125 C 203.429688 161.300781 204.101562 162.921875 205.320312 164.144531 L 213.367188 172.191406 C 215.878906 174.707031 219.972656 174.707031 222.492188 172.191406 L 239.972656 154.710938 C 241.1875 153.492188 241.863281 151.867188 241.863281 150.148438 C 241.863281 148.429688 241.191406 146.804688 239.96875 145.574219 C 238.753906 144.359375 237.132812 143.695312 235.410156 143.695312 C 233.6875 143.695312 232.066406 144.367188 230.847656 145.585938 L 220.910156 155.527344 C 219.265625 157.171875 216.59375 157.171875 214.949219 155.527344 L 214.4375 155.015625 C 213.21875 153.796875 211.597656 153.125 209.878906 153.125 Z M 209.882812 153.125 " fill-opacity="1" fill-rule="nonzero"/><path fill="#3a3a3a" d="M 346.714844 152.398438 L 270.023438 152.398438 C 267.695312 152.398438 265.804688 150.511719 265.804688 148.175781 C 265.804688 145.84375 267.691406 143.957031 270.023438 143.957031 L 346.714844 143.957031 C 349.042969 143.957031 350.933594 145.84375 350.933594 148.175781 C 350.933594 150.511719 349.046875 152.398438 346.714844 152.398438 Z M 346.714844 152.398438 " fill-opacity="1" fill-rule="nonzero"/><path fill="#3a3a3a" d="M 308.371094 173.824219 L 270.023438 173.824219 C 267.695312 173.824219 265.804688 171.9375 265.804688 169.605469 C 265.804688 167.273438 267.691406 165.386719 270.023438 165.386719 L 308.371094 165.386719 C 310.695312 165.386719 312.585938 167.273438 312.585938 169.605469 C 312.585938 171.9375 310.703125 173.824219 308.371094 173.824219 Z M 308.371094 173.824219 " fill-opacity="1" fill-rule="nonzero"/><path fill="#89cbbe" d="M 246.082031 210.691406 C 246.082031 213.417969 245.035156 216.152344 242.957031 218.238281 L 225.476562 235.722656 C 221.308594 239.890625 214.558594 239.890625 210.390625 235.722656 L 202.34375 227.671875 C 198.171875 223.503906 198.171875 216.742188 202.34375 212.578125 C 204.429688 210.5 207.15625 209.453125 209.882812 209.453125 C 212.609375 209.453125 215.347656 210.5 217.429688 212.578125 L 217.9375 213.085938 L 227.878906 203.144531 C 232.042969 198.976562 238.792969 198.976562 242.960938 203.144531 C 245.039062 205.230469 246.085938 207.957031 246.085938 210.695312 Z M 246.082031 210.691406 " fill-opacity="1" fill-rule="nonzero"/><path fill="#3a3a3a" d="M 217.933594 243.050781 C 214.125 243.050781 210.3125 241.601562 207.410156 238.699219 L 199.363281 230.648438 C 196.550781 227.839844 195.003906 224.097656 195.003906 220.117188 C 195.003906 216.136719 196.554688 212.398438 199.367188 209.585938 C 202.1875 206.777344 205.921875 205.226562 209.886719 205.226562 C 212.667969 205.226562 215.339844 205.988281 217.652344 207.40625 L 224.898438 200.160156 C 230.699219 194.355469 240.136719 194.355469 245.941406 200.160156 C 248.757812 202.984375 250.304688 206.722656 250.304688 210.691406 C 250.304688 214.660156 248.757812 218.398438 245.953125 221.214844 L 228.460938 238.703125 C 225.558594 241.605469 221.75 243.058594 217.9375 243.058594 Z M 209.882812 213.664062 C 208.167969 213.664062 206.542969 214.335938 205.320312 215.558594 C 204.101562 216.773438 203.429688 218.398438 203.429688 220.117188 C 203.429688 221.84375 204.101562 223.460938 205.320312 224.679688 L 213.367188 232.730469 C 215.878906 235.242188 219.972656 235.242188 222.492188 232.730469 L 239.972656 215.25 C 241.1875 214.027344 241.863281 212.40625 241.863281 210.683594 C 241.863281 208.964844 241.191406 207.34375 239.96875 206.113281 C 237.460938 203.605469 233.367188 203.605469 230.851562 206.117188 L 220.914062 216.058594 C 219.269531 217.707031 216.597656 217.707031 214.953125 216.058594 L 214.445312 215.550781 C 213.222656 214.332031 211.601562 213.65625 209.882812 213.65625 Z M 209.882812 213.664062 " fill-opacity="1" fill-rule="nonzero"/><path fill="#3a3a3a" d="M 346.714844 212.933594 L 270.023438 212.933594 C 267.695312 212.933594 265.804688 211.046875 265.804688 208.714844 C 265.804688 206.382812 267.691406 204.496094 270.023438 204.496094 L 346.714844 204.496094 C 349.042969 204.496094 350.933594 206.382812 350.933594 208.714844 C 350.933594 211.046875 349.046875 212.933594 346.714844 212.933594 Z M 346.714844 212.933594 " fill-opacity="1" fill-rule="nonzero"/><path fill="#3a3a3a" d="M 308.371094 234.363281 L 270.023438 234.363281 C 267.695312 234.363281 265.804688 232.476562 265.804688 230.144531 C 265.804688 227.808594 267.691406 225.921875 270.023438 225.921875 L 308.371094 225.921875 C 310.695312 225.921875 312.585938 227.808594 312.585938 230.144531 C 312.585938 232.476562 310.703125 234.363281 308.371094 234.363281 Z M 308.371094 234.363281 " fill-opacity="1" fill-rule="nonzero"/><path fill="#89cbbe" d="M 246.082031 271.226562 C 246.082031 273.953125 245.035156 276.691406 242.957031 278.777344 L 225.476562 296.257812 C 221.308594 300.425781 214.558594 300.425781 210.390625 296.257812 L 202.34375 288.207031 C 198.171875 284.039062 198.171875 277.277344 202.34375 273.113281 C 204.429688 271.035156 207.15625 269.988281 209.882812 269.988281 C 212.609375 269.988281 215.347656 271.039062 217.429688 273.113281 L 217.9375 273.625 L 227.878906 263.683594 C 232.042969 259.515625 238.792969 259.515625 242.960938 263.683594 C 245.039062 265.769531 246.085938 268.496094 246.085938 271.230469 Z M 246.082031 271.226562 " fill-opacity="1" fill-rule="nonzero"/><path fill="#3a3a3a" d="M 217.933594 303.589844 C 214.125 303.589844 210.3125 302.136719 207.410156 299.234375 L 199.363281 291.183594 C 196.550781 288.375 195.003906 284.636719 195.003906 280.65625 C 195.003906 276.675781 196.554688 272.933594 199.367188 270.125 C 202.191406 267.3125 205.921875 265.765625 209.886719 265.765625 C 212.667969 265.765625 215.339844 266.523438 217.652344 267.945312 L 224.898438 260.695312 C 230.699219 254.890625 240.136719 254.890625 245.941406 260.695312 C 248.757812 263.519531 250.304688 267.257812 250.304688 271.226562 C 250.304688 275.195312 248.757812 278.933594 245.953125 281.753906 L 228.460938 299.238281 C 225.558594 302.144531 221.75 303.59375 217.9375 303.59375 Z M 209.882812 274.203125 C 208.167969 274.203125 206.542969 274.875 205.320312 276.101562 C 204.101562 277.316406 203.429688 278.9375 203.429688 280.660156 C 203.429688 282.382812 204.101562 284.003906 205.320312 285.222656 L 213.367188 293.273438 C 215.886719 295.789062 219.972656 295.789062 222.492188 293.273438 L 239.972656 275.789062 C 241.1875 274.570312 241.863281 272.949219 241.863281 271.226562 C 241.863281 269.507812 241.191406 267.882812 239.96875 266.65625 C 237.460938 264.144531 233.367188 264.144531 230.851562 266.660156 L 220.914062 276.601562 C 219.269531 278.246094 216.597656 278.246094 214.953125 276.601562 L 214.445312 276.089844 C 213.222656 274.871094 211.601562 274.199219 209.882812 274.199219 Z M 209.882812 274.203125 " fill-opacity="1" fill-rule="nonzero"/><path fill="#3a3a3a" d="M 346.714844 273.472656 L 270.023438 273.472656 C 267.695312 273.472656 265.804688 271.585938 265.804688 269.25 C 265.804688 266.917969 267.691406 265.03125 270.023438 265.03125 L 346.714844 265.03125 C 349.042969 265.03125 350.933594 266.917969 350.933594 269.25 C 350.933594 271.585938 349.046875 273.472656 346.714844 273.472656 Z M 346.714844 273.472656 " fill-opacity="1" fill-rule="nonzero"/><path fill="#3a3a3a" d="M 308.371094 294.898438 L 270.023438 294.898438 C 267.695312 294.898438 265.804688 293.011719 265.804688 290.679688 C 265.804688 288.347656 267.691406 286.460938 270.023438 286.460938 L 308.371094 286.460938 C 310.695312 286.460938 312.585938 288.347656 312.585938 290.679688 C 312.585938 293.011719 310.703125 294.898438 308.371094 294.898438 Z M 308.371094 294.898438 " fill-opacity="1" fill-rule="nonzero"/></svg>