<svg xmlns="http://www.w3.org/2000/svg" xmlns:xlink="http://www.w3.org/1999/xlink" width="500" zoomAndPan="magnify" viewBox="0 0 375.12 383.03998" height="500" preserveAspectRatio="xMidYMid meet" version="1.0"><path fill="#261d1f" d="M 295.757812 359.894531 L 193.136719 349.398438 C 177.488281 347.800781 166.859375 333.015625 169.285156 316.421875 L 208.359375 49.179688 C 210.636719 33.628906 224.746094 21.402344 239.980469 21.828125 L 339.804688 24.617188 C 355.839844 25.066406 373.957031 41.570312 371.910156 57.613281 L 337.378906 329.53125 C 335.191406 346.671875 312.253906 361.582031 295.757812 359.894531 Z M 295.757812 359.894531 " fill-opacity="1" fill-rule="nonzero"/><path fill="#f7f8f9" d="M 299.316406 344.113281 L 193.960938 333.710938 C 183.101562 332.640625 175.699219 322.414062 177.375 310.894531 L 215.386719 49.464844 C 216.960938 38.640625 226.785156 30.140625 237.378906 30.457031 L 340.066406 33.527344 C 351.207031 33.859375 359.109375 43.171875 357.671875 54.347656 L 322.851562 324.554688 C 321.316406 336.476562 310.753906 345.242188 299.316406 344.113281 Z M 299.316406 344.113281 " fill-opacity="1" fill-rule="nonzero"/><path fill="#261d1f" d="M 258.40625 26.355469 L 266.808594 37.820312 L 309.546875 39.160156 L 319.585938 28.121094 Z M 258.40625 26.355469 " fill-opacity="1" fill-rule="nonzero"/><path fill="#e8ebed" d="M 224.566406 65.402344 L 212.472656 143.855469 L 326.71875 152.617188 L 337.144531 71.664062 Z M 224.566406 65.402344 " fill-opacity="1" fill-rule="nonzero"/><path fill="#e8ebed" d="M 205.382812 208.535156 L 193.292969 286.988281 L 307.539062 295.75 L 317.964844 214.796875 Z M 205.382812 208.535156 " fill-opacity="1" fill-rule="nonzero"/><path fill="#e8ebed" d="M 211.640625 161.382812 L 210.386719 172.230469 L 322.550781 180.992188 L 324.21875 167.640625 Z M 211.640625 161.382812 " fill-opacity="1" fill-rule="nonzero"/><path fill="#e8ebed" d="M 208.304688 186 L 207.050781 196.851562 L 319.214844 205.613281 L 320.882812 192.261719 Z M 208.304688 186 " fill-opacity="1" fill-rule="nonzero"/><path fill="#6c49c1" d="M 230.078125 203.039062 L 221.917969 259.121094 C 221.132812 264.929688 229.566406 266.734375 231.082031 262.976562 C 231.742188 261.332031 255.59375 204.617188 255.59375 204.617188 Z M 230.078125 203.039062 " fill-opacity="1" fill-rule="nonzero"/><path fill="#e8ebed" d="M 171.28125 68.535156 C 171.28125 68.535156 223.476562 128.476562 271.941406 147.886719 C 297.363281 158.070312 278.972656 215.78125 252.75 209.574219 C 222.1875 202.335938 186.515625 198.679688 127.226562 214.648438 Z M 171.28125 68.535156 " fill-opacity="1" fill-rule="nonzero"/><path fill="#6c49c1" d="M 167.566406 58.820312 C 168.203125 59.003906 168.832031 59.222656 169.449219 59.472656 C 170.066406 59.722656 170.671875 60.003906 171.269531 60.316406 C 171.867188 60.628906 172.453125 60.976562 173.027344 61.351562 C 173.597656 61.730469 174.160156 62.136719 174.710938 62.578125 C 175.261719 63.015625 175.800781 63.484375 176.324219 63.984375 C 176.847656 64.484375 177.359375 65.015625 177.859375 65.578125 C 178.359375 66.136719 178.84375 66.726562 179.3125 67.347656 C 179.785156 67.964844 180.242188 68.613281 180.683594 69.289062 C 181.125 69.964844 181.550781 70.667969 181.964844 71.402344 C 182.375 72.132812 182.773438 72.890625 183.15625 73.679688 C 183.535156 74.464844 183.902344 75.273438 184.25 76.113281 C 184.601562 76.949219 184.933594 77.8125 185.25 78.699219 C 185.566406 79.585938 185.867188 80.5 186.152344 81.433594 C 186.4375 82.371094 186.703125 83.328125 186.953125 84.308594 C 187.203125 85.289062 187.433594 86.292969 187.648438 87.316406 C 187.863281 88.339844 188.0625 89.382812 188.242188 90.449219 C 188.421875 91.511719 188.582031 92.597656 188.726562 93.699219 C 188.871094 94.800781 188.996094 95.921875 189.105469 97.058594 C 189.210938 98.199219 189.300781 99.351562 189.375 100.523438 C 189.445312 101.695312 189.5 102.878906 189.535156 104.082031 C 189.570312 105.28125 189.589844 106.496094 189.585938 107.722656 C 189.585938 108.953125 189.566406 110.191406 189.53125 111.441406 C 189.492188 112.695312 189.4375 113.957031 189.363281 115.230469 C 189.289062 116.503906 189.199219 117.785156 189.085938 119.074219 C 188.976562 120.367188 188.847656 121.664062 188.703125 122.96875 C 188.558594 124.273438 188.394531 125.585938 188.210938 126.902344 C 188.03125 128.222656 187.832031 129.542969 187.613281 130.867188 C 187.398438 132.195312 187.164062 133.523438 186.914062 134.855469 C 186.660156 136.183594 186.394531 137.515625 186.109375 138.851562 C 185.824219 140.183594 185.519531 141.515625 185.203125 142.847656 C 184.882812 144.179688 184.546875 145.511719 184.195312 146.839844 C 183.84375 148.167969 183.476562 149.492188 183.09375 150.8125 C 182.710938 152.132812 182.3125 153.449219 181.898438 154.757812 C 181.484375 156.066406 181.058594 157.371094 180.613281 158.664062 C 180.171875 159.960938 179.710938 161.25 179.238281 162.527344 C 178.769531 163.808594 178.28125 165.074219 177.78125 166.335938 C 177.28125 167.59375 176.769531 168.839844 176.242188 170.078125 C 175.714844 171.3125 175.175781 172.535156 174.625 173.746094 C 174.074219 174.957031 173.511719 176.152344 172.9375 177.332031 C 172.359375 178.511719 171.773438 179.675781 171.175781 180.828125 C 170.578125 181.976562 169.96875 183.109375 169.351562 184.222656 C 168.734375 185.335938 168.105469 186.433594 167.46875 187.511719 C 166.828125 188.585938 166.183594 189.644531 165.527344 190.683594 C 164.871094 191.71875 164.207031 192.734375 163.53125 193.730469 C 162.859375 194.726562 162.179688 195.699219 161.492188 196.648438 C 160.804688 197.597656 160.113281 198.527344 159.414062 199.429688 C 158.710938 200.332031 158.007812 201.210938 157.292969 202.066406 C 156.582031 202.917969 155.867188 203.746094 155.144531 204.550781 C 154.425781 205.351562 153.699219 206.128906 152.96875 206.878906 C 152.238281 207.628906 151.507812 208.351562 150.773438 209.046875 C 150.035156 209.738281 149.300781 210.40625 148.558594 211.042969 C 147.820312 211.683594 147.078125 212.289062 146.335938 212.871094 C 145.59375 213.449219 144.851562 214 144.105469 214.519531 C 143.363281 215.039062 142.621094 215.53125 141.878906 215.988281 C 141.136719 216.449219 140.394531 216.875 139.65625 217.273438 C 138.914062 217.671875 138.175781 218.035156 137.441406 218.371094 C 136.707031 218.707031 135.976562 219.007812 135.246094 219.277344 C 134.515625 219.546875 133.792969 219.789062 133.070312 219.992188 C 132.351562 220.199219 131.636719 220.375 130.921875 220.515625 C 130.210938 220.65625 129.507812 220.765625 128.808594 220.839844 C 128.109375 220.917969 127.414062 220.960938 126.730469 220.96875 C 126.042969 220.980469 125.363281 220.960938 124.691406 220.90625 C 124.019531 220.851562 123.355469 220.761719 122.703125 220.640625 C 122.046875 220.523438 121.398438 220.371094 120.761719 220.183594 C 120.125 220 119.5 219.78125 118.882812 219.53125 C 118.261719 219.28125 117.65625 219 117.058594 218.6875 C 116.464844 218.375 115.878906 218.027344 115.304688 217.652344 C 114.730469 217.273438 114.167969 216.867188 113.617188 216.425781 C 113.066406 215.988281 112.53125 215.519531 112.003906 215.019531 C 111.480469 214.519531 110.96875 213.988281 110.46875 213.425781 C 109.972656 212.867188 109.488281 212.277344 109.015625 211.65625 C 108.546875 211.039062 108.089844 210.390625 107.644531 209.714844 C 107.203125 209.039062 106.777344 208.335938 106.363281 207.601562 C 105.953125 206.871094 105.554688 206.113281 105.175781 205.324219 C 104.792969 204.539062 104.429688 203.730469 104.078125 202.890625 C 103.730469 202.054688 103.394531 201.191406 103.078125 200.304688 C 102.761719 199.417969 102.460938 198.503906 102.175781 197.570312 C 101.894531 196.632812 101.628906 195.675781 101.378906 194.695312 C 101.128906 193.714844 100.894531 192.710938 100.679688 191.6875 C 100.464844 190.664062 100.269531 189.621094 100.089844 188.554688 C 99.910156 187.492188 99.746094 186.40625 99.605469 185.304688 C 99.460938 184.203125 99.332031 183.082031 99.226562 181.945312 C 99.117188 180.804688 99.027344 179.652344 98.957031 178.480469 C 98.882812 177.308594 98.828125 176.125 98.792969 174.921875 C 98.757812 173.722656 98.742188 172.507812 98.742188 171.28125 C 98.742188 170.050781 98.761719 168.8125 98.800781 167.5625 C 98.835938 166.308594 98.894531 165.046875 98.964844 163.773438 C 99.039062 162.5 99.132812 161.21875 99.242188 159.929688 C 99.351562 158.636719 99.480469 157.339844 99.625 156.035156 C 99.773438 154.730469 99.9375 153.417969 100.117188 152.101562 C 100.300781 150.78125 100.5 149.460938 100.714844 148.136719 C 100.933594 146.808594 101.164062 145.480469 101.417969 144.148438 C 101.667969 142.820312 101.9375 141.488281 102.222656 140.152344 C 102.507812 138.820312 102.808594 137.488281 103.128906 136.15625 C 103.445312 134.824219 103.78125 133.492188 104.132812 132.164062 C 104.484375 130.835938 104.851562 129.511719 105.234375 128.191406 C 105.617188 126.871094 106.015625 125.554688 106.429688 124.246094 C 106.84375 122.9375 107.273438 121.632812 107.714844 120.339844 C 108.160156 119.042969 108.617188 117.753906 109.089844 116.476562 C 109.5625 115.195312 110.046875 113.929688 110.546875 112.667969 C 111.046875 111.410156 111.5625 110.164062 112.085938 108.925781 C 112.613281 107.691406 113.152344 106.46875 113.703125 105.257812 C 114.253906 104.046875 114.820312 102.851562 115.394531 101.671875 C 115.96875 100.492188 116.554688 99.328125 117.152344 98.175781 C 117.75 97.027344 118.359375 95.894531 118.976562 94.78125 C 119.597656 93.667969 120.226562 92.570312 120.863281 91.492188 C 121.5 90.417969 122.148438 89.359375 122.804688 88.320312 C 123.460938 87.285156 124.125 86.269531 124.796875 85.273438 C 125.46875 84.277344 126.148438 83.304688 126.835938 82.355469 C 127.523438 81.40625 128.21875 80.476562 128.917969 79.574219 C 129.617188 78.671875 130.324219 77.792969 131.035156 76.9375 C 131.746094 76.085938 132.464844 75.257812 133.183594 74.453125 C 133.90625 73.652344 134.632812 72.875 135.359375 72.125 C 136.089844 71.375 136.820312 70.652344 137.558594 69.957031 C 138.292969 69.265625 139.03125 68.597656 139.769531 67.960938 C 140.511719 67.320312 141.25 66.714844 141.992188 66.132812 C 142.738281 65.554688 143.480469 65.003906 144.222656 64.484375 C 144.964844 63.964844 145.710938 63.472656 146.453125 63.015625 C 147.195312 62.554688 147.933594 62.128906 148.675781 61.730469 C 149.414062 61.332031 150.152344 60.96875 150.886719 60.632812 C 151.621094 60.296875 152.355469 59.996094 153.082031 59.726562 C 153.8125 59.457031 154.535156 59.214844 155.257812 59.011719 C 155.980469 58.804688 156.695312 58.628906 157.40625 58.488281 C 158.117188 58.347656 158.824219 58.238281 159.523438 58.164062 C 160.222656 58.085938 160.914062 58.042969 161.601562 58.035156 C 162.289062 58.023438 162.964844 58.042969 163.636719 58.097656 C 164.308594 58.152344 164.972656 58.242188 165.628906 58.363281 C 166.285156 58.480469 166.929688 58.632812 167.566406 58.820312 Z M 167.566406 58.820312 " fill-opacity="1" fill-rule="nonzero"/><path fill="#261d1f" d="M 165.367188 80.597656 C 166.273438 80.863281 167.144531 81.222656 167.988281 81.679688 C 168.832031 82.136719 169.644531 82.691406 170.417969 83.339844 C 171.191406 83.988281 171.925781 84.726562 172.625 85.558594 C 173.324219 86.390625 173.976562 87.3125 174.59375 88.320312 C 175.207031 89.328125 175.777344 90.417969 176.300781 91.59375 C 176.824219 92.769531 177.300781 94.023438 177.734375 95.351562 C 178.164062 96.679688 178.542969 98.082031 178.875 99.554688 C 179.207031 101.027344 179.488281 102.5625 179.71875 104.164062 C 179.945312 105.761719 180.125 107.421875 180.25 109.132812 C 180.375 110.847656 180.449219 112.605469 180.46875 114.417969 C 180.488281 116.226562 180.457031 118.074219 180.371094 119.960938 C 180.285156 121.851562 180.148438 123.769531 179.960938 125.71875 C 179.769531 127.664062 179.527344 129.636719 179.238281 131.625 C 178.945312 133.617188 178.601562 135.617188 178.210938 137.628906 C 177.816406 139.644531 177.375 141.660156 176.886719 143.675781 C 176.398438 145.691406 175.863281 147.699219 175.285156 149.699219 C 174.703125 151.699219 174.082031 153.683594 173.414062 155.648438 C 172.75 157.613281 172.042969 159.550781 171.296875 161.460938 C 170.550781 163.371094 169.769531 165.246094 168.953125 167.082031 C 168.132812 168.921875 167.285156 170.714844 166.402344 172.460938 C 165.519531 174.207031 164.609375 175.902344 163.671875 177.542969 C 162.734375 179.183594 161.769531 180.761719 160.785156 182.277344 C 159.800781 183.792969 158.796875 185.242188 157.773438 186.621094 C 156.75 188 155.714844 189.304688 154.664062 190.535156 C 153.613281 191.761719 152.554688 192.910156 151.488281 193.976562 C 150.421875 195.042969 149.351562 196.019531 148.273438 196.914062 C 147.199219 197.804688 146.128906 198.609375 145.054688 199.320312 C 143.984375 200.03125 142.917969 200.644531 141.859375 201.167969 C 140.804688 201.691406 139.757812 202.117188 138.722656 202.445312 C 137.6875 202.777344 136.671875 203.007812 135.667969 203.136719 C 134.667969 203.269531 133.691406 203.304688 132.730469 203.238281 C 131.773438 203.171875 130.84375 203.007812 129.9375 202.746094 C 129.035156 202.484375 128.160156 202.121094 127.316406 201.664062 C 126.472656 201.207031 125.664062 200.65625 124.886719 200.007812 C 124.113281 199.359375 123.378906 198.617188 122.679688 197.785156 C 121.980469 196.953125 121.328125 196.035156 120.710938 195.023438 C 120.097656 194.015625 119.527344 192.925781 119.003906 191.75 C 118.480469 190.574219 118.003906 189.324219 117.574219 187.992188 C 117.140625 186.664062 116.761719 185.261719 116.429688 183.789062 C 116.097656 182.316406 115.816406 180.78125 115.589844 179.183594 C 115.359375 177.582031 115.179688 175.925781 115.054688 174.210938 C 114.929688 172.5 114.855469 170.738281 114.835938 168.929688 C 114.816406 167.121094 114.847656 165.269531 114.933594 163.382812 C 115.019531 161.496094 115.15625 159.578125 115.34375 157.628906 C 115.535156 155.679688 115.777344 153.710938 116.070312 151.71875 C 116.359375 149.730469 116.703125 147.726562 117.097656 145.714844 C 117.488281 143.699219 117.929688 141.6875 118.417969 139.667969 C 118.90625 137.652344 119.441406 135.644531 120.019531 133.644531 C 120.601562 131.644531 121.222656 129.664062 121.890625 127.699219 C 122.554688 125.734375 123.261719 123.792969 124.007812 121.882812 C 124.753906 119.972656 125.535156 118.101562 126.351562 116.261719 C 127.171875 114.425781 128.019531 112.632812 128.902344 110.882812 C 129.785156 109.136719 130.695312 107.441406 131.632812 105.804688 C 132.570312 104.164062 133.535156 102.585938 134.519531 101.066406 C 135.503906 99.550781 136.507812 98.101562 137.53125 96.722656 C 138.554688 95.34375 139.589844 94.039062 140.640625 92.8125 C 141.691406 91.582031 142.75 90.433594 143.816406 89.371094 C 144.882812 88.304688 145.957031 87.324219 147.03125 86.433594 C 148.105469 85.539062 149.179688 84.738281 150.25 84.027344 C 151.320312 83.316406 152.386719 82.699219 153.445312 82.175781 C 154.503906 81.652344 155.546875 81.226562 156.582031 80.898438 C 157.617188 80.570312 158.636719 80.339844 159.636719 80.207031 C 160.636719 80.074219 161.617188 80.039062 162.574219 80.105469 C 163.53125 80.171875 164.460938 80.335938 165.367188 80.597656 Z M 165.367188 80.597656 " fill-opacity="1" fill-rule="nonzero"/><path fill="#ea394a" d="M 239.710938 130.050781 C 239.710938 130.050781 255.3125 147.289062 243.707031 176.082031 C 232.101562 204.875 217.863281 203.984375 217.863281 203.984375 L 223.828125 207.359375 C 223.828125 207.359375 252.617188 210.78125 262.011719 211.855469 C 294.6875 215.585938 305.53125 164.503906 285.328125 152.566406 C 276.824219 147.539062 247.316406 131.398438 247.316406 131.398438 Z M 239.710938 130.050781 " fill-opacity="1" fill-rule="nonzero"/><path fill="#e8ebed" d="M 198.863281 303.308594 L 211.097656 304.507812 C 213.917969 304.785156 215.9375 307.355469 215.539062 310.160156 L 214.4375 317.949219 C 214.0625 320.605469 211.65625 322.484375 208.992188 322.203125 L 196.757812 320.914062 C 193.953125 320.617188 191.957031 318.050781 192.355469 315.257812 L 193.453125 307.558594 C 193.832031 304.921875 196.214844 303.046875 198.863281 303.308594 Z M 198.863281 303.308594 " fill-opacity="1" fill-rule="nonzero"/><path fill="#e8ebed" d="M 227.027344 306.074219 L 239.828125 307.339844 C 242.644531 307.621094 244.664062 310.191406 244.265625 312.996094 L 243.128906 320.996094 C 242.75 323.652344 240.34375 325.53125 237.679688 325.246094 L 225.046875 323.90625 C 222.28125 323.613281 220.296875 321.113281 220.632812 318.355469 L 221.597656 310.425781 C 221.925781 307.742188 224.335938 305.808594 227.027344 306.074219 Z M 227.027344 306.074219 " fill-opacity="1" fill-rule="nonzero"/><path fill="#e8ebed" d="M 255.75 308.914062 L 268.167969 310.144531 C 270.957031 310.417969 272.96875 312.949219 272.613281 315.734375 L 271.550781 323.96875 C 271.207031 326.652344 268.78125 328.570312 266.089844 328.28125 L 253.730469 326.957031 C 250.96875 326.664062 248.984375 324.160156 249.324219 321.402344 L 250.324219 313.261719 C 250.652344 310.578125 253.0625 308.648438 255.75 308.914062 Z M 255.75 308.914062 " fill-opacity="1" fill-rule="nonzero"/><path fill="#e8ebed" d="M 303.507812 318.816406 L 302.355469 327.269531 C 301.992188 329.9375 299.578125 331.832031 296.902344 331.546875 L 282.152344 329.992188 C 279.414062 329.703125 277.429688 327.238281 277.730469 324.496094 L 278.648438 316.125 C 278.945312 313.414062 281.367188 311.445312 284.082031 311.714844 L 299.0625 313.1875 C 301.871094 313.464844 303.886719 316.019531 303.507812 318.816406 Z M 303.507812 318.816406 " fill-opacity="1" fill-rule="nonzero"/><path fill="#ea394a" d="M 91.109375 262.398438 L 110.394531 255.671875 C 110.9375 255.480469 111.492188 255.347656 112.0625 255.265625 C 112.632812 255.1875 113.203125 255.164062 113.777344 255.195312 C 114.351562 255.230469 114.917969 255.316406 115.472656 255.460938 C 116.03125 255.605469 116.570312 255.804688 117.085938 256.054688 C 117.605469 256.304688 118.09375 256.605469 118.550781 256.949219 C 119.011719 257.296875 119.433594 257.683594 119.816406 258.113281 C 120.199219 258.542969 120.535156 259.007812 120.828125 259.503906 C 121.117188 260 121.359375 260.519531 121.546875 261.0625 L 125.535156 272.515625 C 125.726562 273.0625 125.859375 273.617188 125.941406 274.1875 C 126.019531 274.757812 126.042969 275.332031 126.011719 275.90625 C 125.976562 276.480469 125.890625 277.046875 125.746094 277.601562 C 125.601562 278.160156 125.402344 278.699219 125.152344 279.214844 C 124.902344 279.734375 124.605469 280.222656 124.257812 280.683594 C 123.910156 281.140625 123.523438 281.5625 123.09375 281.945312 C 122.664062 282.328125 122.203125 282.667969 121.707031 282.957031 C 121.210938 283.25 120.691406 283.492188 120.148438 283.679688 L 100.863281 290.40625 C 100.320312 290.597656 99.765625 290.730469 99.195312 290.8125 C 98.625 290.890625 98.050781 290.914062 97.476562 290.882812 C 96.902344 290.847656 96.339844 290.761719 95.78125 290.617188 C 95.226562 290.472656 94.6875 290.273438 94.171875 290.023438 C 93.652344 289.773438 93.164062 289.472656 92.703125 289.128906 C 92.246094 288.78125 91.824219 288.394531 91.441406 287.964844 C 91.058594 287.535156 90.722656 287.070312 90.429688 286.574219 C 90.140625 286.078125 89.898438 285.558594 89.707031 285.015625 L 85.71875 273.5625 C 85.53125 273.015625 85.394531 272.460938 85.316406 271.890625 C 85.238281 271.320312 85.214844 270.75 85.246094 270.171875 C 85.277344 269.597656 85.367188 269.03125 85.511719 268.476562 C 85.65625 267.917969 85.855469 267.378906 86.105469 266.863281 C 86.355469 266.34375 86.652344 265.855469 87 265.394531 C 87.34375 264.9375 87.734375 264.515625 88.164062 264.132812 C 88.589844 263.75 89.054688 263.410156 89.550781 263.121094 C 90.046875 262.828125 90.566406 262.585938 91.109375 262.398438 Z M 91.109375 262.398438 " fill-opacity="1" fill-rule="nonzero"/><path fill="#6c49c1" d="M 24.664062 217.285156 L 43.535156 209.464844 C 44.066406 209.246094 44.613281 209.078125 45.175781 208.96875 C 45.742188 208.855469 46.3125 208.800781 46.886719 208.800781 C 47.460938 208.800781 48.03125 208.855469 48.59375 208.96875 C 49.160156 209.082031 49.707031 209.246094 50.238281 209.46875 C 50.769531 209.6875 51.273438 209.957031 51.753906 210.277344 C 52.230469 210.597656 52.671875 210.960938 53.078125 211.367188 C 53.484375 211.773438 53.847656 212.21875 54.167969 212.695312 C 54.488281 213.175781 54.757812 213.679688 54.976562 214.210938 L 59.613281 225.421875 C 59.835938 225.953125 60 226.5 60.113281 227.066406 C 60.222656 227.628906 60.28125 228.199219 60.28125 228.773438 C 60.28125 229.351562 60.222656 229.921875 60.113281 230.484375 C 60 231.050781 59.832031 231.597656 59.613281 232.128906 C 59.394531 232.660156 59.121094 233.167969 58.804688 233.644531 C 58.484375 234.125 58.121094 234.566406 57.714844 234.972656 C 57.308594 235.378906 56.863281 235.742188 56.386719 236.0625 C 55.90625 236.382812 55.402344 236.652344 54.871094 236.871094 L 36 244.691406 C 35.46875 244.910156 34.921875 245.078125 34.359375 245.191406 C 33.792969 245.300781 33.226562 245.359375 32.648438 245.359375 C 32.074219 245.359375 31.503906 245.300781 30.941406 245.191406 C 30.375 245.078125 29.828125 244.910156 29.296875 244.691406 C 28.765625 244.46875 28.261719 244.199219 27.785156 243.878906 C 27.304688 243.558594 26.863281 243.195312 26.457031 242.789062 C 26.050781 242.382812 25.6875 241.941406 25.367188 241.460938 C 25.046875 240.980469 24.777344 240.476562 24.558594 239.945312 L 19.921875 228.738281 C 19.703125 228.207031 19.535156 227.65625 19.421875 227.09375 C 19.3125 226.527344 19.253906 225.957031 19.253906 225.382812 C 19.253906 224.808594 19.3125 224.238281 19.425781 223.671875 C 19.535156 223.109375 19.703125 222.558594 19.921875 222.027344 C 20.144531 221.496094 20.414062 220.992188 20.734375 220.511719 C 21.050781 220.035156 21.414062 219.589844 21.820312 219.183594 C 22.230469 218.777344 22.671875 218.414062 23.148438 218.09375 C 23.628906 217.773438 24.132812 217.503906 24.664062 217.285156 Z M 24.664062 217.285156 " fill-opacity="1" fill-rule="nonzero"/><path fill="#ea394a" d="M 113.9375 15.507812 L 133.550781 21.207031 C 134.105469 21.367188 134.636719 21.582031 135.148438 21.84375 C 135.65625 22.109375 136.136719 22.421875 136.585938 22.78125 C 137.035156 23.144531 137.445312 23.542969 137.8125 23.984375 C 138.183594 24.425781 138.507812 24.894531 138.785156 25.402344 C 139.0625 25.90625 139.289062 26.433594 139.460938 26.980469 C 139.636719 27.527344 139.753906 28.089844 139.816406 28.660156 C 139.878906 29.234375 139.886719 29.808594 139.835938 30.378906 C 139.789062 30.953125 139.683594 31.515625 139.523438 32.070312 L 136.144531 43.71875 C 135.984375 44.273438 135.769531 44.804688 135.503906 45.3125 C 135.242188 45.824219 134.929688 46.304688 134.570312 46.753906 C 134.210938 47.203125 133.808594 47.613281 133.371094 47.984375 C 132.929688 48.355469 132.457031 48.679688 131.953125 48.957031 C 131.449219 49.234375 130.921875 49.460938 130.375 49.632812 C 129.828125 49.804688 129.265625 49.925781 128.695312 49.988281 C 128.125 50.050781 127.550781 50.058594 126.976562 50.007812 C 126.40625 49.960938 125.84375 49.855469 125.289062 49.695312 L 105.675781 43.996094 C 105.125 43.835938 104.59375 43.621094 104.082031 43.355469 C 103.570312 43.09375 103.09375 42.78125 102.644531 42.417969 C 102.195312 42.058594 101.785156 41.660156 101.414062 41.21875 C 101.042969 40.777344 100.71875 40.304688 100.441406 39.800781 C 100.167969 39.296875 99.941406 38.769531 99.765625 38.222656 C 99.59375 37.671875 99.476562 37.113281 99.410156 36.539062 C 99.347656 35.96875 99.34375 35.394531 99.390625 34.824219 C 99.441406 34.25 99.546875 33.6875 99.707031 33.132812 L 103.085938 21.484375 C 103.246094 20.929688 103.457031 20.398438 103.722656 19.886719 C 103.988281 19.378906 104.300781 18.898438 104.660156 18.449219 C 105.019531 18 105.417969 17.589844 105.859375 17.21875 C 106.300781 16.847656 106.769531 16.523438 107.277344 16.246094 C 107.78125 15.96875 108.304688 15.742188 108.855469 15.570312 C 109.402344 15.394531 109.960938 15.277344 110.535156 15.214844 C 111.105469 15.152344 111.679688 15.144531 112.25 15.195312 C 112.824219 15.242188 113.386719 15.347656 113.9375 15.507812 Z M 113.9375 15.507812 " fill-opacity="1" fill-rule="nonzero"/><path fill="#f7f8f9" d="M 112.273438 267.359375 C 114.246094 273.015625 108.234375 280.597656 108.234375 280.597656 C 108.234375 280.597656 98.695312 278.035156 96.851562 272.738281 C 95.289062 268.253906 102.316406 265.101562 104.300781 269.359375 L 104.347656 269.339844 C 103.253906 264.773438 110.710938 262.871094 112.273438 267.359375 Z M 112.273438 267.359375 " fill-opacity="1" fill-rule="nonzero"/><path fill="#ea394a" d="M 59.722656 76.449219 L 79.894531 79.640625 C 80.460938 79.730469 81.015625 79.875 81.554688 80.074219 C 82.09375 80.273438 82.609375 80.523438 83.101562 80.824219 C 83.589844 81.125 84.046875 81.46875 84.46875 81.859375 C 84.890625 82.25 85.273438 82.679688 85.609375 83.144531 C 85.949219 83.609375 86.238281 84.105469 86.480469 84.625 C 86.71875 85.148438 86.910156 85.691406 87.042969 86.25 C 87.175781 86.808594 87.253906 87.375 87.277344 87.953125 C 87.300781 88.527344 87.269531 89.097656 87.179688 89.667969 L 85.285156 101.648438 C 85.195312 102.21875 85.050781 102.773438 84.851562 103.3125 C 84.652344 103.851562 84.402344 104.367188 84.101562 104.859375 C 83.800781 105.347656 83.457031 105.804688 83.066406 106.230469 C 82.675781 106.652344 82.25 107.03125 81.785156 107.371094 C 81.316406 107.710938 80.824219 108 80.300781 108.238281 C 79.78125 108.480469 79.238281 108.667969 78.679688 108.804688 C 78.121094 108.9375 77.554688 109.015625 76.980469 109.039062 C 76.40625 109.0625 75.832031 109.027344 75.265625 108.9375 L 55.09375 105.746094 C 54.523438 105.65625 53.96875 105.511719 53.429688 105.3125 C 52.890625 105.113281 52.375 104.863281 51.886719 104.5625 C 51.394531 104.261719 50.9375 103.917969 50.515625 103.527344 C 50.09375 103.136719 49.714844 102.707031 49.375 102.242188 C 49.039062 101.777344 48.746094 101.28125 48.507812 100.761719 C 48.265625 100.238281 48.078125 99.695312 47.945312 99.136719 C 47.808594 98.578125 47.730469 98.007812 47.707031 97.433594 C 47.683594 96.859375 47.71875 96.285156 47.808594 95.71875 L 49.703125 83.738281 C 49.792969 83.167969 49.9375 82.613281 50.132812 82.074219 C 50.332031 81.535156 50.582031 81.019531 50.882812 80.527344 C 51.183594 80.035156 51.53125 79.582031 51.917969 79.15625 C 52.308594 78.734375 52.738281 78.355469 53.203125 78.015625 C 53.667969 77.675781 54.160156 77.386719 54.683594 77.144531 C 55.207031 76.90625 55.746094 76.71875 56.304688 76.582031 C 56.867188 76.449219 57.433594 76.371094 58.007812 76.347656 C 58.582031 76.324219 59.152344 76.359375 59.722656 76.449219 Z M 59.722656 76.449219 " fill-opacity="1" fill-rule="nonzero"/><path fill="#ea394a" d="M 8.988281 147.863281 L 29.28125 145.570312 C 29.851562 145.503906 30.425781 145.496094 30.996094 145.542969 C 31.570312 145.59375 32.132812 145.695312 32.6875 145.855469 C 33.238281 146.015625 33.769531 146.226562 34.28125 146.492188 C 34.792969 146.753906 35.273438 147.066406 35.722656 147.425781 C 36.171875 147.785156 36.582031 148.183594 36.953125 148.621094 C 37.324219 149.0625 37.652344 149.535156 37.929688 150.039062 C 38.207031 150.542969 38.433594 151.066406 38.609375 151.617188 C 38.785156 152.164062 38.902344 152.726562 38.96875 153.296875 L 40.328125 165.351562 C 40.390625 165.921875 40.398438 166.496094 40.351562 167.070312 C 40.304688 167.640625 40.199219 168.207031 40.042969 168.757812 C 39.882812 169.3125 39.671875 169.84375 39.40625 170.355469 C 39.144531 170.867188 38.832031 171.347656 38.472656 171.796875 C 38.113281 172.25 37.714844 172.660156 37.277344 173.03125 C 36.835938 173.402344 36.367188 173.726562 35.863281 174.003906 C 35.359375 174.285156 34.832031 174.511719 34.285156 174.6875 C 33.738281 174.859375 33.179688 174.980469 32.605469 175.042969 L 12.3125 177.339844 C 11.742188 177.402344 11.167969 177.410156 10.59375 177.363281 C 10.023438 177.3125 9.460938 177.210938 8.90625 177.050781 C 8.355469 176.890625 7.820312 176.679688 7.3125 176.417969 C 6.800781 176.152344 6.320312 175.839844 5.871094 175.480469 C 5.421875 175.125 5.007812 174.722656 4.636719 174.285156 C 4.265625 173.84375 3.941406 173.371094 3.664062 172.871094 C 3.386719 172.367188 3.160156 171.839844 2.984375 171.292969 C 2.808594 170.742188 2.691406 170.183594 2.625 169.609375 L 1.265625 157.558594 C 1.199219 156.984375 1.191406 156.414062 1.242188 155.839844 C 1.289062 155.265625 1.394531 154.703125 1.550781 154.148438 C 1.710938 153.59375 1.921875 153.0625 2.1875 152.550781 C 2.449219 152.039062 2.761719 151.558594 3.121094 151.109375 C 3.480469 150.660156 3.878906 150.25 4.316406 149.878906 C 4.757812 149.503906 5.226562 149.179688 5.730469 148.902344 C 6.234375 148.625 6.757812 148.398438 7.308594 148.222656 C 7.855469 148.046875 8.414062 147.925781 8.988281 147.863281 Z M 8.988281 147.863281 " fill-opacity="1" fill-rule="nonzero"/><path fill="#f7f8f9" d="M 76.035156 90.828125 C 75.101562 96.746094 66.226562 100.585938 66.226562 100.585938 C 66.226562 100.585938 59.027344 93.816406 59.902344 88.277344 C 60.644531 83.582031 68.324219 84.128906 68.066406 88.820312 L 68.113281 88.828125 C 69.304688 84.285156 76.777344 86.136719 76.035156 90.828125 Z M 76.035156 90.828125 " fill-opacity="1" fill-rule="nonzero"/><path fill="#6c49c1" d="M 27.035156 22.566406 L 42.804688 25.0625 C 43.25 25.132812 43.683594 25.246094 44.105469 25.402344 C 44.523438 25.554688 44.929688 25.75 45.3125 25.988281 C 45.695312 26.222656 46.050781 26.492188 46.382812 26.796875 C 46.710938 27.101562 47.007812 27.4375 47.273438 27.800781 C 47.535156 28.164062 47.761719 28.550781 47.953125 28.957031 C 48.140625 29.367188 48.285156 29.789062 48.390625 30.226562 C 48.496094 30.664062 48.558594 31.109375 48.574219 31.558594 C 48.59375 32.007812 48.566406 32.453125 48.496094 32.898438 L 47.015625 42.265625 C 46.945312 42.710938 46.832031 43.144531 46.679688 43.566406 C 46.523438 43.988281 46.328125 44.390625 46.09375 44.773438 C 45.859375 45.160156 45.589844 45.515625 45.285156 45.847656 C 44.976562 46.175781 44.644531 46.472656 44.28125 46.738281 C 43.917969 47.003906 43.53125 47.230469 43.125 47.417969 C 42.714844 47.605469 42.292969 47.753906 41.855469 47.859375 C 41.417969 47.960938 40.976562 48.023438 40.527344 48.042969 C 40.078125 48.058594 39.632812 48.035156 39.1875 47.964844 L 23.414062 45.46875 C 22.972656 45.398438 22.539062 45.285156 22.117188 45.128906 C 21.695312 44.972656 21.292969 44.777344 20.910156 44.542969 C 20.527344 44.308594 20.171875 44.039062 19.839844 43.734375 C 19.511719 43.425781 19.214844 43.09375 18.949219 42.730469 C 18.683594 42.367188 18.457031 41.980469 18.269531 41.570312 C 18.082031 41.164062 17.933594 40.738281 17.832031 40.300781 C 17.726562 39.863281 17.664062 39.421875 17.644531 38.972656 C 17.628906 38.523438 17.65625 38.078125 17.722656 37.632812 L 19.203125 28.261719 C 19.273438 27.820312 19.386719 27.386719 19.542969 26.964844 C 19.699219 26.542969 19.894531 26.136719 20.128906 25.753906 C 20.363281 25.371094 20.632812 25.015625 20.9375 24.683594 C 21.242188 24.355469 21.578125 24.054688 21.941406 23.792969 C 22.304688 23.527344 22.691406 23.300781 23.097656 23.113281 C 23.507812 22.925781 23.929688 22.777344 24.367188 22.671875 C 24.800781 22.566406 25.246094 22.503906 25.695312 22.488281 C 26.144531 22.46875 26.589844 22.496094 27.035156 22.566406 Z M 27.035156 22.566406 " fill-opacity="1" fill-rule="nonzero"/><path fill="#f7f8f9" d="M 39.789062 33.808594 C 39.054688 38.433594 32.121094 41.433594 32.121094 41.433594 C 32.121094 41.433594 26.496094 36.144531 27.179688 31.8125 C 27.757812 28.144531 33.761719 28.570312 33.558594 32.238281 L 33.59375 32.246094 C 34.527344 28.695312 40.367188 30.140625 39.789062 33.808594 Z M 39.789062 33.808594 " fill-opacity="1" fill-rule="nonzero"/><path fill="#f7f8f9" d="M 111.117188 35.136719 L 112.488281 30.410156 C 112.621094 29.945312 113.105469 29.671875 113.574219 29.800781 L 113.878906 29.886719 C 114.484375 30.050781 115.128906 29.976562 115.683594 29.679688 C 116.179688 29.417969 116.847656 29.109375 118.050781 28.828125 C 118.964844 28.613281 119.296875 27.640625 120.15625 26.25 C 120.5 25.683594 120.820312 25.105469 121.039062 24.75 C 122.59375 22.222656 125.285156 23.484375 124.019531 25.746094 C 123.363281 26.917969 122.339844 28.585938 122.160156 29.410156 C 123.332031 30.21875 126.355469 31.5 126.542969 32.625 C 126.816406 34.246094 126.050781 36.65625 125.582031 37.585938 C 124.953125 38.839844 124.453125 39.582031 122.703125 41.003906 C 121.699219 41.820312 120.554688 41.429688 116.605469 40.214844 C 114.207031 39.480469 113.320312 38.308594 112.996094 37.503906 C 112.753906 36.90625 112.285156 36.433594 111.679688 36.222656 C 111.230469 36.070312 110.984375 35.589844 111.117188 35.136719 Z M 111.117188 35.136719 " fill-opacity="1" fill-rule="nonzero"/><path fill="#f7f8f9" d="M 47.394531 223.441406 C 48.847656 226.949219 46.554688 231.203125 42.292969 232.96875 C 41.507812 233.292969 40.738281 233.5 39.964844 233.625 C 39.804688 233.652344 39.65625 233.714844 39.53125 233.8125 L 35.757812 236.765625 C 35.449219 237.007812 34.992188 236.816406 34.945312 236.425781 L 34.5625 233.132812 C 34.53125 232.859375 34.378906 232.617188 34.148438 232.46875 C 33.183594 231.832031 32.414062 230.9375 31.957031 229.835938 C 30.503906 226.328125 32.796875 222.074219 37.058594 220.308594 C 41.316406 218.542969 45.941406 219.929688 47.394531 223.441406 Z M 47.394531 223.441406 " fill-opacity="1" fill-rule="nonzero"/><path fill="#e8ebed" d="M 15.585938 156.027344 L 16.957031 168.199219 L 26.273438 161.171875 Z M 15.585938 156.027344 " fill-opacity="1" fill-rule="nonzero"/></svg>