<svg xmlns="http://www.w3.org/2000/svg" xmlns:xlink="http://www.w3.org/1999/xlink" width="500" zoomAndPan="magnify" viewBox="0 0 375.12 383.03998" height="500" preserveAspectRatio="xMidYMid meet" version="1.0"><defs><clipPath id="442182604a"><path d="M 22.007812 216 L 194 216 L 194 374.0625 L 22.007812 374.0625 Z M 22.007812 216 " clip-rule="nonzero"/></clipPath><clipPath id="5063677539"><path d="M 85 295 L 98 295 L 98 374.0625 L 85 374.0625 Z M 85 295 " clip-rule="nonzero"/></clipPath><clipPath id="fa3c6107f6"><path d="M 181 225 L 351.929688 225 L 351.929688 374.0625 L 181 374.0625 Z M 181 225 " clip-rule="nonzero"/></clipPath><clipPath id="60576b7ed7"><path d="M 181 8 L 194 8 L 194 374.0625 L 181 374.0625 Z M 181 8 " clip-rule="nonzero"/></clipPath><clipPath id="7d8b413901"><path d="M 295 269 L 308 269 L 308 374.0625 L 295 374.0625 Z M 295 269 " clip-rule="nonzero"/></clipPath><clipPath id="009d43dd7f"><path d="M 239 333 L 251 333 L 251 374.0625 L 239 374.0625 Z M 239 333 " clip-rule="nonzero"/></clipPath></defs><path fill="#ffe559" d="M 307.328125 260.40625 C 308.878906 261.953125 309.839844 264.097656 309.839844 266.464844 C 309.839844 271.191406 306.011719 275.019531 301.285156 275.019531 C 296.5625 275.019531 292.734375 271.191406 292.734375 266.464844 C 292.734375 261.738281 296.5625 257.90625 301.285156 257.90625 C 303.644531 257.90625 305.78125 258.859375 307.328125 260.40625 Z M 307.328125 260.40625 " fill-opacity="1" fill-rule="nonzero"/><path fill="#ffe559" d="M 296.257812 216.417969 C 300.980469 216.417969 304.8125 220.25 304.8125 224.976562 C 304.8125 227.367188 303.832031 229.527344 302.253906 231.078125 C 300.710938 232.597656 298.59375 233.535156 296.257812 233.535156 C 291.535156 233.535156 287.707031 229.703125 287.707031 224.976562 C 287.707031 220.25 291.535156 216.417969 296.257812 216.417969 Z M 296.257812 216.417969 " fill-opacity="1" fill-rule="nonzero"/><path fill="#ffe559" d="M 289.398438 106.628906 C 294.121094 106.628906 297.949219 110.460938 297.949219 115.1875 C 297.949219 119.914062 294.121094 123.746094 289.398438 123.746094 C 284.671875 123.746094 280.839844 119.914062 280.839844 115.1875 C 280.839844 110.460938 284.671875 106.628906 289.398438 106.628906 Z M 289.398438 106.628906 " fill-opacity="1" fill-rule="nonzero"/><path fill="#ffe559" d="M 269.042969 132.582031 C 273.769531 132.582031 277.597656 136.414062 277.597656 141.144531 C 277.597656 145.867188 273.769531 149.699219 269.042969 149.699219 C 264.320312 149.699219 260.492188 145.867188 260.492188 141.144531 L 260.492188 141.140625 C 260.492188 136.414062 264.320312 132.582031 269.042969 132.582031 Z M 269.042969 132.582031 " fill-opacity="1" fill-rule="nonzero"/><path fill="#ffe559" d="M 263.527344 39.730469 C 268.25 39.730469 272.078125 43.5625 272.078125 48.289062 C 272.078125 53.015625 268.25 56.847656 263.527344 56.847656 C 258.800781 56.847656 254.972656 53.015625 254.972656 48.289062 C 254.972656 45.925781 255.933594 43.785156 257.480469 42.234375 C 259.027344 40.6875 261.167969 39.730469 263.527344 39.730469 Z M 263.527344 39.730469 " fill-opacity="1" fill-rule="nonzero"/><path fill="#ffe559" d="M 272.078125 91.65625 C 272.078125 92.21875 272.023438 92.773438 271.914062 93.324219 C 271.804688 93.875 271.644531 94.410156 271.429688 94.929688 C 271.214844 95.449219 270.949219 95.941406 270.636719 96.410156 C 270.324219 96.875 269.972656 97.308594 269.574219 97.707031 C 269.175781 98.105469 268.746094 98.457031 268.277344 98.769531 C 267.8125 99.082031 267.320312 99.347656 266.800781 99.5625 C 266.28125 99.777344 265.746094 99.9375 265.195312 100.046875 C 264.644531 100.15625 264.089844 100.210938 263.527344 100.210938 C 262.964844 100.210938 262.410156 100.15625 261.859375 100.046875 C 261.308594 99.9375 260.773438 99.777344 260.253906 99.5625 C 259.734375 99.347656 259.242188 99.082031 258.773438 98.769531 C 258.308594 98.457031 257.875 98.105469 257.480469 97.707031 C 257.082031 97.308594 256.726562 96.875 256.414062 96.410156 C 256.101562 95.941406 255.839844 95.449219 255.625 94.929688 C 255.410156 94.410156 255.246094 93.875 255.136719 93.324219 C 255.027344 92.773438 254.972656 92.21875 254.972656 91.65625 C 254.972656 91.09375 255.027344 90.535156 255.136719 89.984375 C 255.246094 89.433594 255.410156 88.898438 255.625 88.378906 C 255.839844 87.859375 256.101562 87.367188 256.414062 86.902344 C 256.726562 86.433594 257.082031 86 257.480469 85.605469 C 257.875 85.207031 258.308594 84.851562 258.773438 84.539062 C 259.242188 84.226562 259.734375 83.964844 260.253906 83.75 C 260.773438 83.535156 261.308594 83.371094 261.859375 83.261719 C 262.410156 83.152344 262.964844 83.097656 263.527344 83.097656 C 264.089844 83.097656 264.644531 83.152344 265.195312 83.261719 C 265.746094 83.371094 266.28125 83.535156 266.800781 83.75 C 267.320312 83.964844 267.8125 84.226562 268.277344 84.539062 C 268.746094 84.851562 269.175781 85.207031 269.574219 85.605469 C 269.972656 86 270.324219 86.433594 270.636719 86.902344 C 270.949219 87.367188 271.214844 87.859375 271.429688 88.378906 C 271.644531 88.898438 271.804688 89.433594 271.914062 89.984375 C 272.023438 90.535156 272.078125 91.09375 272.078125 91.65625 Z M 272.078125 91.65625 " fill-opacity="1" fill-rule="nonzero"/><path fill="#ffe559" d="M 262.222656 284.566406 C 266.949219 284.566406 270.777344 288.398438 270.777344 293.125 C 270.777344 297.851562 266.949219 301.683594 262.222656 301.683594 C 257.5 301.683594 253.671875 297.851562 253.671875 293.125 C 253.671875 288.398438 257.5 284.566406 262.222656 284.566406 Z M 262.222656 284.566406 " fill-opacity="1" fill-rule="nonzero"/><path fill="#ffe559" d="M 244.941406 321.902344 C 249.664062 321.902344 253.496094 325.734375 253.496094 330.457031 C 253.496094 335.183594 249.667969 339.015625 244.945312 339.019531 L 244.941406 339.019531 C 240.21875 339.019531 236.386719 335.183594 236.386719 330.457031 C 236.386719 325.734375 240.21875 321.902344 244.941406 321.902344 Z M 244.941406 321.902344 " fill-opacity="1" fill-rule="nonzero"/><path fill="#ffe559" d="M 237.917969 153.257812 C 242.640625 153.261719 246.46875 157.089844 246.46875 161.816406 C 246.46875 166.542969 242.640625 170.371094 237.917969 170.375 L 237.914062 170.375 C 233.191406 170.375 229.363281 166.542969 229.363281 161.816406 C 229.363281 157.089844 233.191406 153.257812 237.914062 153.257812 Z M 237.917969 153.257812 " fill-opacity="1" fill-rule="nonzero"/><path fill="#ffe559" d="M 237.917969 216.417969 C 242.640625 216.421875 246.46875 220.25 246.46875 224.976562 C 246.46875 229.703125 242.640625 233.535156 237.914062 233.535156 C 233.191406 233.535156 229.363281 229.703125 229.363281 224.976562 C 229.363281 220.25 233.191406 216.417969 237.914062 216.417969 Z M 237.917969 216.417969 " fill-opacity="1" fill-rule="nonzero"/><path fill="#ffe559" d="M 229.664062 5.84375 C 234.390625 5.84375 238.222656 9.675781 238.222656 14.402344 C 238.222656 16.765625 237.261719 18.90625 235.710938 20.453125 C 234.164062 22.003906 232.023438 22.960938 229.664062 22.960938 C 224.941406 22.960938 221.113281 19.128906 221.113281 14.402344 C 221.113281 9.675781 224.941406 5.84375 229.664062 5.84375 Z M 229.664062 5.84375 " fill-opacity="1" fill-rule="nonzero"/><path fill="#ffe559" d="M 221.113281 115.1875 C 221.113281 119.914062 217.285156 123.746094 212.558594 123.746094 C 212.554688 123.746094 212.546875 123.746094 212.542969 123.746094 C 207.828125 123.738281 204.003906 119.910156 204.003906 115.1875 C 204.003906 110.460938 207.835938 106.628906 212.558594 106.628906 C 217.285156 106.628906 221.113281 110.464844 221.113281 115.1875 Z M 221.113281 115.1875 " fill-opacity="1" fill-rule="nonzero"/><path fill="#ffe559" d="M 204.003906 197.574219 C 204.003906 192.855469 207.828125 189.027344 212.542969 189.019531 C 212.546875 189.019531 212.554688 189.019531 212.558594 189.019531 C 217.285156 189.019531 221.113281 192.847656 221.113281 197.574219 C 221.113281 202.304688 217.285156 206.132812 212.558594 206.132812 C 207.835938 206.132812 204.003906 202.304688 204.003906 197.574219 Z M 204.003906 197.574219 " fill-opacity="1" fill-rule="nonzero"/><path fill="#ffe559" d="M 211.757812 31.171875 C 216.480469 31.171875 220.308594 35.003906 220.308594 39.730469 C 220.308594 44.457031 216.480469 48.289062 211.757812 48.289062 L 211.753906 48.289062 C 207.03125 48.289062 203.203125 44.457031 203.203125 39.730469 C 203.203125 35.003906 207.03125 31.171875 211.757812 31.171875 Z M 211.757812 31.171875 " fill-opacity="1" fill-rule="nonzero"/><path fill="#ff7956" d="M 91.230469 368.21875 L 27.863281 368.21875 L 27.863281 287.128906 C 27.863281 251.367188 56.832031 222.382812 92.566406 222.382812 L 146.039062 222.382812 L 181.785156 267.117188 C 181.796875 267.128906 181.808594 267.140625 181.816406 267.160156 C 183.160156 268.804688 185.242188 269.457031 187.167969 269.097656 L 187.167969 368.21875 Z M 91.230469 368.21875 " fill-opacity="1" fill-rule="nonzero"/><path fill="#f7cd9c" d="M 187.167969 224.976562 L 187.167969 269.097656 C 185.242188 269.457031 183.160156 268.804688 181.816406 267.160156 C 181.808594 267.140625 181.796875 267.128906 181.785156 267.117188 L 146.039062 222.382812 L 146.042969 222.382812 L 146.042969 187.667969 C 157.621094 197.488281 171.382812 203.179688 186.148438 203.179688 C 186.488281 203.179688 186.828125 203.175781 187.167969 203.171875 Z M 187.167969 224.976562 " fill-opacity="1" fill-rule="nonzero"/><path fill="#ffdaaa" d="M 187.167969 197.574219 L 187.167969 203.171875 C 186.828125 203.175781 186.488281 203.179688 186.148438 203.179688 C 171.382812 203.179688 157.621094 197.488281 146.042969 187.667969 C 125.335938 170.117188 111.609375 139.363281 111.609375 104.363281 C 111.609375 100.058594 111.816406 95.816406 112.222656 91.65625 C 131.472656 90.59375 157.304688 69.875 157.304688 69.875 L 157.304688 69.871094 C 168.191406 73.261719 178.121094 75.988281 187.167969 78.121094 Z M 187.167969 197.574219 " fill-opacity="1" fill-rule="nonzero"/><path fill="#76757f" d="M 187.167969 78.117188 L 187.167969 78.121094 C 178.121094 75.988281 168.191406 73.261719 157.304688 69.871094 C 157.265625 69.199219 157.21875 68.527344 157.167969 67.847656 C 155.703125 49.457031 148.113281 32.289062 136.832031 20.492188 L 136.828125 20.484375 C 143.753906 16.609375 151.738281 14.402344 160.234375 14.402344 L 187.167969 14.402344 Z M 187.167969 78.117188 " fill-opacity="1" fill-rule="nonzero"/><path fill="#898890" d="M 157.304688 69.871094 L 157.304688 69.875 C 157.304688 69.875 131.472656 90.59375 112.222656 91.65625 L 112.21875 91.65625 L 112.21875 62.445312 C 112.21875 44.414062 122.148438 28.703125 136.828125 20.484375 L 136.832031 20.492188 C 148.113281 32.289062 155.703125 49.457031 157.167969 67.847656 C 157.21875 68.527344 157.265625 69.199219 157.304688 69.871094 Z M 157.304688 69.871094 " fill-opacity="1" fill-rule="nonzero"/><path fill="#333333" d="M 186.148438 209.023438 C 170.472656 209.023438 155.296875 203.183594 142.265625 192.128906 C 119.414062 172.753906 105.769531 139.945312 105.769531 104.363281 C 105.769531 99.910156 105.984375 95.441406 106.410156 91.085938 C 106.722656 87.875 109.582031 85.523438 112.792969 85.839844 C 116.003906 86.152344 118.351562 89.011719 118.039062 92.222656 C 117.648438 96.203125 117.453125 100.289062 117.453125 104.363281 C 117.453125 136.554688 129.550781 166.027344 149.816406 183.210938 C 160.714844 192.449219 173.277344 197.335938 186.148438 197.335938 C 186.355469 197.335938 186.5625 197.332031 186.773438 197.332031 L 187.125 197.328125 C 187.140625 197.328125 187.152344 197.328125 187.167969 197.328125 C 190.375 197.328125 192.984375 199.917969 193.007812 203.132812 C 193.03125 206.359375 190.433594 208.996094 187.207031 209.015625 L 186.878906 209.019531 C 186.636719 209.023438 186.394531 209.023438 186.148438 209.023438 Z M 186.148438 209.023438 " fill-opacity="1" fill-rule="nonzero"/><g clip-path="url(#442182604a)"><path fill="#333333" d="M 187.167969 374.0625 L 27.863281 374.0625 C 24.636719 374.0625 22.023438 371.445312 22.023438 368.21875 L 22.023438 287.128906 C 22.023438 268.269531 29.359375 250.542969 42.683594 237.210938 C 56.007812 223.878906 73.722656 216.539062 92.566406 216.539062 L 146.039062 216.539062 C 147.8125 216.539062 149.492188 217.34375 150.601562 218.730469 L 186.234375 263.328125 C 189.359375 262.824219 192.332031 264.902344 192.910156 268.03125 C 193.5 271.203125 191.40625 274.253906 188.234375 274.84375 C 184.125 275.609375 179.933594 274.085938 177.296875 270.863281 C 177.246094 270.800781 177.191406 270.734375 177.144531 270.667969 L 143.230469 228.226562 L 92.566406 228.226562 C 60.113281 228.226562 33.707031 254.648438 33.707031 287.125 L 33.707031 362.371094 L 187.167969 362.371094 C 190.394531 362.371094 193.007812 364.988281 193.007812 368.21875 C 193.007812 371.445312 190.394531 374.0625 187.167969 374.0625 Z M 177.609375 271.207031 C 177.613281 271.207031 177.613281 271.210938 177.617188 271.210938 C 177.613281 271.210938 177.613281 271.207031 177.609375 271.207031 Z M 176.34375 269.207031 C 176.34375 269.207031 176.34375 269.207031 176.34375 269.210938 C 176.34375 269.207031 176.34375 269.207031 176.34375 269.207031 Z M 176.34375 269.207031 " fill-opacity="1" fill-rule="nonzero"/></g><path fill="#333333" d="M 146.042969 228.226562 C 142.816406 228.226562 140.199219 225.609375 140.199219 222.382812 L 140.199219 187.667969 C 140.199219 184.441406 142.816406 181.824219 146.042969 181.824219 C 149.265625 181.824219 151.882812 184.441406 151.882812 187.667969 L 151.882812 222.382812 C 151.882812 225.609375 149.265625 228.226562 146.042969 228.226562 Z M 146.042969 228.226562 " fill-opacity="1" fill-rule="nonzero"/><path fill="#333333" d="M 187.171875 83.964844 C 186.730469 83.964844 186.277344 83.914062 185.828125 83.808594 C 176.503906 81.613281 166.324219 78.800781 155.566406 75.453125 C 152.488281 74.492188 150.765625 71.21875 151.726562 68.136719 C 152.683594 65.054688 155.957031 63.332031 159.039062 64.289062 C 169.535156 67.558594 179.449219 70.296875 188.507812 72.429688 C 191.644531 73.171875 193.59375 76.316406 192.851562 79.460938 C 192.21875 82.152344 189.820312 83.964844 187.171875 83.964844 Z M 187.171875 83.964844 " fill-opacity="1" fill-rule="nonzero"/><path fill="#333333" d="M 112.222656 97.5 C 109 97.5 106.378906 94.882812 106.378906 91.65625 L 106.378906 62.445312 C 106.378906 42.949219 116.953125 24.914062 133.976562 15.386719 C 141.960938 10.917969 151.039062 8.558594 160.234375 8.558594 L 176.773438 8.558594 C 180 8.558594 182.617188 11.175781 182.617188 14.402344 C 182.617188 17.628906 180 20.246094 176.773438 20.246094 L 160.234375 20.246094 C 153.03125 20.246094 145.921875 22.09375 139.679688 25.585938 C 126.34375 33.050781 118.0625 47.175781 118.0625 62.445312 L 118.0625 84.792969 C 131.542969 81.289062 147.789062 70.003906 153.652344 65.3125 C 156.167969 63.296875 159.84375 63.703125 161.859375 66.21875 C 163.878906 68.738281 163.472656 72.414062 160.957031 74.433594 C 159.84375 75.328125 133.425781 96.339844 112.546875 97.492188 C 112.4375 97.496094 112.332031 97.5 112.222656 97.5 Z M 112.222656 97.5 " fill-opacity="1" fill-rule="nonzero"/><path fill="#333333" d="M 157.304688 75.71875 C 154.164062 75.71875 151.605469 73.242188 151.46875 70.140625 C 151.4375 69.5625 151.394531 68.964844 151.34375 68.308594 C 150.011719 51.539062 143.183594 35.582031 132.609375 24.53125 C 130.378906 22.199219 130.460938 18.5 132.792969 16.269531 C 135.125 14.035156 138.820312 14.117188 141.050781 16.449219 C 153.449219 29.410156 161.445312 47.976562 162.988281 67.382812 C 163.050781 68.160156 163.097656 68.867188 163.136719 69.554688 C 163.140625 69.660156 163.144531 69.765625 163.144531 69.871094 C 163.144531 73.097656 160.527344 75.71875 157.304688 75.71875 Z M 157.304688 75.71875 " fill-opacity="1" fill-rule="nonzero"/><g clip-path="url(#5063677539)"><path fill="#333333" d="M 91.230469 374.0625 C 88.003906 374.0625 85.386719 371.445312 85.386719 368.21875 L 85.386719 301.523438 C 85.386719 298.292969 88.003906 295.675781 91.230469 295.675781 C 94.457031 295.675781 97.070312 298.292969 97.070312 301.523438 L 97.070312 368.21875 C 97.070312 371.445312 94.457031 374.0625 91.230469 374.0625 Z M 91.230469 374.0625 " fill-opacity="1" fill-rule="nonzero"/></g><path fill="#333333" d="M 254.972656 97.5 L 241.457031 97.5 C 240.191406 97.5 238.957031 97.085938 237.945312 96.324219 L 221.539062 83.960938 L 187.167969 83.960938 C 183.941406 83.960938 181.324219 81.34375 181.324219 78.117188 C 181.324219 74.890625 183.941406 72.273438 187.167969 72.273438 L 223.492188 72.273438 C 224.761719 72.273438 225.996094 72.683594 227.007812 73.449219 L 243.410156 85.808594 L 254.972656 85.808594 C 258.199219 85.808594 260.816406 88.425781 260.816406 91.65625 C 260.816406 94.882812 258.199219 97.5 254.972656 97.5 Z M 254.972656 97.5 " fill-opacity="1" fill-rule="nonzero"/><path fill="#333333" d="M 257.480469 48.082031 C 255.984375 48.082031 254.492188 47.507812 253.351562 46.367188 L 231.582031 24.585938 C 229.300781 22.304688 229.300781 18.605469 231.582031 16.320312 C 233.863281 14.039062 237.5625 14.039062 239.84375 16.320312 L 261.609375 38.101562 C 263.890625 40.386719 263.890625 44.085938 261.609375 46.367188 C 260.472656 47.507812 258.976562 48.082031 257.480469 48.082031 Z M 257.480469 48.082031 " fill-opacity="1" fill-rule="nonzero"/><path fill="#333333" d="M 221.109375 20.246094 L 176.773438 20.246094 C 173.546875 20.246094 170.933594 17.628906 170.933594 14.402344 C 170.933594 11.175781 173.546875 8.558594 176.773438 8.558594 L 221.109375 8.558594 C 224.335938 8.558594 226.953125 11.175781 226.953125 14.402344 C 226.953125 17.628906 224.335938 20.246094 221.109375 20.246094 Z M 221.109375 20.246094 " fill-opacity="1" fill-rule="nonzero"/><path fill="#333333" d="M 263.527344 88.941406 C 260.300781 88.941406 257.683594 86.324219 257.683594 83.09375 L 257.683594 56.847656 C 257.683594 53.621094 260.300781 51.003906 263.527344 51.003906 C 266.753906 51.003906 269.367188 53.621094 269.367188 56.847656 L 269.367188 83.09375 C 269.367188 86.324219 266.753906 88.941406 263.527344 88.941406 Z M 263.527344 88.941406 " fill-opacity="1" fill-rule="nonzero"/><path fill="#333333" d="M 204.007812 121.03125 L 187.167969 121.03125 C 183.945312 121.03125 181.328125 118.414062 181.328125 115.1875 C 181.328125 111.960938 183.945312 109.34375 187.167969 109.34375 L 204.003906 109.34375 C 207.230469 109.34375 209.847656 111.960938 209.847656 115.1875 C 209.847656 118.414062 207.234375 121.03125 204.007812 121.03125 Z M 204.007812 121.03125 " fill-opacity="1" fill-rule="nonzero"/><path fill="#333333" d="M 241.457031 121.03125 L 221.113281 121.03125 C 217.886719 121.03125 215.269531 118.414062 215.269531 115.1875 C 215.269531 111.960938 217.882812 109.34375 221.109375 109.34375 L 235.617188 109.34375 L 235.617188 91.65625 C 235.617188 88.425781 238.230469 85.808594 241.457031 85.808594 C 244.683594 85.808594 247.300781 88.425781 247.300781 91.65625 L 247.300781 115.1875 C 247.300781 118.414062 244.683594 121.03125 241.457031 121.03125 Z M 241.457031 121.03125 " fill-opacity="1" fill-rule="nonzero"/><path fill="#333333" d="M 212.542969 194.863281 C 209.316406 194.863281 206.703125 192.246094 206.703125 189.019531 L 206.703125 123.746094 C 206.703125 120.519531 209.316406 117.902344 212.542969 117.902344 C 215.769531 117.902344 218.386719 120.515625 218.386719 123.746094 L 218.386719 189.019531 C 218.386719 192.246094 215.769531 194.863281 212.542969 194.863281 Z M 212.542969 194.863281 " fill-opacity="1" fill-rule="nonzero"/><path fill="#333333" d="M 204.007812 203.421875 L 187.167969 203.421875 C 183.945312 203.421875 181.328125 200.804688 181.328125 197.574219 C 181.328125 194.347656 183.945312 191.730469 187.167969 191.730469 L 204.003906 191.730469 C 207.230469 191.730469 209.847656 194.347656 209.847656 197.574219 C 209.847656 200.804688 207.234375 203.421875 204.007812 203.421875 Z M 204.007812 203.421875 " fill-opacity="1" fill-rule="nonzero"/><path fill="#333333" d="M 237.917969 203.421875 L 221.113281 203.421875 C 217.886719 203.421875 215.269531 200.804688 215.269531 197.574219 C 215.269531 194.347656 217.882812 191.730469 221.109375 191.730469 L 237.917969 191.730469 C 241.144531 191.730469 243.757812 194.347656 243.757812 197.574219 C 243.757812 200.804688 241.144531 203.421875 237.917969 203.421875 Z M 237.917969 203.421875 " fill-opacity="1" fill-rule="nonzero"/><path fill="#333333" d="M 237.917969 159.101562 C 234.691406 159.101562 232.074219 156.488281 232.074219 153.257812 L 232.074219 141.140625 C 232.074219 137.914062 234.691406 135.296875 237.917969 135.296875 L 260.492188 135.296875 C 263.71875 135.296875 266.332031 137.914062 266.332031 141.140625 C 266.332031 144.367188 263.71875 146.984375 260.492188 146.984375 L 243.757812 146.984375 L 243.757812 153.257812 C 243.757812 156.488281 241.144531 159.101562 237.917969 159.101562 Z M 237.917969 159.101562 " fill-opacity="1" fill-rule="nonzero"/><path fill="#333333" d="M 237.917969 222.261719 C 234.691406 222.261719 232.074219 219.644531 232.074219 216.417969 L 232.074219 197.574219 C 232.074219 195.289062 233.40625 193.214844 235.484375 192.261719 L 263.203125 179.566406 L 263.203125 149.699219 C 263.203125 146.472656 265.816406 143.855469 269.042969 143.855469 C 272.269531 143.855469 274.886719 146.472656 274.886719 149.699219 L 274.886719 183.320312 C 274.886719 185.605469 273.554688 187.683594 271.476562 188.632812 L 243.757812 201.328125 L 243.757812 216.417969 C 243.757812 219.644531 241.144531 222.261719 237.917969 222.261719 Z M 237.917969 222.261719 " fill-opacity="1" fill-rule="nonzero"/><path fill="#333333" d="M 237.917969 203.421875 C 234.691406 203.421875 232.074219 200.804688 232.074219 197.574219 L 232.074219 170.375 C 232.074219 167.144531 234.691406 164.527344 237.917969 164.527344 C 241.144531 164.527344 243.757812 167.144531 243.757812 170.375 L 243.757812 197.574219 C 243.757812 200.804688 241.144531 203.421875 237.917969 203.421875 Z M 237.917969 203.421875 " fill-opacity="1" fill-rule="nonzero"/><path fill="#333333" d="M 280.839844 121.03125 L 241.457031 121.03125 C 238.230469 121.03125 235.617188 118.414062 235.617188 115.1875 C 235.617188 111.960938 238.230469 109.34375 241.457031 109.34375 L 280.84375 109.34375 C 284.066406 109.34375 286.683594 111.960938 286.683594 115.1875 C 286.683594 118.414062 284.066406 121.03125 280.839844 121.03125 Z M 280.839844 121.03125 " fill-opacity="1" fill-rule="nonzero"/><path fill="#333333" d="M 212.539062 157.917969 L 187.167969 157.917969 C 183.941406 157.917969 181.324219 155.304688 181.324219 152.074219 C 181.324219 148.847656 183.941406 146.230469 187.167969 146.230469 L 212.539062 146.230469 C 215.765625 146.230469 218.382812 148.847656 218.382812 152.074219 C 218.382812 155.304688 215.765625 157.917969 212.539062 157.917969 Z M 212.539062 157.917969 " fill-opacity="1" fill-rule="nonzero"/><g clip-path="url(#fa3c6107f6)"><path fill="#333333" d="M 346.046875 374.0625 L 187.167969 374.0625 C 183.945312 374.0625 181.328125 371.445312 181.328125 368.21875 C 181.328125 364.988281 183.945312 362.371094 187.167969 362.371094 L 340.203125 362.371094 L 340.203125 277.316406 L 298.125 235.214844 C 295.84375 232.929688 295.84375 229.230469 298.125 226.949219 C 300.40625 224.664062 304.105469 224.664062 306.386719 226.949219 L 350.175781 270.765625 C 351.273438 271.859375 351.886719 273.347656 351.886719 274.898438 L 351.886719 368.21875 C 351.886719 371.445312 349.273438 374.0625 346.046875 374.0625 Z M 346.046875 374.0625 " fill-opacity="1" fill-rule="nonzero"/></g><path fill="#333333" d="M 229.363281 230.820312 L 187.167969 230.820312 C 183.941406 230.820312 181.324219 228.203125 181.324219 224.976562 C 181.324219 221.746094 183.941406 219.132812 187.167969 219.132812 L 229.363281 219.132812 C 232.589844 219.132812 235.203125 221.746094 235.203125 224.976562 C 235.203125 228.203125 232.589844 230.820312 229.363281 230.820312 Z M 229.363281 230.820312 " fill-opacity="1" fill-rule="nonzero"/><path fill="#333333" d="M 287.707031 230.820312 L 246.46875 230.820312 C 243.242188 230.820312 240.628906 228.203125 240.628906 224.976562 C 240.628906 221.746094 243.242188 219.132812 246.46875 219.132812 L 287.707031 219.132812 C 290.933594 219.132812 293.546875 221.746094 293.546875 224.976562 C 293.546875 228.203125 290.929688 230.820312 287.707031 230.820312 Z M 287.707031 230.820312 " fill-opacity="1" fill-rule="nonzero"/><path fill="#333333" d="M 253.671875 298.96875 L 233.761719 298.96875 C 232.210938 298.96875 230.726562 298.355469 229.632812 297.257812 L 211.84375 279.457031 L 187.167969 279.457031 C 183.945312 279.457031 181.328125 276.839844 181.328125 273.613281 C 181.328125 270.386719 183.945312 267.769531 187.167969 267.769531 L 214.265625 267.769531 C 215.8125 267.769531 217.300781 268.382812 218.394531 269.480469 L 236.183594 287.28125 L 253.671875 287.28125 C 256.898438 287.28125 259.511719 289.898438 259.511719 293.125 C 259.511719 296.351562 256.898438 298.96875 253.671875 298.96875 Z M 253.671875 298.96875 " fill-opacity="1" fill-rule="nonzero"/><path fill="#333333" d="M 262.222656 290.410156 C 259 290.410156 256.382812 287.792969 256.382812 284.566406 L 256.382812 224.976562 C 256.382812 221.746094 259 219.132812 262.222656 219.132812 C 265.449219 219.132812 268.066406 221.746094 268.066406 224.976562 L 268.066406 284.566406 C 268.066406 287.792969 265.449219 290.410156 262.222656 290.410156 Z M 262.222656 290.410156 " fill-opacity="1" fill-rule="nonzero"/><path fill="#333333" d="M 207.238281 307.367188 L 187.167969 307.367188 C 183.945312 307.367188 181.328125 304.75 181.328125 301.523438 C 181.328125 298.292969 183.945312 295.675781 187.167969 295.675781 L 204.816406 295.675781 L 220.566406 279.921875 C 222.847656 277.636719 226.546875 277.636719 228.828125 279.921875 C 231.105469 282.203125 231.105469 285.902344 228.828125 288.1875 L 211.367188 305.65625 C 210.273438 306.75 208.785156 307.367188 207.238281 307.367188 Z M 207.238281 307.367188 " fill-opacity="1" fill-rule="nonzero"/><g clip-path="url(#60576b7ed7)"><path fill="#333333" d="M 187.167969 374.0625 C 183.941406 374.0625 181.324219 371.445312 181.324219 368.21875 L 181.324219 14.402344 C 181.324219 11.175781 183.941406 8.558594 187.167969 8.558594 C 190.394531 8.558594 193.007812 11.175781 193.007812 14.402344 L 193.007812 368.21875 C 193.007812 371.445312 190.394531 374.0625 187.167969 374.0625 Z M 187.167969 374.0625 " fill-opacity="1" fill-rule="nonzero"/></g><path fill="#333333" d="M 229.664062 28.808594 C 221.730469 28.808594 215.273438 22.34375 215.273438 14.402344 C 215.273438 6.460938 221.730469 0 229.664062 0 C 237.605469 0 244.0625 6.460938 244.0625 14.402344 C 244.0625 18.253906 242.5625 21.875 239.835938 24.59375 C 237.128906 27.308594 233.511719 28.808594 229.664062 28.808594 Z M 229.664062 11.6875 C 228.171875 11.6875 226.953125 12.90625 226.953125 14.402344 C 226.953125 15.898438 228.171875 17.117188 229.664062 17.117188 C 230.640625 17.117188 231.28125 16.621094 231.578125 16.324219 C 231.882812 16.019531 232.378906 15.378906 232.378906 14.402344 C 232.378906 12.90625 231.164062 11.6875 229.664062 11.6875 Z M 229.664062 11.6875 " fill-opacity="1" fill-rule="nonzero"/><path fill="#333333" d="M 263.527344 62.691406 C 255.589844 62.691406 249.132812 56.230469 249.132812 48.289062 C 249.132812 44.441406 250.628906 40.824219 253.351562 38.101562 C 253.351562 38.101562 253.351562 38.101562 253.355469 38.097656 C 256.074219 35.382812 259.6875 33.882812 263.527344 33.882812 C 271.464844 33.882812 277.921875 40.347656 277.921875 48.289062 C 277.921875 56.230469 271.464844 62.691406 263.527344 62.691406 Z M 261.613281 46.367188 C 261.3125 46.664062 260.816406 47.3125 260.816406 48.289062 C 260.816406 49.785156 262.03125 51.003906 263.527344 51.003906 C 265.023438 51.003906 266.238281 49.785156 266.238281 48.289062 C 266.238281 46.792969 265.023438 45.574219 263.527344 45.574219 C 262.554688 45.574219 261.910156 46.070312 261.613281 46.367188 Z M 261.613281 46.367188 " fill-opacity="1" fill-rule="nonzero"/><path fill="#333333" d="M 263.527344 106.058594 C 255.589844 106.058594 249.132812 99.597656 249.132812 91.65625 C 249.132812 83.714844 255.589844 77.253906 263.527344 77.253906 C 271.464844 77.253906 277.921875 83.714844 277.921875 91.65625 C 277.921875 99.597656 271.464844 106.058594 263.527344 106.058594 Z M 263.527344 88.941406 C 262.03125 88.941406 260.816406 90.160156 260.816406 91.65625 C 260.816406 93.152344 262.03125 94.367188 263.527344 94.367188 C 265.023438 94.367188 266.238281 93.152344 266.238281 91.65625 C 266.238281 90.160156 265.023438 88.941406 263.527344 88.941406 Z M 263.527344 88.941406 " fill-opacity="1" fill-rule="nonzero"/><path fill="#333333" d="M 211.757812 54.132812 C 211.757812 54.132812 211.753906 54.132812 211.75 54.132812 C 203.820312 54.128906 197.363281 47.671875 197.359375 39.734375 C 197.359375 31.789062 203.820312 25.328125 211.757812 25.328125 C 219.695312 25.328125 226.152344 31.789062 226.152344 39.730469 C 226.152344 47.671875 219.695312 54.132812 211.757812 54.132812 Z M 211.757812 37.015625 C 210.261719 37.015625 209.042969 38.234375 209.042969 39.730469 C 209.042969 41.226562 210.261719 42.445312 211.757812 42.445312 C 213.253906 42.445312 214.46875 41.226562 214.46875 39.730469 C 214.46875 38.234375 213.253906 37.015625 211.757812 37.015625 Z M 211.757812 37.015625 " fill-opacity="1" fill-rule="nonzero"/><path fill="#333333" d="M 289.398438 129.589844 C 281.457031 129.589844 275 123.128906 275 115.1875 C 275 107.246094 281.457031 100.785156 289.398438 100.785156 C 297.332031 100.785156 303.792969 107.246094 303.792969 115.1875 C 303.792969 123.128906 297.332031 129.589844 289.398438 129.589844 Z M 289.398438 112.472656 C 287.902344 112.472656 286.683594 113.691406 286.683594 115.1875 C 286.683594 116.683594 287.902344 117.898438 289.398438 117.898438 C 290.890625 117.898438 292.109375 116.683594 292.109375 115.1875 C 292.109375 113.691406 290.890625 112.472656 289.398438 112.472656 Z M 289.398438 112.472656 " fill-opacity="1" fill-rule="nonzero"/><path fill="#333333" d="M 212.558594 129.59375 C 212.554688 129.59375 212.535156 129.59375 212.53125 129.59375 C 204.609375 129.574219 198.164062 123.113281 198.164062 115.1875 C 198.164062 107.246094 204.621094 100.785156 212.558594 100.785156 C 220.496094 100.785156 226.953125 107.246094 226.953125 115.1875 C 226.953125 123.128906 220.496094 129.59375 212.558594 129.59375 Z M 212.558594 112.472656 C 211.0625 112.472656 209.847656 113.691406 209.847656 115.1875 C 209.847656 116.679688 211.0625 117.898438 212.554688 117.902344 C 214.054688 117.902344 215.273438 116.683594 215.273438 115.1875 C 215.273438 113.691406 214.054688 112.472656 212.558594 112.472656 Z M 212.558594 112.472656 " fill-opacity="1" fill-rule="nonzero"/><path fill="#333333" d="M 212.558594 211.976562 C 204.621094 211.976562 198.164062 205.519531 198.164062 197.574219 C 198.164062 189.652344 204.609375 183.191406 212.53125 183.171875 C 212.535156 183.171875 212.554688 183.171875 212.558594 183.171875 C 220.496094 183.171875 226.953125 189.632812 226.953125 197.574219 C 226.953125 205.519531 220.496094 211.976562 212.558594 211.976562 Z M 212.558594 194.863281 C 211.0625 194.867188 209.847656 196.082031 209.847656 197.574219 C 209.847656 199.070312 211.0625 200.289062 212.558594 200.289062 C 214.054688 200.289062 215.273438 199.070312 215.273438 197.574219 C 215.273438 196.082031 214.054688 194.863281 212.558594 194.863281 Z M 212.558594 194.863281 " fill-opacity="1" fill-rule="nonzero"/><path fill="#333333" d="M 237.921875 176.21875 C 229.976562 176.21875 223.519531 169.757812 223.519531 161.816406 C 223.519531 153.875 229.976562 147.414062 237.914062 147.414062 C 237.914062 147.414062 237.917969 147.414062 237.921875 147.414062 C 245.855469 147.417969 252.3125 153.878906 252.3125 161.816406 C 252.3125 169.753906 245.855469 176.214844 237.921875 176.21875 Z M 237.914062 159.101562 C 236.417969 159.101562 235.203125 160.320312 235.203125 161.816406 C 235.203125 163.3125 236.417969 164.527344 237.914062 164.527344 C 239.410156 164.527344 240.628906 163.3125 240.628906 161.816406 C 240.628906 160.320312 239.410156 159.105469 237.914062 159.101562 Z M 237.914062 159.101562 " fill-opacity="1" fill-rule="nonzero"/><path fill="#333333" d="M 269.042969 155.546875 C 261.109375 155.546875 254.648438 149.085938 254.648438 141.144531 C 254.648438 141.140625 254.648438 141.136719 254.648438 141.136719 C 254.65625 133.199219 261.113281 126.738281 269.042969 126.738281 C 276.980469 126.738281 283.4375 133.199219 283.4375 141.144531 C 283.4375 149.085938 276.980469 155.546875 269.042969 155.546875 Z M 266.332031 141.144531 C 266.332031 142.640625 267.550781 143.855469 269.042969 143.855469 C 270.539062 143.855469 271.757812 142.636719 271.757812 141.144531 C 271.757812 139.644531 270.539062 138.425781 269.042969 138.425781 C 267.550781 138.425781 266.335938 139.644531 266.332031 141.144531 Z M 266.332031 141.144531 " fill-opacity="1" fill-rule="nonzero"/><path fill="#333333" d="M 237.914062 239.378906 C 229.976562 239.378906 223.519531 232.917969 223.519531 224.976562 C 223.519531 217.035156 229.976562 210.574219 237.914062 210.574219 C 245.855469 210.578125 252.3125 217.039062 252.3125 224.976562 C 252.3125 232.917969 245.851562 239.378906 237.914062 239.378906 Z M 237.914062 222.261719 C 236.417969 222.261719 235.203125 223.480469 235.203125 224.976562 C 235.203125 226.472656 236.417969 227.691406 237.914062 227.691406 C 239.410156 227.691406 240.628906 226.472656 240.628906 224.976562 C 240.628906 223.480469 239.410156 222.261719 237.914062 222.261719 Z M 237.914062 222.261719 " fill-opacity="1" fill-rule="nonzero"/><path fill="#333333" d="M 296.257812 239.378906 C 288.320312 239.378906 281.863281 232.917969 281.863281 224.976562 C 281.863281 217.035156 288.320312 210.574219 296.257812 210.574219 C 304.195312 210.574219 310.652344 217.035156 310.652344 224.976562 C 310.652344 228.875 309.121094 232.523438 306.34375 235.25 C 303.640625 237.910156 300.058594 239.378906 296.257812 239.378906 Z M 296.257812 222.261719 C 294.761719 222.261719 293.546875 223.480469 293.546875 224.976562 C 293.546875 226.472656 294.761719 227.691406 296.257812 227.691406 C 297.222656 227.691406 297.859375 227.203125 298.15625 226.914062 C 298.464844 226.609375 298.96875 225.964844 298.96875 224.976562 C 298.96875 223.480469 297.753906 222.261719 296.257812 222.261719 Z M 296.257812 222.261719 " fill-opacity="1" fill-rule="nonzero"/><path fill="#333333" d="M 262.222656 307.527344 C 254.289062 307.527344 247.832031 301.066406 247.832031 293.125 C 247.832031 285.183594 254.289062 278.71875 262.222656 278.71875 C 270.160156 278.71875 276.617188 285.183594 276.617188 293.125 C 276.617188 301.066406 270.160156 307.527344 262.222656 307.527344 Z M 262.222656 290.410156 C 260.730469 290.410156 259.511719 291.628906 259.511719 293.125 C 259.511719 294.621094 260.730469 295.839844 262.222656 295.839844 C 263.71875 295.839844 264.9375 294.621094 264.9375 293.125 C 264.9375 291.628906 263.71875 290.410156 262.222656 290.410156 Z M 262.222656 290.410156 " fill-opacity="1" fill-rule="nonzero"/><path fill="#333333" d="M 244.945312 344.863281 C 237.003906 344.863281 230.546875 338.402344 230.546875 330.457031 C 230.546875 322.515625 237.003906 316.054688 244.941406 316.054688 C 252.878906 316.054688 259.339844 322.515625 259.339844 330.457031 C 259.339844 338.398438 252.882812 344.859375 244.945312 344.863281 Z M 244.941406 327.746094 C 243.445312 327.746094 242.230469 328.960938 242.230469 330.457031 C 242.230469 331.957031 243.445312 333.171875 244.941406 333.171875 C 246.4375 333.171875 247.65625 331.953125 247.65625 330.457031 C 247.65625 328.960938 246.4375 327.746094 244.941406 327.746094 Z M 244.941406 327.746094 " fill-opacity="1" fill-rule="nonzero"/><path fill="#333333" d="M 301.285156 280.867188 C 293.347656 280.867188 286.890625 274.40625 286.890625 266.464844 C 286.890625 258.523438 293.347656 252.0625 301.285156 252.0625 C 305.125 252.0625 308.738281 253.554688 311.453125 256.269531 C 314.179688 258.988281 315.679688 262.609375 315.679688 266.464844 C 315.679688 274.40625 309.222656 280.867188 301.285156 280.867188 Z M 301.285156 263.75 C 299.792969 263.75 298.574219 264.96875 298.574219 266.464844 C 298.574219 267.960938 299.792969 269.175781 301.285156 269.175781 C 302.78125 269.175781 303.996094 267.960938 303.996094 266.464844 C 303.996094 265.484375 303.503906 264.84375 303.207031 264.550781 C 303.203125 264.546875 303.203125 264.546875 303.199219 264.542969 C 302.902344 264.246094 302.261719 263.75 301.285156 263.75 Z M 301.285156 263.75 " fill-opacity="1" fill-rule="nonzero"/><path fill="#333333" d="M 211.753906 83.960938 C 208.527344 83.960938 205.914062 81.34375 205.914062 78.117188 L 205.914062 48.289062 C 205.914062 45.0625 208.527344 42.445312 211.753906 42.445312 C 214.980469 42.445312 217.597656 45.0625 217.597656 48.289062 L 217.597656 78.117188 C 217.597656 81.34375 214.980469 83.960938 211.753906 83.960938 Z M 211.753906 83.960938 " fill-opacity="1" fill-rule="nonzero"/><path fill="#333333" d="M 203.203125 45.578125 L 187.167969 45.578125 C 183.945312 45.578125 181.328125 42.960938 181.328125 39.730469 C 181.328125 36.503906 183.945312 33.886719 187.167969 33.886719 L 203.203125 33.886719 C 206.429688 33.886719 209.042969 36.503906 209.042969 39.730469 C 209.042969 42.960938 206.429688 45.578125 203.203125 45.578125 Z M 203.203125 45.578125 " fill-opacity="1" fill-rule="nonzero"/><g clip-path="url(#7d8b413901)"><path fill="#333333" d="M 301.285156 374.0625 C 298.058594 374.0625 295.445312 371.445312 295.445312 368.21875 L 295.445312 275.023438 C 295.445312 271.796875 298.058594 269.179688 301.285156 269.179688 C 304.511719 269.179688 307.128906 271.796875 307.128906 275.023438 L 307.128906 368.21875 C 307.128906 371.445312 304.511719 374.0625 301.285156 374.0625 Z M 301.285156 374.0625 " fill-opacity="1" fill-rule="nonzero"/></g><path fill="#333333" d="M 307.328125 266.25 C 305.835938 266.25 304.339844 265.679688 303.199219 264.539062 C 300.917969 262.257812 300.917969 258.554688 303.199219 256.273438 L 315.3125 244.148438 C 317.59375 241.863281 321.292969 241.863281 323.574219 244.144531 C 325.855469 246.425781 325.855469 250.128906 323.574219 252.410156 L 311.460938 264.535156 C 310.320312 265.679688 308.824219 266.25 307.328125 266.25 Z M 307.328125 266.25 " fill-opacity="1" fill-rule="nonzero"/><g clip-path="url(#009d43dd7f)"><path fill="#333333" d="M 244.945312 374.0625 C 241.71875 374.0625 239.101562 371.445312 239.101562 368.21875 L 239.101562 339.019531 C 239.101562 335.789062 241.71875 333.171875 244.945312 333.171875 C 248.167969 333.171875 250.785156 335.789062 250.785156 339.019531 L 250.785156 368.21875 C 250.785156 371.445312 248.167969 374.0625 244.945312 374.0625 Z M 244.945312 374.0625 " fill-opacity="1" fill-rule="nonzero"/></g><path fill="#333333" d="M 236.386719 336.304688 L 187.167969 336.304688 C 183.945312 336.304688 181.328125 333.6875 181.328125 330.457031 C 181.328125 327.230469 183.945312 324.613281 187.167969 324.613281 L 236.386719 324.613281 C 239.613281 324.613281 242.230469 327.230469 242.230469 330.457031 C 242.230469 333.6875 239.613281 336.304688 236.386719 336.304688 Z M 236.386719 336.304688 " fill-opacity="1" fill-rule="nonzero"/></svg>