<svg xmlns="http://www.w3.org/2000/svg" xmlns:xlink="http://www.w3.org/1999/xlink" width="500" zoomAndPan="magnify" viewBox="0 0 375.12 383.03998" height="500" preserveAspectRatio="xMidYMid meet" version="1.0"><defs><clipPath id="9dfe430698"><path d="M 127.757812 285 L 137 285 L 137 374.0625 L 127.757812 374.0625 Z M 127.757812 285 " clip-rule="nonzero"/></clipPath><clipPath id="5cd87568c9"><path d="M 24.359375 121.644531 L 156 121.644531 L 156 374.0625 L 24.359375 374.0625 Z M 24.359375 121.644531 " clip-rule="nonzero"/></clipPath><clipPath id="a92b20f9bf"><path d="M 190 285 L 229 285 L 229 374.0625 L 190 374.0625 Z M 190 285 " clip-rule="nonzero"/></clipPath><clipPath id="e88bf12039"><path d="M 261.570312 85.152344 L 349.761719 85.152344 L 349.761719 156 L 261.570312 156 Z M 261.570312 85.152344 " clip-rule="nonzero"/></clipPath></defs><path fill="#f9ad2d" d="M 296.542969 138.371094 C 296.542969 64.457031 236.644531 4.5625 162.730469 4.5625 C 88.816406 4.5625 28.921875 64.457031 28.921875 138.371094 C 28.921875 212.285156 88.816406 272.183594 162.730469 272.183594 C 236.644531 272.183594 296.542969 212.285156 296.542969 138.371094 " fill-opacity="1" fill-rule="nonzero"/><path fill="#ed6b55" d="M 246.007812 236.855469 L 251.28125 223.835938 L 262.234375 196.9375 L 284.378906 205.277344 L 271.714844 236.355469 C 269.527344 235.808594 266.726562 235.691406 263.589844 235.691406 C 254.464844 235.691406 246.007812 236.855469 246.007812 236.855469 " fill-opacity="1" fill-rule="nonzero"/><path fill="#ffffff" d="M 223.007812 334.527344 C 225.621094 328.066406 230.847656 323.027344 237.359375 320.605469 C 243.085938 326.257812 244.773438 334.765625 241.730469 342.203125 C 238.761719 349.613281 231.585938 354.484375 223.554688 354.53125 C 220.585938 348.285156 220.324219 340.988281 223.007812 334.527344 " fill-opacity="1" fill-rule="nonzero"/><path fill="#ed6b55" d="M 345.203125 89.714844 L 339.121094 107.960938 C 342.945312 110.8125 345.203125 115.328125 345.203125 120.125 C 345.203125 124.925781 342.945312 129.4375 339.121094 132.289062 L 345.203125 150.539062 L 302.625 150.539062 L 284.378906 138.371094 L 266.132812 138.371094 L 266.132812 101.878906 L 284.378906 101.878906 L 302.625 89.714844 L 345.203125 89.714844 " fill-opacity="1" fill-rule="nonzero"/><path fill="#ed6b55" d="M 266.132812 101.878906 L 266.132812 150.539062 L 205.308594 150.539062 L 205.308594 89.714844 L 266.132812 89.714844 L 266.132812 101.878906 " fill-opacity="1" fill-rule="nonzero"/><path fill="#ed6b55" d="M 132.320312 300.574219 L 132.320312 369.5 L 28.921875 369.5 L 28.921875 217.441406 C 28.921875 156.621094 70.476562 126.207031 101.910156 126.207031 C 134.339844 126.207031 150.566406 150.539062 150.566406 174.867188 C 150.566406 199.195312 150.566406 229.609375 150.566406 229.609375 L 94.804688 229.609375 L 97.585938 248.828125 C 99.414062 267.976562 103.3125 290.429688 120.15625 290.429688 C 123.742188 290.429688 127.828125 290.191406 132.320312 289.765625 L 132.320312 300.574219 " fill-opacity="1" fill-rule="nonzero"/><path fill="#ffffff" d="M 106.398438 38.511719 L 187.0625 65.386719 C 187.0625 65.386719 173.375 114.042969 144.484375 114.042969 C 118.636719 114.042969 101.910156 95.796875 101.910156 71.46875 C 101.910156 57.972656 103.621094 47.136719 106.398438 38.511719 " fill-opacity="1" fill-rule="nonzero"/><path fill="#ed6b55" d="M 193.144531 41.054688 C 193.144531 64.886719 187.0625 65.386719 187.0625 65.386719 L 106.398438 38.511719 C 116.09375 8.816406 138.757812 4.5625 150.566406 4.5625 C 171.355469 4.5625 193.144531 17.226562 193.144531 41.054688 " fill-opacity="1" fill-rule="nonzero"/><path fill="#ffffff" d="M 247.882812 53.21875 L 247.882812 89.714844 L 223.554688 89.714844 L 223.554688 53.21875 L 247.882812 53.21875 " fill-opacity="1" fill-rule="nonzero"/><path fill="#ffffff" d="M 213.578125 316.398438 L 203.429688 341.347656 C 203.429688 341.347656 158.527344 322.125 150.566406 314.761719 L 132.320312 300.574219 L 132.320312 289.765625 C 142.773438 288.839844 155.320312 286.890625 167.886719 284.65625 L 187.0625 302.59375 L 213.578125 316.398438 " fill-opacity="1" fill-rule="nonzero"/><path fill="#333333" d="M 284.378906 53.21875 C 284.378906 46.519531 289.867188 41.054688 296.542969 41.054688 L 333.035156 41.054688 C 339.714844 41.054688 345.203125 46.519531 345.203125 53.21875 C 345.203125 59.921875 339.714844 65.386719 333.035156 65.386719 L 296.542969 65.386719 C 289.867188 65.386719 284.378906 59.921875 284.378906 53.21875 " fill-opacity="1" fill-rule="nonzero"/><path fill="#ffffff" d="M 219.96875 239.394531 C 227.523438 236.308594 235.71875 229.609375 251.28125 223.835938 L 246.007812 236.855469 C 246.007812 236.855469 254.464844 235.691406 263.589844 235.691406 C 266.726562 235.691406 269.527344 235.808594 271.714844 236.355469 C 275.921875 237.28125 278.296875 239.515625 278.296875 244.8125 C 278.296875 252.914062 265.394531 271.445312 256.460938 273.777344 C 247.574219 276.128906 235.71875 271.683594 231.753906 271.683594 C 229.328125 271.683594 198.488281 279.121094 167.886719 284.65625 C 155.320312 286.890625 142.773438 288.839844 132.320312 289.765625 C 127.828125 290.191406 123.742188 290.429688 120.15625 290.429688 C 103.3125 290.429688 99.414062 267.976562 97.585938 248.828125 L 94.804688 229.609375 L 138.402344 229.609375 L 142.894531 251.394531 C 187.0625 243.292969 199.582031 247.855469 219.96875 239.394531 " fill-opacity="1" fill-rule="nonzero"/><path fill="#ed6b55" d="M 237.359375 320.605469 C 230.847656 323.027344 225.621094 328.066406 223.007812 334.527344 C 220.324219 340.988281 220.585938 348.285156 223.554688 354.53125 L 217.472656 369.5 L 195.328125 361.160156 L 203.429688 341.347656 L 213.578125 316.398438 L 224.292969 290.074219 L 231.753906 271.683594 C 235.71875 271.683594 247.574219 276.128906 256.460938 273.777344 L 248.382812 293.542969 L 237.359375 320.605469 " fill-opacity="1" fill-rule="nonzero"/><g clip-path="url(#9dfe430698)"><path fill="#333333" d="M 132.320312 374.0625 C 129.800781 374.0625 127.757812 372.019531 127.757812 369.5 L 127.757812 290.074219 C 127.757812 287.554688 129.800781 285.511719 132.320312 285.511719 C 134.839844 285.511719 136.882812 287.554688 136.882812 290.074219 L 136.882812 369.5 C 136.882812 372.019531 134.839844 374.0625 132.320312 374.0625 " fill-opacity="1" fill-rule="nonzero"/></g><g clip-path="url(#5cd87568c9)"><path fill="#333333" d="M 28.921875 374.0625 C 26.402344 374.0625 24.359375 372.019531 24.359375 369.5 L 24.359375 217.441406 C 24.359375 152.105469 70.640625 121.644531 101.910156 121.644531 C 136.835938 121.644531 155.128906 148.421875 155.128906 174.867188 L 155.128906 229.609375 C 155.128906 232.125 153.085938 234.167969 150.566406 234.167969 L 83.660156 234.167969 C 81.144531 234.167969 79.101562 232.125 79.101562 229.609375 L 79.101562 174.867188 C 79.101562 172.347656 81.144531 170.304688 83.660156 170.304688 C 86.179688 170.304688 88.222656 172.347656 88.222656 174.867188 L 88.222656 225.046875 L 146.003906 225.046875 L 146.003906 174.867188 C 146.003906 153.625 132.203125 130.769531 101.910156 130.769531 C 74.300781 130.769531 33.484375 158.304688 33.484375 217.441406 L 33.484375 369.5 C 33.484375 372.019531 31.441406 374.0625 28.921875 374.0625 " fill-opacity="1" fill-rule="nonzero"/></g><path fill="#333333" d="M 237.359375 325.167969 C 236.789062 325.167969 236.195312 325.046875 235.648438 324.832031 C 233.296875 323.882812 232.179688 321.222656 233.128906 318.871094 L 244.152344 291.808594 C 245.105469 289.480469 247.789062 288.363281 250.09375 289.3125 C 252.421875 290.265625 253.539062 292.925781 252.589844 295.253906 L 241.589844 322.316406 C 240.851562 324.097656 239.164062 325.167969 237.359375 325.167969 " fill-opacity="1" fill-rule="nonzero"/><g clip-path="url(#a92b20f9bf)"><path fill="#333333" d="M 217.472656 374.0625 C 216.925781 374.0625 216.402344 373.96875 215.855469 373.777344 L 193.714844 365.4375 C 192.574219 365.011719 191.648438 364.105469 191.148438 362.992188 C 190.671875 361.851562 190.648438 360.589844 191.101562 359.449219 L 220.0625 288.339844 C 221.011719 286.011719 223.675781 284.894531 226.003906 285.84375 C 228.332031 286.796875 229.449219 289.457031 228.519531 291.785156 L 201.316406 358.546875 L 214.929688 363.65625 L 219.324219 352.820312 C 220.277344 350.492188 222.960938 349.351562 225.265625 350.304688 C 227.59375 351.253906 228.734375 353.914062 227.785156 356.265625 L 221.703125 371.210938 C 220.988281 372.992188 219.277344 374.0625 217.472656 374.0625 " fill-opacity="1" fill-rule="nonzero"/></g><path fill="#333333" d="M 271.714844 240.917969 C 271.144531 240.917969 270.574219 240.820312 270.003906 240.585938 C 267.675781 239.632812 266.558594 236.972656 267.507812 234.644531 L 280.148438 203.566406 C 281.097656 201.214844 283.761719 200.097656 286.089844 201.050781 C 288.417969 202 289.558594 204.660156 288.605469 206.988281 L 275.945312 238.089844 C 275.230469 239.847656 273.519531 240.917969 271.714844 240.917969 " fill-opacity="1" fill-rule="nonzero"/><path fill="#333333" d="M 246.007812 241.414062 C 245.4375 241.414062 244.84375 241.296875 244.273438 241.082031 C 241.945312 240.109375 240.828125 237.449219 241.777344 235.121094 L 258.003906 195.226562 C 258.957031 192.898438 261.640625 191.757812 263.96875 192.710938 C 266.296875 193.683594 267.414062 196.34375 266.464844 198.671875 L 250.238281 238.566406 C 249.5 240.347656 247.789062 241.414062 246.007812 241.414062 " fill-opacity="1" fill-rule="nonzero"/><path fill="#333333" d="M 284.378906 209.839844 C 283.832031 209.839844 283.308594 209.746094 282.761719 209.554688 L 234.128906 191.308594 C 232.347656 190.644531 231.15625 188.933594 231.15625 187.03125 L 231.15625 126.207031 C 231.15625 123.691406 233.203125 121.644531 235.71875 121.644531 C 238.238281 121.644531 240.28125 123.691406 240.28125 126.207031 L 240.28125 183.871094 L 285.992188 201 C 288.347656 201.90625 289.535156 204.542969 288.65625 206.894531 C 287.964844 208.722656 286.207031 209.839844 284.378906 209.839844 " fill-opacity="1" fill-rule="nonzero"/><path fill="#333333" d="M 209.871094 145.976562 L 261.570312 145.976562 L 261.570312 94.277344 L 209.871094 94.277344 Z M 266.132812 155.097656 L 205.308594 155.097656 C 202.789062 155.097656 200.746094 153.054688 200.746094 150.539062 L 200.746094 89.714844 C 200.746094 87.195312 202.789062 85.152344 205.308594 85.152344 L 266.132812 85.152344 C 268.648438 85.152344 270.691406 87.195312 270.691406 89.714844 L 270.691406 150.539062 C 270.691406 153.054688 268.648438 155.097656 266.132812 155.097656 " fill-opacity="1" fill-rule="nonzero"/><path fill="#333333" d="M 223.554688 94.277344 C 221.035156 94.277344 218.992188 92.234375 218.992188 89.714844 L 218.992188 53.21875 C 218.992188 50.703125 221.035156 48.660156 223.554688 48.660156 L 296.542969 48.660156 C 299.0625 48.660156 301.105469 50.703125 301.105469 53.21875 C 301.105469 55.738281 299.0625 57.78125 296.542969 57.78125 L 228.117188 57.78125 L 228.117188 89.714844 C 228.117188 92.234375 226.074219 94.277344 223.554688 94.277344 " fill-opacity="1" fill-rule="nonzero"/><path fill="#333333" d="M 247.882812 94.277344 C 245.367188 94.277344 243.324219 92.234375 243.324219 89.714844 L 243.324219 53.21875 C 243.324219 50.703125 245.367188 48.660156 247.882812 48.660156 C 250.402344 48.660156 252.445312 50.703125 252.445312 53.21875 L 252.445312 89.714844 C 252.445312 92.234375 250.402344 94.277344 247.882812 94.277344 " fill-opacity="1" fill-rule="nonzero"/><g clip-path="url(#e88bf12039)"><path fill="#333333" d="M 345.203125 155.097656 L 302.625 155.097656 C 301.722656 155.097656 300.84375 154.835938 300.105469 154.339844 L 283 142.933594 L 266.132812 142.933594 C 263.613281 142.933594 261.570312 140.890625 261.570312 138.371094 C 261.570312 135.855469 263.613281 133.8125 266.132812 133.8125 L 284.378906 133.8125 C 285.28125 133.8125 286.160156 134.074219 286.898438 134.570312 L 304.003906 145.976562 L 338.882812 145.976562 L 334.796875 133.738281 C 334.175781 131.863281 334.820312 129.820312 336.386719 128.632812 C 339.046875 126.660156 340.640625 123.476562 340.640625 120.125 C 340.640625 116.777344 339.046875 113.59375 336.386719 111.621094 C 334.820312 110.433594 334.175781 108.390625 334.796875 106.511719 L 338.882812 94.277344 L 304.003906 94.277344 L 286.898438 105.679688 C 286.160156 106.179688 285.28125 106.441406 284.378906 106.441406 L 266.132812 106.441406 C 263.613281 106.441406 261.570312 104.398438 261.570312 101.878906 C 261.570312 99.359375 263.613281 97.316406 266.132812 97.316406 L 283 97.316406 L 300.105469 85.914062 C 300.84375 85.414062 301.722656 85.152344 302.625 85.152344 L 345.203125 85.152344 C 346.675781 85.152344 348.050781 85.863281 348.90625 87.054688 C 349.761719 88.242188 350 89.761719 349.527344 91.164062 L 344.394531 106.582031 C 347.792969 110.195312 349.761719 115.066406 349.761719 120.125 C 349.761719 125.1875 347.792969 130.058594 344.394531 133.667969 L 349.527344 149.089844 C 350 150.488281 349.761719 152.011719 348.90625 153.199219 C 348.050781 154.386719 346.675781 155.097656 345.203125 155.097656 " fill-opacity="1" fill-rule="nonzero"/></g><path fill="#333333" d="M 320.871094 179.429688 L 235.71875 179.429688 C 233.203125 179.429688 231.15625 177.386719 231.15625 174.867188 C 231.15625 172.347656 233.203125 170.304688 235.71875 170.304688 L 316.308594 170.304688 L 316.308594 150.539062 C 316.308594 148.019531 318.355469 145.976562 320.871094 145.976562 C 323.390625 145.976562 325.433594 148.019531 325.433594 150.539062 L 325.433594 174.867188 C 325.433594 177.386719 323.390625 179.429688 320.871094 179.429688 " fill-opacity="1" fill-rule="nonzero"/><path fill="#333333" d="M 112.316406 35.664062 L 185.96875 60.207031 C 186.941406 58.28125 188.582031 53.195312 188.582031 41.054688 C 188.582031 20.101562 169.457031 9.125 150.566406 9.125 C 140.066406 9.125 121.675781 12.6875 112.316406 35.664062 Z M 109.464844 44.335938 C 107.46875 52.175781 106.46875 61.273438 106.46875 71.46875 C 106.46875 94.203125 121.746094 109.480469 144.484375 109.480469 C 164.988281 109.480469 177.414062 79.472656 181.3125 68.285156 Z M 144.484375 118.605469 C 116.734375 118.605469 97.347656 99.21875 97.347656 71.46875 C 97.347656 60.253906 98.511719 50.179688 100.816406 41.4375 L 76.128906 33.214844 C 73.753906 32.429688 72.449219 29.839844 73.253906 27.441406 C 74.039062 25.066406 76.582031 23.757812 79.027344 24.566406 L 103.621094 32.765625 C 115.332031 3.300781 140.113281 0 150.566406 0 C 173.421875 0 197.707031 14.398438 197.707031 41.054688 C 197.707031 58.992188 194.238281 65.980469 190.863281 68.570312 C 187.820312 78.144531 173.28125 118.605469 144.484375 118.605469 " fill-opacity="1" fill-rule="nonzero"/><path fill="#333333" d="M 120.15625 294.992188 C 97.394531 294.992188 94.472656 264.105469 93.046875 249.257812 C 92.808594 246.761719 94.636719 244.527344 97.15625 244.289062 C 99.769531 244.078125 101.886719 245.882812 102.121094 248.402344 C 104.640625 274.65625 110.035156 285.867188 120.15625 285.867188 C 123.433594 285.867188 127.257812 285.65625 131.894531 285.226562 C 140.96875 284.441406 152.492188 282.78125 167.105469 280.167969 C 185.042969 276.910156 203.3125 272.96875 215.429688 270.355469 C 227.640625 267.71875 230.421875 267.121094 231.753906 267.121094 C 233.460938 267.121094 235.601562 267.597656 238.308594 268.167969 C 243.324219 269.261719 250.210938 270.710938 255.296875 269.355469 C 261.996094 267.621094 273.734375 250.941406 273.734375 244.8125 C 273.734375 241.75 272.925781 241.273438 270.765625 240.820312 C 268.722656 240.324219 265.871094 240.25 263.589844 240.25 C 254.894531 240.25 246.695312 241.34375 246.625 241.367188 C 244.179688 241.675781 241.824219 239.964844 241.492188 237.449219 C 241.136719 234.976562 242.894531 232.671875 245.390625 232.339844 C 245.746094 232.292969 254.25 231.128906 263.589844 231.128906 C 266.703125 231.128906 270.003906 231.222656 272.832031 231.9375 C 279.339844 233.335938 282.859375 237.804688 282.859375 244.8125 C 282.859375 255.007812 268.746094 275.296875 257.601562 278.171875 C 250.425781 280.09375 242.324219 278.359375 236.386719 277.078125 C 234.554688 276.699219 232.488281 276.246094 231.753906 276.246094 C 230.800781 276.367188 224.269531 277.765625 217.355469 279.265625 C 205.1875 281.902344 186.824219 285.867188 168.71875 289.148438 C 153.824219 291.808594 142.039062 293.496094 132.722656 294.304688 C 127.828125 294.777344 123.71875 294.992188 120.15625 294.992188 " fill-opacity="1" fill-rule="nonzero"/><path fill="#333333" d="M 142.894531 255.957031 C 140.777344 255.957031 138.878906 254.460938 138.449219 252.296875 L 133.9375 230.535156 C 133.414062 228.0625 135.003906 225.640625 137.476562 225.140625 C 139.972656 224.617188 142.371094 226.210938 142.871094 228.679688 L 146.480469 246.121094 C 164.15625 243.054688 176.464844 242.058594 186.492188 241.25 C 199.25 240.226562 207.660156 239.5625 218.210938 235.191406 C 220.847656 234.097656 223.746094 232.457031 227.070312 230.535156 C 232.726562 227.277344 239.757812 223.238281 249.691406 219.558594 C 252.066406 218.679688 254.679688 219.890625 255.558594 222.242188 C 256.4375 224.59375 255.25 227.230469 252.875 228.109375 C 243.65625 231.53125 236.980469 235.355469 231.609375 238.445312 C 228 240.511719 224.886719 242.320312 221.703125 243.625 C 209.824219 248.542969 200.34375 249.304688 187.226562 250.347656 C 176.582031 251.203125 163.351562 252.273438 143.726562 255.886719 C 143.464844 255.933594 143.179688 255.957031 142.894531 255.957031 " fill-opacity="1" fill-rule="nonzero"/><path fill="#333333" d="M 223.554688 359.09375 C 221.058594 359.09375 219.015625 357.074219 218.992188 354.578125 C 218.96875 352.0625 221.011719 349.996094 223.507812 349.972656 C 229.734375 349.921875 235.222656 346.191406 237.5 340.492188 C 239.878906 334.71875 238.546875 328.183594 234.152344 323.835938 C 232.371094 322.078125 232.347656 319.179688 234.105469 317.398438 C 235.886719 315.589844 238.761719 315.589844 240.566406 317.351562 C 247.597656 324.3125 249.714844 334.742188 245.960938 343.914062 C 242.300781 353.058594 233.511719 359.023438 223.601562 359.09375 C 223.578125 359.09375 223.578125 359.09375 223.554688 359.09375 " fill-opacity="1" fill-rule="nonzero"/><path fill="#333333" d="M 223.554688 359.09375 C 221.84375 359.09375 220.230469 358.144531 219.445312 356.503906 C 215.882812 349.019531 215.644531 340.371094 218.804688 332.769531 C 221.84375 325.214844 228.046875 319.203125 235.765625 316.328125 C 238.144531 315.449219 240.757812 316.660156 241.636719 319.011719 C 242.515625 321.363281 241.304688 324.003906 238.949219 324.882812 C 233.628906 326.851562 229.351562 331.011719 227.238281 336.238281 C 225.050781 341.488281 225.21875 347.429688 227.664062 352.585938 C 228.757812 354.863281 227.785156 357.574219 225.527344 358.667969 C 224.886719 358.953125 224.21875 359.09375 223.554688 359.09375 " fill-opacity="1" fill-rule="nonzero"/><path fill="#333333" d="M 213.578125 320.960938 C 212.863281 320.960938 212.152344 320.792969 211.484375 320.460938 L 184.945312 306.632812 C 182.714844 305.46875 181.859375 302.738281 183.023438 300.480469 C 184.1875 298.269531 186.917969 297.390625 189.175781 298.554688 L 215.691406 312.359375 C 217.925781 313.523438 218.804688 316.28125 217.640625 318.515625 C 216.808594 320.082031 215.238281 320.960938 213.578125 320.960938 " fill-opacity="1" fill-rule="nonzero"/><path fill="#333333" d="M 203.429688 345.90625 C 202.835938 345.90625 202.21875 345.789062 201.625 345.527344 C 196.96875 343.53125 155.769531 325.785156 147.480469 318.109375 C 145.625 316.398438 145.507812 313.5 147.21875 311.671875 C 148.929688 309.792969 151.828125 309.699219 153.65625 311.410156 C 159.074219 316.421875 187.464844 329.539062 205.214844 337.140625 C 207.542969 338.140625 208.609375 340.824219 207.613281 343.128906 C 206.875 344.863281 205.1875 345.90625 203.429688 345.90625 " fill-opacity="1" fill-rule="nonzero"/><path fill="#333333" d="M 345.203125 53.21875 C 345.203125 59.945312 339.761719 65.386719 333.035156 65.386719 L 296.542969 65.386719 C 289.820312 65.386719 284.378906 59.945312 284.378906 53.21875 C 284.378906 46.496094 289.820312 41.054688 296.542969 41.054688 L 333.035156 41.054688 C 339.761719 41.054688 345.203125 46.496094 345.203125 53.21875 " fill-opacity="1" fill-rule="nonzero"/></svg>